<?xml version="1.0" encoding="UTF-8"?>
<svg width="1440px" height="1024px" viewBox="0 0 1440 1024" version="1.1" xmlns="http://www.w3.org/2000/svg" xmlns:xlink="http://www.w3.org/1999/xlink">
    <!-- Generator: Sketch 52 (66869) - http://www.bohemiancoding.com/sketch -->
    <title>PRODUCT SELLING@2x</title>
    <desc>Created with Sketch.</desc>
    <defs>
        <linearGradient x1="50%" y1="14.0660002%" x2="50%" y2="100%" id="linearGradient-1">
            <stop stop-color="#E9F0FB" offset="0%"></stop>
            <stop stop-color="#FFFFFF" offset="100%"></stop>
        </linearGradient>
        <linearGradient x1="50%" y1="0%" x2="50%" y2="50%" id="linearGradient-2">
            <stop stop-color="#E9F0FB" offset="0%"></stop>
            <stop stop-color="#D9E5FF" offset="100%"></stop>
        </linearGradient>
        <linearGradient x1="60.7312459%" y1="0%" x2="50%" y2="100%" id="linearGradient-3">
            <stop stop-color="#FFFFFF" offset="0%"></stop>
            <stop stop-color="#E5EEFF" offset="100%"></stop>
        </linearGradient>
        <linearGradient x1="50%" y1="-104.289511%" x2="50%" y2="100%" id="linearGradient-4">
            <stop stop-color="#FFFFFF" offset="0%"></stop>
            <stop stop-color="#B3CDEF" offset="100%"></stop>
        </linearGradient>
        <linearGradient x1="50%" y1="19.6859798%" x2="-33.8124944%" y2="294.476483%" id="linearGradient-5">
            <stop stop-color="#F7FAFF" offset="0%"></stop>
            <stop stop-color="#6B9AD9" offset="100%"></stop>
        </linearGradient>
        <linearGradient x1="45.8146591%" y1="15.1595137%" x2="75.9412525%" y2="70.6858623%" id="linearGradient-6">
            <stop stop-color="#F59BA9" offset="0%"></stop>
            <stop stop-color="#F25267" offset="100%"></stop>
        </linearGradient>
        <linearGradient x1="157.419759%" y1="-39.6921362%" x2="118.835577%" y2="115.937591%" id="linearGradient-7">
            <stop stop-color="#E5EDFF" offset="0%"></stop>
            <stop stop-color="#6B9AD9" offset="100%"></stop>
        </linearGradient>
        <linearGradient x1="50%" y1="-104.289511%" x2="50%" y2="72.9065435%" id="linearGradient-8">
            <stop stop-color="#FFFFFF" offset="0%"></stop>
            <stop stop-color="#B3CDEF" offset="100%"></stop>
        </linearGradient>
        <linearGradient x1="50%" y1="-104.289511%" x2="50%" y2="241.085689%" id="linearGradient-9">
            <stop stop-color="#FFFFFF" offset="0%"></stop>
            <stop stop-color="#B3CDEF" offset="100%"></stop>
        </linearGradient>
        <linearGradient x1="50%" y1="32.1187137%" x2="67.2859088%" y2="115.977968%" id="linearGradient-10">
            <stop stop-color="#84F0A8" offset="0%"></stop>
            <stop stop-color="#48B676" offset="100%"></stop>
        </linearGradient>
        <linearGradient x1="50%" y1="-10.8772052%" x2="54.6482382%" y2="65.4698251%" id="linearGradient-11">
            <stop stop-color="#E2A53A" offset="0%"></stop>
            <stop stop-color="#FEB755" offset="100%"></stop>
        </linearGradient>
        <linearGradient x1="50%" y1="-10.8772052%" x2="50%" y2="100%" id="linearGradient-12">
            <stop stop-color="#FFE579" offset="0%"></stop>
            <stop stop-color="#FEB755" offset="100%"></stop>
        </linearGradient>
        <linearGradient x1="-8.77133659%" y1="109.673401%" x2="17.3111424%" y2="15.4296073%" id="linearGradient-13">
            <stop stop-color="#FAD0BA" offset="0%"></stop>
            <stop stop-color="#F2A384" offset="100%"></stop>
        </linearGradient>
        <linearGradient x1="100%" y1="50%" x2="0%" y2="50%" id="linearGradient-14">
            <stop stop-color="#2865C6" offset="0%"></stop>
            <stop stop-color="#10378A" offset="100%"></stop>
        </linearGradient>
        <linearGradient x1="50%" y1="27.7727484%" x2="55.2277926%" y2="103.623291%" id="linearGradient-15">
            <stop stop-color="#1542AB" offset="0%"></stop>
            <stop stop-color="#2B68EE" offset="100%"></stop>
        </linearGradient>
        <linearGradient x1="45.7564057%" y1="73.2100692%" x2="58.5681628%" y2="9.60577234%" id="linearGradient-16">
            <stop stop-color="#3485F7" offset="0%"></stop>
            <stop stop-color="#1542AB" offset="100%"></stop>
        </linearGradient>
        <linearGradient x1="50%" y1="128.175463%" x2="31.7401857%" y2="28.5275739%" id="linearGradient-17">
            <stop stop-color="#092871" offset="0%"></stop>
            <stop stop-color="#1C4CB9" offset="100%"></stop>
        </linearGradient>
        <linearGradient x1="50%" y1="128.175463%" x2="14.9480576%" y2="4.90799724%" id="linearGradient-18">
            <stop stop-color="#092871" offset="0%"></stop>
            <stop stop-color="#1C4CB9" offset="100%"></stop>
        </linearGradient>
        <linearGradient x1="56.0993624%" y1="79.6533395%" x2="63.7407024%" y2="50%" id="linearGradient-19">
            <stop stop-color="#F5B79C" offset="0%"></stop>
            <stop stop-color="#EC906C" offset="100%"></stop>
        </linearGradient>
        <linearGradient x1="-21.5977023%" y1="115.570355%" x2="86.1745327%" y2="29.3452925%" id="linearGradient-20">
            <stop stop-color="#FAD0BA" offset="0%"></stop>
            <stop stop-color="#F2A384" offset="100%"></stop>
        </linearGradient>
        <linearGradient x1="-46.4176437%" y1="139.414401%" x2="56.0993624%" y2="0%" id="linearGradient-21">
            <stop stop-color="#F5B79C" offset="0%"></stop>
            <stop stop-color="#EC906C" offset="100%"></stop>
        </linearGradient>
        <linearGradient x1="37.81072%" y1="-27.0881986%" x2="31.5231512%" y2="118.261595%" id="linearGradient-22">
            <stop stop-color="#FFE579" offset="0%"></stop>
            <stop stop-color="#F79B1D" offset="100%"></stop>
        </linearGradient>
        <linearGradient x1="-58.7363673%" y1="-81.3873542%" x2="72.333404%" y2="68.0076203%" id="linearGradient-23">
            <stop stop-color="#FFE579" offset="0%"></stop>
            <stop stop-color="#F3B14F" offset="100%"></stop>
        </linearGradient>
        <linearGradient x1="79.3828168%" y1="-51.7652106%" x2="50%" y2="189.010271%" id="linearGradient-24">
            <stop stop-color="#F7FAFF" offset="0%"></stop>
            <stop stop-color="#6B9AD9" offset="100%"></stop>
        </linearGradient>
        <linearGradient x1="50%" y1="0%" x2="50%" y2="70.531944%" id="linearGradient-25">
            <stop stop-color="#D8A590" offset="0%"></stop>
            <stop stop-color="#B06C57" offset="100%"></stop>
        </linearGradient>
        <linearGradient x1="85.0973284%" y1="109.304399%" x2="4.85382204%" y2="-47.1761978%" id="linearGradient-26">
            <stop stop-color="#032258" offset="0%"></stop>
            <stop stop-color="#133E94" offset="100%"></stop>
        </linearGradient>
        <linearGradient x1="60.7312459%" y1="0%" x2="52.0812714%" y2="50%" id="linearGradient-27">
            <stop stop-color="#3485F7" offset="0%"></stop>
            <stop stop-color="#1A57CF" offset="100%"></stop>
        </linearGradient>
    </defs>
    <g id="PRODUCT-SELLING" stroke="none" stroke-width="1" fill="none" fill-rule="evenodd">
        <g id="Background" transform="translate(0.000000, 319.000000)">
            <path d="M0.878620449,212.15949 C113.865239,137.756485 261.965457,107.755274 445.179274,122.155855 C720,143.756728 702.533751,309.963439 1440,243.36075 L1440,463.651374 L0,463.651374 L0.878620449,212.15949 Z" fill="url(#linearGradient-1)"></path>
            <path d="M1604.16702,212.15949 L1605.04564,463.651374 L165.045636,463.651374 L165.045636,243.36075 C902.511885,309.963439 885.045636,143.756728 1159.86636,122.155855 C1343.08018,107.755274 1491.1804,137.756485 1604.16702,212.15949 Z" fill="url(#linearGradient-1)"></path>
            <path d="M0.878620449,212.15949 C113.865239,137.756485 261.965457,107.755274 445.179274,122.155855 C720,143.756728 702.533751,309.963439 1440,243.36075 L1440,495.143062 L0,495.143062 L0.878620449,212.15949 Z" fill="url(#linearGradient-1)"></path>
            <path d="M1440,212.203486 C1103.47552,242.595976 924.152709,224.509925 802.522818,193.808033 C947.435022,157.229204 1010.45328,12.7424401 1159.86636,0.998591494 C1264.75072,-7.24530537 1358.1276,89.0622235 1439.997,109.921178 C1439.997,49.9211782 1439.998,84.0152808 1440,212.203486 Z" fill="url(#linearGradient-2)"></path>
        </g>
        <g id="Shadow" transform="translate(246.000000, 806.000000)" fill="#E2EBFC" opacity="0.806164985">
            <ellipse cx="847" cy="21.4870968" rx="174" ry="20.7645161"></ellipse>
            <ellipse cx="94" cy="21.2322581" rx="94" ry="18.2322581"></ellipse>
        </g>
        <g id="Leaves" transform="translate(1183.065653, 584.491790) rotate(11.000000) translate(-1183.065653, -584.491790) translate(1088.565653, 425.491790)" fill-rule="nonzero">
            <g transform="translate(-0.000000, -0.000000)" id="Leaves-base">
                <path d="M88.9623902,316.032643 C89.1329919,316.498718 88.8923323,317.015169 88.424862,317.186168 C87.9573917,317.357167 87.4401322,317.117961 87.2695305,316.651885 C46.738238,205.922388 38.468999,122.013145 62.5397629,64.8968452 C62.7327503,64.4389151 63.2610328,64.2231312 63.7197149,64.4148784 C64.1783971,64.6066255 64.3937852,65.133293 64.2007978,65.591223 C40.3443198,122.199055 48.5722009,205.688632 88.9623902,316.032643 Z" fill="#D2DEF8"></path>
                <path d="M32.2601975,255.698036 C16.8977558,245.362738 7.44622564,232.832874 10.4132568,228.157443 C13.3802879,223.482012 28.8361972,227.708977 44.1986389,238.044274 C59.5610807,248.379572 66.0455797,265.584867 66.0455797,265.584867 C66.0455797,265.584867 47.6226393,266.033334 32.2601975,255.698036 Z" fill="url(#linearGradient-3)"></path>
                <path d="M23.450611,211.164866 C8.27163587,200.563305 -0.959100584,187.870408 2.08916439,183.247249 C5.13742935,178.624091 20.5166741,183.119722 35.6956492,193.721284 C50.8746243,204.322846 57.0570958,221.638971 57.0570958,221.638971 C57.0570958,221.638971 38.6295861,221.766428 23.450611,211.164866 Z" fill="url(#linearGradient-3)"></path>
                <path d="M16.2501271,163.43289 C3.61604059,149.910211 -2.76590392,135.575505 1.17796256,131.68448 C5.12182904,127.793456 19.223786,135.383343 31.8578725,148.906022 C44.491959,162.428701 46.930037,180.654432 46.930037,180.654432 C46.930037,180.654432 28.8842136,176.955569 16.2501271,163.43289 Z" fill="url(#linearGradient-3)"></path>
                <path d="M14.8228699,109.933112 C10.3242712,92.0095338 11.668479,76.4093019 16.9825963,74.9272286 C22.2967137,73.4451553 30.9345911,86.9047857 35.4331899,104.828364 C39.9317886,122.751943 33.2734635,139.834248 33.2734635,139.834248 C33.2734635,139.834248 19.3214687,127.856691 14.8228699,109.933112 Z" fill="url(#linearGradient-3)" transform="translate(24.550335, 107.324954) rotate(-18.000000) translate(-24.550335, -107.324954) "></path>
                <path d="M25.18365,58.4916404 C23.8999115,40.1059969 27.9088343,25.008838 33.3445481,24.4671921 C38.780262,23.9255461 44.8705361,38.6374051 46.1542746,57.0230486 C47.4380131,75.4086921 37.9933764,91.0474969 37.9933764,91.0474969 C37.9933764,91.0474969 26.4673885,76.8772839 25.18365,58.4916404 Z" fill="url(#linearGradient-3)" transform="translate(35.608468, 57.750099) rotate(-18.000000) translate(-35.608468, -57.750099) "></path>
                <path d="M88.3968226,92.1603672 C70.874392,98.1778514 53.2236597,93.0745819 53.2236597,93.0745819 C53.2236597,93.0745819 63.9824005,78.2150428 81.5048311,72.1975586 C99.0272616,66.1800743 115.040545,66.0457838 116.677994,71.2833438 C118.315443,76.5209039 105.919253,86.142883 88.3968226,92.1603672 Z" fill="url(#linearGradient-3)" transform="translate(85.023383, 81.302467) rotate(-18.000000) translate(-85.023383, -81.302467) "></path>
                <path d="M88.8257929,134.283076 C71.3033623,140.30056 53.65263,135.197291 53.65263,135.197291 C53.65263,135.197291 64.4113708,120.337752 81.9338014,114.320267 C99.456232,108.302783 115.469516,108.168493 117.106964,113.406053 C118.744413,118.643613 106.348223,128.265592 88.8257929,134.283076 Z" fill="url(#linearGradient-3)" transform="translate(85.452354, 123.425176) rotate(-18.000000) translate(-85.452354, -123.425176) "></path>
                <path d="M90.752516,174.942104 C74.3761622,183.652316 56.1272564,181.357065 56.1272564,181.357065 C56.1272564,181.357065 64.4296662,164.939769 80.80602,156.229556 C97.1823738,147.519344 112.99047,144.878315 115.43128,149.814595 C117.87209,154.750875 107.12887,166.231891 90.752516,174.942104 Z" fill="url(#linearGradient-3)" transform="translate(85.951842, 164.489202) rotate(-18.000000) translate(-85.951842, -164.489202) "></path>
                <path d="M96.2850641,215.680642 C80.2516803,224.931703 61.9670084,223.279492 61.9670084,223.279492 C61.9670084,223.279492 69.677588,206.628347 85.7109718,197.377286 C101.744356,188.126225 117.422218,184.943727 120.029028,189.778436 C122.635837,194.613145 112.318448,206.429581 96.2850641,215.680642 Z" fill="url(#linearGradient-3)" transform="translate(91.199053, 205.464567) rotate(-18.000000) translate(-91.199053, -205.464567) "></path>
                <path d="M108.125616,256.404761 C93.4808581,267.730784 75.0740113,268.63261 75.0740113,268.63261 C75.0740113,268.63261 80.4110089,251.171326 95.0557671,239.845304 C109.700525,228.519281 124.840217,223.217626 128.107372,227.617455 C131.374528,232.017284 122.770374,245.078739 108.125616,256.404761 Z" fill="url(#linearGradient-3)" transform="translate(101.935890, 247.353800) rotate(-18.000000) translate(-101.935890, -247.353800) "></path>
                <path d="M88.039937,38.551473 C74.316538,50.9284217 56.1340772,53.1109263 56.1340772,53.1109263 C56.1340772,53.1109263 60.2016426,35.226432 73.9250417,22.8494832 C87.6484407,10.4725345 102.284278,4.10376256 105.830901,8.29002995 C109.377525,12.4762973 101.763336,26.1745242 88.039937,38.551473 Z" fill="url(#linearGradient-3)" transform="translate(81.415845, 30.058882) rotate(-18.000000) translate(-81.415845, -30.058882) "></path>
            </g>
            <g transform="translate(46.000000, 54.000000)" id="Leaves-base">
                <path d="M49.5178404,260.869382 C49.5337736,261.303621 49.1941812,261.66854 48.7593396,261.684451 C48.3244979,261.700362 47.9590727,261.361241 47.9431395,260.927002 C44.1577512,157.761156 59.949562,85.6559385 95.3907558,44.6096977 C95.6749057,44.2806094 96.1724037,44.2438603 96.5019488,44.5276163 C96.8314939,44.8113723 96.868294,45.3081809 96.5841442,45.6372692 C61.4584595,86.3181028 45.7456302,158.062691 49.5178404,260.869382 Z" fill="#8FAFDA"></path>
                <path d="M25.7246715,198.52324 C41.9333921,198.52324 54.9319292,194.080946 55.0731563,189.278496 C55.2143834,184.476045 41.9333921,180.033751 25.7246715,180.033751 C9.51595087,180.033751 -3.62381336,189.278496 -3.62381336,189.278496 C-3.62381336,189.278496 9.51595087,198.52324 25.7246715,198.52324 Z" fill="url(#linearGradient-4)" transform="translate(25.725229, 189.278496) scale(-1, 1) rotate(-52.000000) translate(-25.725229, -189.278496) "></path>
                <path d="M30.5707172,159.380237 C46.7794378,159.380237 59.7779749,154.937943 59.919202,150.135493 C60.0604291,145.333042 46.7794378,140.890748 30.5707172,140.890748 C14.3619965,140.890748 1.2222323,150.135493 1.2222323,150.135493 C1.2222323,150.135493 14.3619965,159.380237 30.5707172,159.380237 Z" fill="url(#linearGradient-4)" transform="translate(30.571275, 150.135493) scale(-1, 1) rotate(-53.000000) translate(-30.571275, -150.135493) "></path>
                <path d="M38.5203692,119.179608 C54.7290898,119.179608 67.727627,114.737313 67.868854,109.934863 C68.0100811,105.132413 54.7290898,100.690118 38.5203692,100.690118 C22.3116486,100.690118 9.17188435,109.934863 9.17188435,109.934863 C9.17188435,109.934863 22.3116486,119.179608 38.5203692,119.179608 Z" fill="url(#linearGradient-4)" transform="translate(38.520927, 109.934863) scale(-1, 1) rotate(-65.000000) translate(-38.520927, -109.934863) "></path>
                <path d="M43.7366747,71.8572803 C39.8154303,56.151826 40.9871212,42.4821935 45.6192198,41.1835335 C50.2513184,39.8848735 57.7806027,51.6788136 61.7018471,67.384268 C65.6230915,83.0897223 59.819302,98.0580148 59.819302,98.0580148 C59.819302,98.0580148 47.6579191,87.5627347 43.7366747,71.8572803 Z" fill="url(#linearGradient-4)"></path>
                <path d="M65.8655065,32.1008624 C64.7348433,15.954036 68.2657349,2.69525592 73.0532844,2.21956612 C77.840834,1.74387632 83.2048928,14.6642744 84.335556,30.8111008 C85.4662192,46.9579272 77.1477781,60.692397 77.1477781,60.692397 C77.1477781,60.692397 66.9961697,48.2476888 65.8655065,32.1008624 Z" fill="url(#linearGradient-4)"></path>
                <path d="M112.56536,73.8380213 C97.2397137,79.1077506 81.8018506,74.6386323 81.8018506,74.6386323 C81.8018506,74.6386323 91.21177,61.6255948 106.537416,56.3558655 C121.863063,51.0861363 135.868764,50.9685332 137.300926,55.5552545 C138.733088,60.1419759 127.891007,68.568292 112.56536,73.8380213 Z" fill="url(#linearGradient-4)"></path>
                <path d="M101.535057,108.850033 C86.2094106,114.119763 70.7715476,109.650644 70.7715476,109.650644 C70.7715476,109.650644 80.1814669,96.6376068 95.5071133,91.3678776 C110.83276,86.0981483 124.838461,85.9805452 126.270623,90.5672665 C127.702785,95.1539879 116.860703,103.580304 101.535057,108.850033 Z" fill="url(#linearGradient-4)"></path>
                <path d="M92.230925,142.890279 C77.9194742,150.489266 61.9715824,148.486837 61.9715824,148.486837 C61.9715824,148.486837 69.2271371,134.164016 83.5385879,126.565029 C97.8500388,118.966043 111.664884,116.66195 113.797931,120.968472 C115.930978,125.274994 106.542376,135.291293 92.230925,142.890279 Z" fill="url(#linearGradient-4)"></path>
                <path d="M85.8165841,178.13926 C71.7794203,186.232388 55.7712628,184.786981 55.7712628,184.786981 C55.7712628,184.786981 62.5218445,170.220021 76.5590083,162.126893 C90.5961722,154.033765 104.322078,151.249613 106.60433,155.479173 C108.886581,159.708732 99.8537479,170.046133 85.8165841,178.13926 Z" fill="url(#linearGradient-4)"></path>
                <path d="M84.1297968,215.183865 C71.3571506,225.149119 55.3033423,225.942595 55.3033423,225.942595 C55.3033423,225.942595 59.9580851,210.579202 72.7307313,200.613949 C85.5033774,190.648695 98.7076868,185.984009 101.557186,189.855219 C104.406685,193.726429 96.9024429,205.218611 84.1297968,215.183865 Z" fill="url(#linearGradient-4)"></path>
                <path d="M126.381047,27.8443579 C114.335621,38.6750767 98.3763455,40.5849249 98.3763455,40.5849249 C98.3763455,40.5849249 101.946566,24.9347083 113.991993,14.1039894 C126.03742,3.2732706 138.88372,-2.2998621 141.996695,1.36342244 C145.109669,5.02670698 138.426474,17.013639 126.381047,27.8443579 Z" fill="url(#linearGradient-4)"></path>
            </g>
        </g>
        <g id="Item" transform="translate(730.000000, 305.000000)">
            <path d="M2.4286692,99.9474627 L167.004791,1.0601523 C168.898393,-0.0776383978 171.355822,0.53506749 172.493612,2.4286692 L245.629019,124.146426 C246.76681,126.040028 246.154104,128.497457 244.260502,129.635247 L79.6843804,228.522558 C77.7907787,229.660348 75.3333496,229.047643 74.1955589,227.154041 L1.0601523,105.436284 C-0.0776383978,103.542682 0.53506749,101.085253 2.4286692,99.9474627 Z" id="Item-base" fill="url(#linearGradient-5)"></path>
            <path d="M46.8505908,105.921814 L151.425002,43.0871693 C152.371802,42.518274 153.600517,42.8246269 154.169412,43.7714278 L200.522839,120.916485 C201.091734,121.863286 200.785381,123.092 199.838581,123.660896 L95.2641699,186.495541 C94.317369,187.064436 93.0886545,186.758083 92.5197591,185.811282 L46.1663324,108.666225 C45.597437,107.719424 45.90379,106.49071 46.8505908,105.921814 Z" id="Item-base" fill="url(#linearGradient-4)" fill-rule="nonzero"></path>
            <path d="M139.825804,142.220709 C128.937594,148.763005 114.807377,145.239946 108.26508,134.351736 C101.722784,123.463527 105.245843,109.333309 116.134053,102.791013 C127.022262,96.2487163 141.15248,99.7717752 147.694776,110.659985 C154.237073,121.548195 150.714014,135.678412 139.825804,142.220709 Z" id="Item-base" fill="url(#linearGradient-6)" fill-rule="nonzero"></path>
            <path d="M122.373182,117.184764 L134.447608,116.522535 C135.55052,116.462045 136.493644,117.307096 136.554133,118.410008 C136.57614,118.811255 136.476765,119.209826 136.26896,119.553774 L130.015648,129.903963 C129.444453,130.849378 128.214997,131.152743 127.269582,130.581548 C126.990742,130.41308 126.757277,130.179047 126.589487,129.899798 L120.768374,120.211838 C120.199478,119.265038 120.505831,118.036323 121.452632,117.467428 C121.731881,117.299638 122.04789,117.202604 122.373182,117.184764 Z" id="Item-base" fill="#FFFFFF" fill-rule="nonzero"></path>
            <path d="M46.8505908,105.921814 L151.425002,43.0871693 C152.371802,42.518274 153.600517,42.8246269 154.169412,43.7714278 L159.834831,53.2002681 L51.8317512,118.095066 L46.1663324,108.666225 C45.597437,107.719424 45.90379,106.49071 46.8505908,105.921814 Z" id="Item-base" fill="url(#linearGradient-7)" fill-rule="nonzero"></path>
            <path d="M56.6289373,110.546092 C55.6821364,111.114987 54.4534219,110.808634 53.8845266,109.861833 C53.3156312,108.915032 53.6219841,107.686318 54.568785,107.117423 C55.5155859,106.548527 56.7443004,106.85488 57.3131958,107.801681 C57.8820911,108.748482 57.5757382,109.977196 56.6289373,110.546092 Z" id="Item-base" fill="#F2F5FF" fill-rule="nonzero"></path>
            <path d="M62.6291084,106.940825 C61.6823076,107.509721 60.453593,107.203368 59.8846977,106.256567 C59.3158023,105.309766 59.6221553,104.081051 60.5689561,103.512156 C61.515757,102.943261 62.7444715,103.249614 63.3133669,104.196414 C63.8822622,105.143215 63.5759093,106.37193 62.6291084,106.940825 Z" id="Item-base" fill="#F2F5FF" fill-rule="nonzero"></path>
        </g>
        <g id="Item" transform="translate(429.000000, 291.000000)">
            <path d="M88.3662697,0.97407492 L245.643462,111.100751 C247.453083,112.367861 247.892875,114.862044 246.625765,116.671665 L165.177911,232.991255 C163.910801,234.800876 161.416617,235.240667 159.606997,233.973557 L2.32980424,123.846882 C0.520183511,122.579771 0.0803917324,120.085588 1.34750181,118.275968 L82.7953558,1.95637735 C84.0624658,0.146756624 86.556649,-0.293035155 88.3662697,0.97407492 Z" id="Item-base" fill="url(#linearGradient-5)"></path>
            <path d="M109.573194,65.1319378 L183.296878,116.753817 C184.201688,117.387372 184.421584,118.634464 183.788029,119.539274 L146.961089,172.133595 C146.327534,173.038405 145.080443,173.258301 144.175632,172.624746 L70.4519483,121.002867 C69.5471379,120.369312 69.327242,119.12222 69.960797,118.21741 L106.787737,65.623089 C107.421292,64.7182787 108.668384,64.4983828 109.573194,65.1319378 Z" id="Item-base" fill="url(#linearGradient-8)" fill-rule="nonzero"></path>
            <polygon id="Item-base" fill="url(#linearGradient-9)" fill-rule="nonzero" points="107.93489 63.9847849 184.935182 117.90097 124.712892 122.262706"></polygon>
        </g>
        <g id="Item" transform="translate(636.000000, 269.000000)">
            <path d="M245.293739,127.408992 L84.2689903,231.979687 C82.4162504,233.18287 79.9389352,232.656301 78.7357518,230.803561 L1.39700887,111.71234 C0.193825542,109.8596 0.720395147,107.382285 2.57313501,106.179102 L163.597884,1.608407 C165.450624,0.405223667 167.927939,0.931793272 169.131122,2.78453313 L246.469865,121.875754 C247.673049,123.728494 247.146479,126.205809 245.293739,127.408992 Z" id="Item-base" fill="url(#linearGradient-5)"></path>
            <path d="M180.19134,120.80009 L104.710989,169.817603 C103.784619,170.419195 102.545961,170.15591 101.94437,169.22954 L66.9753789,115.382016 C66.3737872,114.455646 66.637072,113.216989 67.563442,112.615397 L143.043793,63.5978838 C143.970163,62.9962922 145.208821,63.259577 145.810412,64.1859469 L180.779403,118.03347 C181.380995,118.95984 181.11771,120.198498 180.19134,120.80009 Z" id="Item-base" fill="url(#linearGradient-7)" fill-rule="nonzero"></path>
            <polygon id="Item-base" fill="url(#linearGradient-10)" fill-rule="nonzero" points="181.868681 119.710812 103.033648 170.906881 121.549183 113.435811"></polygon>
        </g>
        <g id="Item" transform="translate(582.000000, 293.000000)">
            <path d="M63.3845467,0.346815013 L238.785275,78.4402505 C240.803423,79.3387883 241.711048,81.70323 240.81251,83.7213789 L183.055907,213.444834 C182.157369,215.462983 179.792927,216.370607 177.774778,215.472069 L2.37405027,137.378634 C0.355901373,136.480096 -0.551722768,134.115654 0.346815013,132.097505 L58.1034183,2.37405027 C59.0019561,0.355901373 61.3663978,-0.551722768 63.3845467,0.346815013 Z" id="Item-base" fill="url(#linearGradient-5)"></path>
            <path d="M86.3619532,55.3658282 C86.7095151,54.327217 87.8277903,53.7613331 88.8704913,54.0964257 L108.662961,60.4571267 C109.650771,60.7745789 110.231782,61.7947146 110.000898,62.8062661 L108.761,68.2385172 C108.555719,69.1378917 108.99222,70.0609961 109.817604,70.4730094 L176.96208,103.990025 C176.974705,103.996327 176.987262,104.002763 176.999751,104.00933 C177.977371,104.523463 178.353101,105.732768 177.838968,106.710388 L148.490033,162.517157 C148.000574,163.447859 146.873988,163.840573 145.912033,163.415815 L64.1925152,127.332024 C63.2478109,126.914884 62.7760352,125.84708 63.1037565,124.867758 L86.3619532,55.3658282 Z" id="Item-base" fill="url(#linearGradient-11)" fill-rule="nonzero"></path>
            <path d="M64.2676815,124.347389 L92.131554,76.0016162 C92.6474504,75.1064998 93.7602151,74.7516358 94.6990747,75.1828262 L187.15689,117.645959 C188.160658,118.106961 188.600658,119.294391 188.139657,120.29816 C188.051351,120.490436 187.933093,120.667481 187.789295,120.822691 L148.102244,163.659464 C147.515066,164.293243 146.587297,164.478328 145.801875,164.118376 L65.1672397,127.164242 C64.1630984,126.704053 63.7221379,125.516978 64.1823269,124.512837 C64.2081949,124.456393 64.2366773,124.401183 64.2676815,124.347389 Z" id="Item-base" fill="url(#linearGradient-12)" fill-rule="nonzero"></path>
        </g>
        <g id="Girl" transform="translate(221.000000, 276.000000)">
            <g id="Foot" transform="translate(44.000000, 246.000000)">
                <path d="M88.711819,263 L112,264.666886 L109.487346,282.026849 C105.987297,284.159044 101.994707,285.225142 97.5095762,285.225142 C93.0244451,285.225142 89.2557669,283.11105 86.2035418,278.882866 L88.711819,263 Z" id="leg" fill="url(#linearGradient-13)" fill-rule="nonzero"></path>
                <path d="M86.0811946,277 C87.9845505,277 89.7025685,283.298652 97.9828107,283.298652 C106.263053,283.298652 108.773258,277.426179 109.971016,278.152508 C113.472631,280.275913 118.641115,281.510791 124.271727,284.097017 C138.124316,290.459725 139.453767,291.334618 137.013227,299.445627 C136.957298,300.633944 118.550876,300.664395 88.004144,299.53698 C86.5594038,299.483657 85.3400563,298.366967 85.0632069,296.843638 C84.3876071,293.126261 84.0648807,290.359515 84.0950278,288.543401 C84.1778388,283.554713 84.1778388,277 86.0811946,277 Z" id="Shoes" fill="url(#linearGradient-14)" fill-rule="nonzero"></path>
                <path d="M90.1158031,7.67124471 C114.683501,67.8514544 132.537152,134.044683 132.53844,159.45571 C132.539729,184.866738 123.716834,226.03983 111.788448,272.687563 C105.596607,276.217016 90.6094973,273.306461 87.6354455,269.776544 C84.298477,265.815879 95.6976491,178.931856 93.8689108,161.14109 C92.0401726,143.350323 41.9102131,62.0626534 41.9100639,59.1204449 C41.9099147,56.1782364 43.8219014,40.9461375 47.646024,13.424148 L90.1158031,7.67124471 Z" id="Pants" fill="url(#linearGradient-15)" fill-rule="nonzero"></path>
                <path d="M16.042945,273 L39.3311261,274.666886 L36.8184719,292.026849 C33.3184233,294.159044 29.3258335,295.225142 24.8407023,295.225142 C20.3555711,295.225142 16.586893,293.11105 13.5346679,288.882866 L16.042945,273 Z" id="leg" fill="url(#linearGradient-13)" fill-rule="nonzero"></path>
                <path d="M13.4123207,287 C15.3156765,287 17.0336946,293.298652 25.3139367,293.298652 C33.5941789,293.298652 36.1043843,287.426179 37.3021423,288.152508 C40.8037576,290.275913 45.9722412,291.510791 51.602853,294.097017 C65.4554419,300.459725 66.7848935,301.334618 64.3443531,309.445627 C64.2884237,310.633944 45.8820021,310.664395 15.33527,309.53698 C13.8905298,309.483657 12.6711824,308.366967 12.394333,306.843638 C11.7187331,303.126261 11.3960067,300.359515 11.4261538,298.543401 C11.5089648,293.554713 11.5089648,287 13.4123207,287 Z" id="Shoes" fill="url(#linearGradient-14)" fill-rule="nonzero"></path>
                <path d="M90.2081504,7.1615448 C89.2631964,25.1115482 83.0246328,38.9693265 71.4924596,48.7348795 C61.6828328,57.041764 73.4667423,96.3553486 61.157887,165.685676 C48.8490317,235.016003 42.7831698,273.005028 40.245881,279.824014 C37.7085923,286.642999 16.5968158,287.231135 14.7979659,277.79578 C12.999116,268.360425 21.5476843,225.308904 22.7486363,161.5506 C8.72258295,96.2059023 -0.78981983,46.500244 0.312212535,43.7722199 C1.4142449,41.0441958 -1.55396044,24.6332012 12.301623,0.547798423 L90.2081504,7.1615448 Z" id="Pants" fill="url(#linearGradient-16)" fill-rule="nonzero"></path>
                <path d="M23.3438474,265.301899 C36.8819592,206.348702 41.3946632,168.07879 36.8819592,150.492162 C30.1129033,124.11222 13.6290658,42.4628788 13.6290658,29.3744486" id="Texture" stroke="#3485F7" stroke-linecap="round" stroke-linejoin="round" stroke-dasharray="5,10"></path>
            </g>
            <g id="Head" transform="translate(62.687820, 81.888606) scale(-1, 1) translate(-62.687820, -81.888606) translate(0.687820, 0.388606)">
                <path d="M74.8567321,30.5115245 C87.1581146,29.4715899 94.1625377,34.1620597 95.8700012,44.582934 C98.4311964,60.2142455 85.6090485,92.2677994 105.337192,105.262674 C125.065336,118.257549 132.45244,144.719455 108.08571,158.585131 C91.8412229,167.828916 72.625408,162.474288 50.4382652,142.521247 L46.7895221,81.0583502 L54.9906027,64.3526732 L74.8567321,30.5115245 Z" id="Hair" fill="url(#linearGradient-17)"></path>
                <circle id="Hairbands" fill="url(#linearGradient-12)" fill-rule="nonzero" cx="78.5" cy="33.5" r="6.5"></circle>
                <path d="M8.99595936,52.1939794 C3.14253962,44.926538 0.215829754,36.7758175 0.215829754,27.7418177 C0.215829754,14.1908181 28.6711584,-10.7170557 59.826397,6.81259256 C90.9816357,24.3422409 89.7088298,53.5898599 58.7841091,84.8489602 C38.1676286,105.68836 29.5610071,96.6104462 32.9642446,57.6152176 L8.99595936,52.1939794 Z" id="Hair" fill="url(#linearGradient-18)"></path>
                <path d="M57.5868796,99.7482519 C36.0929212,118.009178 21.0797985,127.497104 14.9928863,124.34649 C8.9016228,121.193625 8.9016228,113.750661 17.5444194,105.178726 C21.5623112,105.004224 24.9022245,103.194066 27.5641593,99.7482519 C30.3438075,96.1500603 29.6140754,86.1354199 25.374963,69.7043305 C46.7574742,51.4143447 56.6740012,45.3751985 55.1245439,51.5868918 C52.8003579,60.9044317 54.6597067,52.622174 54.1948695,66.0808428 C53.8904024,74.8962329 55.0210725,85.8835665 57.5868796,99.0428434 L57.5868796,99.7482519 Z" id="Neck" fill="url(#linearGradient-19)"></path>
                <path d="M8.78626695,58.3912109 L7.14672883,43.5422562 C4.54332722,37.4090263 10.1925672,30.8164779 12.7266548,31.9847036 C22.6981205,36.5815941 36.8381508,35.0153267 45.3629626,27.2859014 C43.9207713,37.8656486 43.9207713,44.0602552 51.5618715,46.3208955 C54.4650493,43.322439 62.177077,41.8150081 62.5782166,52.5979486 C62.845643,59.7865756 60.008157,62.9397922 54.0657586,62.0575985 L52.5322541,74.2888558 C45.9761808,82.7358611 38.9957483,88.1269762 31.5909566,90.4622012 C25.5963238,92.3527093 21.6334491,92.4751928 19.7023326,90.8296517 C16.2725797,87.9070939 12.6939859,79.3612895 9.62157648,67.141571 C7.66980385,66.6062428 5.93097944,66.0712244 5.93097944,63.6523553 C5.93097944,62.759385 7.66980385,62.0575985 8.78626695,58.3912109 Z" id="Face" fill="url(#linearGradient-20)"></path>
                <path d="M7.14672883,43.5422562 C5.14393564,38.8239711 8.02522347,33.8338519 10.6149887,32.3143963 C10.5478556,33.9048974 9.7697041,36.4700862 10.5627138,40.3913789 C11.5044161,45.04793 13.3640384,44.9146814 13.0769864,48.2147148 C12.643463,53.1986244 11.7905382,56.7736081 8.55389844,58.6630989 C8.63209568,58.5730497 8.70955185,58.4824204 8.78626695,58.3912109 L7.14672883,43.5422562 Z" id="Path" fill="url(#linearGradient-21)"></path>
            </g>
            <g id="Hand" transform="translate(107.000000, 59.000000)" fill-rule="nonzero">
                <path d="M135.410109,35.4776904 L126.2547,28.4699177 L139.239227,17.5448585 C140.300879,9.62098883 141.599473,4.79797022 143.135009,3.07580272 C144.68079,1.34214543 153.314361,-0.307072085 155.138086,0.23079168 C155.338096,0.289779798 150.797782,5.94587396 150.11977,7.75555009 C149.956988,8.19002955 150.619692,8.46192805 150.903548,8.3254662 C153.540136,7.05794618 158.62968,2.99153767 160.323363,4.53993664 C162.017046,6.0883356 156.837195,9.38511524 156.163527,13.4307994 C155.593371,16.8548459 152.385873,20.4624554 146.541033,24.253628 L135.410109,35.4776904 Z" fill="#F2A384"></path>
                <path d="M0.579496868,46.9753559 C13.5677237,48.8538918 24.8801787,50.8816104 34.5168616,53.0585115 C43.6029529,55.1110354 55.7748005,59.4928884 67.8374919,57.8853562 C91.4078438,54.7442579 128.986568,18.8786527 134.460155,18.8786527 C136.66938,18.8786527 139.540286,21.8364914 143.072874,27.7521687 L143.072885,27.7521622 C143.737104,28.8644654 143.612273,30.2774935 142.763335,31.2561199 C116.549706,61.4742721 99.4172863,79.281478 91.3660755,84.6777378 C83.1722143,90.1696078 59.0341194,96.6400706 18.9517907,104.089126 C21.0916357,96.6350099 21.0916357,89.5906992 18.9517907,82.9561942 C17.5261883,78.5361702 11.4020904,66.5425574 0.579496868,46.9753559 Z" id="Sleeve" fill="url(#linearGradient-12)"></path>
                <path d="M15.9821924,76.0577144 C14.7527913,73.5017168 13.1792597,70.3910091 11.2615976,66.7255911 C11.5501082,61.1845577 16.1343352,56.7804948 21.7471862,56.7804948 C27.546176,56.7804948 32.2471862,61.4815049 32.2471862,67.2804948 C32.2471862,73.0794847 27.546176,77.7804948 21.7471862,77.7804948 C19.6180716,77.7804948 17.636966,77.1467936 15.9821924,76.0577144 Z M55.2023986,96.6217146 C53.0355133,94.6982494 51.6700592,91.8918424 51.6700592,88.7665165 C51.6700592,82.9675266 56.3710693,78.2665165 62.1700592,78.2665165 C67.9690491,78.2665165 72.6700592,82.9675266 72.6700592,88.7665165 C72.6700592,89.9952305 72.4590079,91.1746509 72.0711791,92.2705037 C67.2308458,93.6728748 61.6079189,95.1232785 55.2023986,96.6217146 Z M125.101371,51.2651019 C121.417845,49.6342936 118.847909,45.9468981 118.847909,41.6592617 C118.847909,35.8602718 123.548919,31.1592617 129.347909,31.1592617 C133.186952,31.1592617 136.544785,33.2195717 138.376012,36.2947978 C133.628276,41.7261335 129.203394,46.716237 125.101366,51.2651082 L125.101371,51.2651019 Z M72.9936104,56.7634585 C78.8381913,55.055038 85.2570933,51.8584449 91.6825069,48.0182499 C92.932977,49.7464725 93.6700592,51.8705442 93.6700592,54.1667707 C93.6700592,59.9657606 88.9690491,64.6667707 83.1700592,64.6667707 C78.2672906,64.6667707 74.1493462,61.3065386 72.9936104,56.7634585 Z" id="Texture" fill="url(#linearGradient-22)"></path>
            </g>
            <g id="Body" transform="translate(24.000000, 100.000000)" fill-rule="nonzero">
                <path d="M82.9012464,5.4652839 C91.1679413,8.89718398 98.1859722,14.77741 103.012085,22.3156337 L103.513217,23.0983847 C108.595893,31.0373518 110.552668,40.5796064 109.00481,49.8782586 C103.666361,81.9485732 100.997256,100.239745 100.997485,104.751773 C100.997746,109.90128 104.138362,126.128547 110.419332,153.433576 C106.840677,153.837003 101.094024,154.926576 93.1793737,156.702295 C69.8847232,161.928646 43.4159538,160.337736 32.0050376,149.211933 C24.1428629,141.546203 14.9673583,131.603435 4.2275039,107.782968 C-5.95454957,58.9845189 7.29942454,26.3950446 12.6279175,20.1911414 C17.9564105,13.9872382 17.9456794,10.7015284 43.957233,0.157416102 C65.4775779,18.4467128 79.2833822,26.0149285 85.3746456,22.8620631 C91.4659091,19.7091977 88.8303914,15.4124098 82.9012464,5.4652839 Z" fill="url(#linearGradient-12)"></path>
                <path d="M32.0050376,149.211933 C29.3814721,146.65392 26.6116646,143.842354 23.6862877,140.346182 L28.3641369,108.308279 L35.1252893,38.9338961 C39.7838309,58.9281144 54.4001626,62.6227785 49.3500429,75.3184956 C41.7748633,94.3620712 75.6990543,98.2347022 69.774516,117.036949 C63.8499778,135.839197 88.8174733,135.839197 86.6568875,153.21164 C86.4274513,155.056449 85.8733801,156.732021 84.9946739,158.238358 C63.9614955,161.432879 42.0957278,159.050497 32.0050376,149.211933 Z" id="Texture" fill="url(#linearGradient-23)" opacity="0.400000006"></path>
                <path d="M6.58411771,85.3676749 C6.58411771,89.0135085 4.72597027,92.2253485 1.90504306,94.1078273 C1.0645376,87.6679481 0.631534305,81.5713607 0.517539613,75.8467807 C4.10081524,77.5181862 6.58411771,81.1529274 6.58411771,85.3676749 Z M14.3536809,126 C20.1526708,126 24.8536809,130.70101 24.8536809,136.5 C24.8536809,137.992178 24.5424176,139.411657 23.9812776,140.69705 C20.7253204,136.842777 17.2756527,132.152439 13.6192752,126.025289 C13.8618999,126.008521 14.1067953,126 14.3536809,126 Z M43.8477963,148.718347 C43.8477963,142.919357 48.5488064,138.218347 54.3477963,138.218347 C60.1467862,138.218347 64.8477963,142.919357 64.8477963,148.718347 C64.8477963,153.682177 61.4033427,157.841512 56.7741921,158.936595 C53.8961482,158.589428 51.1297657,158.096846 48.517844,157.452469 C45.7019803,155.569165 43.8477963,152.36029 43.8477963,148.718347 Z M105.664863,132.087199 C104.611779,132.441885 103.484,132.634126 102.31132,132.634126 C96.5123301,132.634126 91.81132,127.933116 91.81132,122.134126 C91.81132,116.529788 96.2020337,111.950956 101.731212,111.649879 C102.475769,116.463398 103.786986,123.275838 105.664863,132.087199 Z M103.176242,86.4420752 C101.926101,86.9673685 100.552871,87.2576592 99.1118406,87.2576592 C93.3128508,87.2576592 88.6118406,82.556649 88.6118406,76.7576592 C88.6118406,70.9586693 93.3128508,66.2576592 99.1118406,66.2576592 C101.706969,66.2576592 104.082206,67.199124 105.914638,68.7591393 C104.818613,75.5992686 103.905814,81.4935806 103.176242,86.4420752 Z M20.6105514,51.4957473 C14.8115615,51.4957473 10.1105514,46.7947372 10.1105514,40.9957473 C10.1105514,35.1967575 14.8115615,30.4957473 20.6105514,30.4957473 C26.4095412,30.4957473 31.1105514,35.1967575 31.1105514,40.9957473 C31.1105514,46.7947372 26.4095412,51.4957473 20.6105514,51.4957473 Z M56.0927402,105 C50.2937504,105 45.5927402,100.29899 45.5927402,94.5 C45.5927402,88.7010101 50.2937504,84 56.0927402,84 C61.8917301,84 66.5927402,88.7010101 66.5927402,94.5 C66.5927402,100.29899 61.8917301,105 56.0927402,105 Z M66.5927402,55.8751672 C60.7937504,55.8751672 56.0927402,51.1741571 56.0927402,45.3751672 C56.0927402,39.5761773 60.7937504,34.8751672 66.5927402,34.8751672 C72.3917301,34.8751672 77.0927402,39.5761773 77.0927402,45.3751672 C77.0927402,51.1741571 72.3917301,55.8751672 66.5927402,55.8751672 Z" id="Texture" fill="url(#linearGradient-22)"></path>
            </g>
            <g id="Hand" transform="translate(17.000000, 105.000000)" fill-rule="nonzero">
                <path d="M56.6132925,162.535133 L63.9363155,153.629869 L74.4015659,166.987766 C81.5508332,168.355056 85.5288945,169.899318 86.33575,171.620552 C87.5460331,174.202402 84.4333103,173.809879 86.9346037,176.201935 C88.613258,177.807278 91.4657992,180.323259 90.864616,182.127102 C90.6358224,182.813594 87.6826513,182.895576 87.2364426,183.52158 C85.0435413,186.598089 80.5986917,188.647774 77.5741245,186.757814 C74.0693697,184.5678 70.6920129,180.332193 67.442054,174.050991 L56.6132925,162.535133 Z" fill="#F2A384"></path>
                <path d="M52.0067937,47.1276101 C44.066533,67.9170674 39.2573651,83.1365706 37.5792902,92.7861197 C35.9012152,102.435669 45.8184005,122.901865 67.3308461,154.184709 C66.19352,165.435959 61.8087141,168.626592 54.1764285,163.756606 C42.7280001,156.451627 24.192078,155.244342 3.73129098,97.0919958 C-7.42385365,65.3875539 11.9922903,16.757674 27.6406136,6.58883438 C40.6944741,-1.89403059 49.8371588,-0.0746614833 52.0067937,6.58883438 C58.1280937,25.3888907 58.1280937,38.9018159 52.0067937,47.1276101 Z" id="Sleeve" fill="url(#linearGradient-12)"></path>
                <path d="M1.9553786,90.8077145 C0.526251472,84.2929975 0.160890513,77.2766708 0.610000003,70.1608303 C1.40336708,69.9692068 2.23188537,69.8676749 3.08411771,69.8676749 C8.88310758,69.8676749 13.5841177,74.568685 13.5841177,80.3676749 C13.5841177,86.1666648 8.88310758,90.8676749 3.08411771,90.8676749 C2.70278188,90.8676749 2.326194,90.8473466 1.9553786,90.8077145 Z M14.6202714,123.442921 C16.4430897,121.917935 18.7911877,121 21.3536809,121 C27.1526708,121 31.8536809,125.70101 31.8536809,131.5 C31.8536809,135.923128 29.1187553,139.70748 25.2477236,141.254236 C21.8269079,136.627396 18.2732741,130.826444 14.6202714,123.442921 Z M27.6105514,46.4957473 C21.8115615,46.4957473 17.1105514,41.7947372 17.1105514,35.9957473 C17.1105514,30.1967575 21.8115615,25.4957473 27.6105514,25.4957473 C33.4095412,25.4957473 38.1105514,30.1967575 38.1105514,35.9957473 C38.1105514,41.7947372 33.4095412,46.4957473 27.6105514,46.4957473 Z" id="Texture" fill="#FEC644"></path>
            </g>
        </g>
        <g id="Shadow" transform="translate(421.000000, 768.000000)" fill="#E2EBFC" opacity="0.600000024">
            <polygon style="mix-blend-mode: multiply;" points="199 21 268 43 621 22 548 0.5"></polygon>
            <polygon style="mix-blend-mode: multiply;" points="199 21 166.48224 43 0.123265677 22 34.5261131 0.5"></polygon>
        </g>
        <g id="Box" transform="translate(416.000000, 410.000000)" fill-rule="nonzero">
            <polygon id="Box-base" fill="url(#linearGradient-7)" points="40 30 204 0 204 379 40 358"></polygon>
            <polygon id="Path" fill="#E2EBFC" opacity="0.600000024" style="mix-blend-mode: multiply;" points="40 30 204 0 184 178 40 178"></polygon>
            <polygon id="Box-base" fill="url(#linearGradient-7)" points="40 30 204 0 164 168 0 168"></polygon>
            <polygon id="Box-base" fill="url(#linearGradient-24)" points="204 0 554 30 554 359 204 379"></polygon>
            <path d="M204.4699,44.8389129 C239.349924,71.4748965 255.163423,111.824597 251.910395,165.888013 C247.030854,246.983139 379.545882,167.909067 370.164603,230.675765 C360.783325,293.442462 482.152443,259.664665 473.177402,298.33304 C464.202361,337.001416 552.440346,307.711983 552.440346,358.996928 L203.781904,378.984524 L204.4699,44.8389129 Z" id="Box-base" fill="url(#linearGradient-7)" opacity="0.200000003"></path>
            <polygon id="Box-base" fill="#79A4DD" points="230 310.281926 263.219972 310.74102 263.219972 344.356126 230 346.25441"></polygon>
            <polygon id="Box-base" fill="#79A4DD" points="278.028554 310.281926 376.283586 311.639792 376.283586 320.063516 278.028554 319.678089"></polygon>
            <polygon id="Box-base" fill="#79A4DD" points="278.028554 326.689931 327.797921 326.364669 327.797921 334.788393 278.028554 336.086094"></polygon>
            <polygon id="Path" fill="#E2EBFC" opacity="0.600000024" style="mix-blend-mode: multiply;" points="554 30 554 179 214 179 204 0"></polygon>
            <polygon id="Box-base" fill="url(#linearGradient-24)" points="204 0 554 30 594 159 244 159"></polygon>
        </g>
        <g id="Man" transform="translate(927.000000, 227.000000)">
            <g id="Head" transform="translate(71.000000, 0.000000)" fill-rule="nonzero">
                <path d="M60.5662571,94.8251112 C63.0088849,108.932287 66.1017104,117.30643 67.9041989,120.818492 C70.6079317,126.086585 100.369447,134.736733 76.1907336,145.539283 C60.0715911,152.740983 41.8442174,145.451507 19.6154147,118.65406 C24.5944275,114.148914 28.465157,108.504314 28.7859138,102.375615 C29.1066706,96.2469157 28.1336632,90.9318864 25.8668916,86.430527 C13.6073865,60.5806656 8.6454862,45.1976735 10.9811907,40.2815506 C13.3168952,35.3654277 24.9070432,27.3880121 45.7516349,16.349304 C66.3873432,26.1568396 86.566106,27.6427193 86.2231302,34.1959582 L84.4423768,54.0176714 C91.061745,68.5739902 81.4423768,88.430527 77.7723021,92.5907177 C74.1022274,96.7509084 66.1017104,94.8251112 60.5662571,94.8251112 Z" id="Face" fill="url(#linearGradient-25)"></path>
                <g id="Glasses" transform="translate(67.055824, 57.476500) rotate(-3.000000) translate(-67.055824, -57.476500) translate(38.555824, 46.476500)" fill="url(#linearGradient-26)">
                    <path d="M37.4751963,14 L33.4487878,14 C32.5623894,17.3123628 30.1118491,20.1387793 26.7456213,21.2455992 C21.2857721,23.0408044 15.6791771,19.426461 14.3755161,13.5895509 C13.1362934,8.04115228 16.1416024,2.54403595 21.3124985,1.26131766 C26.7795939,-0.0948772985 32.3085078,3.46938831 33.5540423,8.9486514 C33.7091701,9.63107817 33.792517,10.3179278 33.8089192,11 L37.097638,11 C37.1317621,6.42121956 39.9522135,2.34295171 44.3124985,1.26131766 C49.7795939,-0.0948772985 55.3085078,3.46938831 56.5540423,8.9486514 C57.7353786,14.1454989 54.7540035,19.598837 49.7456213,21.2455992 C44.4149267,22.9983382 38.9443469,19.594431 37.4751963,14 Z M24.9758993,18.2911874 C28.514441,17.1277104 30.7926651,12.9605307 29.9151218,9.10010725 C29.1017767,5.52209941 25.9422271,3.48526653 22.7504393,4.27703736 C19.2624521,5.14228486 17.0081619,9.26568634 17.9397781,13.4368321 C18.806956,17.3194663 21.8888244,19.3062214 24.9758993,18.2911874 Z M47.9758993,18.2911874 C51.514441,17.1277104 53.7926651,12.9605307 52.9151218,9.10010725 C52.1017767,5.52209941 48.9422271,3.48526653 45.7504393,4.27703736 C42.2624521,5.14228486 40.0081619,9.26568634 40.9397781,13.4368321 C41.806956,17.3194663 44.8888244,19.3062214 47.9758993,18.2911874 Z"></path>
                    <polygon points="0.1485268 7.32799033 15.1375631 7.74667798 14.9805552 13.7425666 0.1485268 10.3279903"></polygon>
                </g>
                <path d="M90.8833188,22.3221309 C90.8833188,39.9984887 75.8614968,47.9306075 45.8178528,46.1184872 C42.9598144,57.1700493 41.4907749,62.979494 41.4107342,63.5468216 C40.8419408,67.5784238 36.9844199,48.776565 31.319304,51.9782894 C25.6541881,55.1800138 25.1462034,68.7749911 34.2864647,72.9014712 C32.1924473,80.1095234 30.2371423,83.1911906 26.4549761,87.9000101 C18.3033505,86.7755753 11.1828149,76.8102982 5.00100426,59.6069824 C-1.18080634,42.4036667 -0.721790247,39.8328771 6.37805255,30.7471905 C4.32380123,23.9867116 5.46794742,17.4832121 9.81049111,11.2366923 C13.1094632,6.49129502 29.3013185,-2.14389761 45.7842158,1.13295405 C80.8617993,8.10648758 90.8833188,-4.19240578 90.8833188,22.3221309 Z" id="Hair" fill="url(#linearGradient-26)"></path>
            </g>
            <g id="Foot" transform="translate(49.000000, 204.593823)">
                <path d="M180.834673,316.749719 L189.988896,336.386156 C188.41439,342.368224 184.993452,346.587365 179.726083,349.04358 C174.458713,351.499794 169.841002,352.128791 165.872948,350.930569 L154.397715,331.460744 L180.834673,316.749719 Z" id="leg" fill="url(#linearGradient-13)" fill-rule="nonzero"></path>
                <path d="M162.525382,344.881062 C164.760697,343.838718 170.227711,350.295051 179.952086,345.760501 C189.67646,341.225951 187.443353,333.87096 189.247771,334.068032 C192.764553,334.452122 197.807748,335.13766 204.377358,336.124647 C224.705293,333.136091 235.394488,335.26253 236.444944,342.503964 C237.030024,343.930161 213.617454,354.891159 177.125746,370.295574 C175.399832,371.024142 173.356283,370.38045 172.196921,368.743055 C169.367726,364.747323 167.473547,361.674774 166.514384,359.525407 C163.879658,353.621307 160.290068,345.923406 162.525382,344.881062 Z" id="Shoes" fill="url(#linearGradient-14)" fill-rule="nonzero"></path>
                <path d="M90.333957,46.277461 C105.895444,69.0019647 135.8679,117.987237 152.925459,206.196249 C169.983018,294.40526 189.20233,319.714348 189.26816,325.902214 C189.366905,335.184014 159.381544,348.668323 152.925459,338.250602 C148.621402,331.305455 131.645091,303.195829 103.915436,226.698202 C57.3374117,155.266399 35.0398498,104.062223 35.1038398,100.309197 C35.1678297,96.5561708 37.9375651,77.1698186 43.413046,42.1501401 C59.1321659,22.1771837 74.7724696,23.5529574 90.333957,46.277461 Z" id="Pants" fill="url(#linearGradient-15)" fill-rule="nonzero"></path>
                <path d="M85.9354556,121.651531 C124.18237,214.604934 151.246925,283.342882 167.129118,327.865375" id="Texture" stroke="#5F90CC" stroke-linecap="round" stroke-linejoin="round" stroke-dasharray="5,10"></path>
                <path d="M37.1903897,347.827094 L33.7990282,369.225414 C29.1485736,373.30432 23.9531738,374.889183 18.2128288,373.980001 C12.4724837,373.07082 8.29249701,371.01009 5.67286855,367.797812 L7.04685759,345.239727 L37.1903897,347.827094 Z" id="leg" fill="url(#linearGradient-13)" fill-rule="nonzero"></path>
                <path d="M6.28045235,360.910608 C8.71648351,361.296438 9.63850781,369.706097 20.2360678,371.384585 C30.8336279,373.063074 33.0951564,365.716772 34.480886,366.88917 C37.1816498,369.174155 40.9793003,372.562611 45.8738375,377.054539 C64.3976381,385.944151 70,388.406177 69,396.907096 C68.8003686,397.871529 40.2515665,396.863511 40.5046993,396.907096 C50.5037515,398.628742 18.2083416,392.901708 4.17308733,390.144614 C2.33482947,389.783505 1.00059852,388.107122 0.955063827,386.101353 C0.843939749,381.206675 0.991742081,377.600205 1.39847082,375.281942 C2.51571468,368.913901 3.84442119,360.524779 6.28045235,360.910608 Z" id="Shoes" fill="url(#linearGradient-14)" fill-rule="nonzero"></path>
                <path d="M103.573464,76.3340806 C106.248963,129.120349 97.3167734,183.645207 76.776895,239.908656 C45.9670774,324.303828 44.6230072,351.489547 41.4924478,356.827489 C36.7966088,364.834401 1.84867518,365.606732 1.6802534,353.351873 C1.56797221,345.181966 12.6661385,303.75242 23.2362973,226.584889 C33.8064561,149.417358 19.289928,108.601562 23.2362973,88.7136608 C27.1826666,68.8257594 40.7501796,39.3431736 63.9388363,0.265903468 L103.573464,76.3340806 Z" id="Pants" fill="url(#linearGradient-27)" fill-rule="nonzero"></path>
                <path d="M61.3069598,114.823586 C59.6228679,157.552628 55.7271372,194.451037 49.6197677,225.518813 C43.5123982,256.586589 33.7702534,298.970696 20.3933331,352.671134" id="Texture" stroke="#5F90CC" stroke-linecap="round" stroke-linejoin="round" stroke-dasharray="5,10"></path>
            </g>
            <g id="Body" transform="translate(57.000000, 107.000000)" fill-rule="nonzero">
                <path d="M78.315056,5.7271091 L99,22 C119,49 110.509928,137.69603 109.132298,191.367905 C86.6255991,214.103598 70.7848912,217.428045 21.610174,201.341245 C24.5153009,185.189376 22.9248413,160.236752 16.8387951,126.483375 C6.89944773,75.9323064 -3.89348084,38.4506799 2.5,31 C8.19316511,24.3654371 18.7651812,18.8149764 33.3516667,9.47366672 C34.5478549,8.70761762 35.9386896,6.21915768 37.524171,2.00828692 C40.0094592,1.10129779 41.3427713,0.717726215 41.5241074,0.857572188 C41.9626649,1.19578684 39.7316574,3.80374177 39.999502,4.00781882 C57.4987406,17.3408956 69.374939,22.4339743 76.6305193,20.2458304 C81.2240438,18.8605115 82.7661422,36.1583292 85.3722498,34.8078897 C87.2428761,33.8385638 84.6431321,18.413995 85.3722498,17.0405276 C85.5296523,16.7440225 82.1489044,15.5187979 81.1727514,14.1637619 C80.384994,13.0702451 79.4324289,10.2580275 78.315056,5.7271091 Z" fill="url(#linearGradient-10)"></path>
                <polygon id="Texture" fill="#7BE8A1" points="40.6087594 15.2699851 45.5238285 16.1876428 43.0550024 29.4109295 33.5062487 25.2822784 30.9279877 36.1394149 20.931589 32.4425553 19.1140476 40.5631227 14.2347684 39.4710448 17.301525 25.7691262 27.3675722 29.4917432 30.0188669 18.3270593 39.2896065 22.3355037"></polygon>
                <polygon id="Texture" fill="#7BE8A1" points="96.7814176 46.589231 101.496821 44.9264114 105.970398 57.6125267 95.6366095 58.8113868 98.8323383 69.5030733 88.3267732 71.2996983 90.8130199 79.2410866 86.0414012 80.7349591 81.8463311 67.3353712 92.4250921 65.5262284 89.1388387 54.5316812 99.171757 53.3677262"></polygon>
                <polygon id="Texture" fill="#7BE8A1" points="52.001904 55.5801592 47.671777 53.0801592 53.6712253 42.6888099 64.0625746 48.6882582 61.5625746 53.0183853 55.5013523 49.5189369"></polygon>
            </g>
            <g id="Item" transform="translate(0.000000, 176.000000)" fill-rule="nonzero">
                <path d="M4,0 L196,5.68434189e-14 C198.209139,5.68434189e-14 200,1.790861 200,4 L200,146 C200,148.209139 198.209139,150 196,150 L4,150 C1.790861,150 0,148.209139 0,146 L0,4 C0,1.790861 1.790861,0 4,0 Z" id="Rectangle-23-Copy-4" fill="#F2F5FF"></path>
                <path d="M39,28 L161,28 C162.104569,28 163,28.8954305 163,30 L163,120 C163,121.104569 162.104569,122 161,122 L39,122 C37.8954305,122 37,121.104569 37,120 L37,30 C37,28.8954305 37.8954305,28 39,28 Z" id="Mask" fill="url(#linearGradient-4)"></path>
                <polygon id="Rectangle" fill="#FFFFFF" points="53 86 63 86 63 104 53 104"></polygon>
                <polygon id="Rectangle-Copy" fill="#FFFFFF" points="66 76 76 76 76 104 66 104"></polygon>
                <polygon id="Rectangle-Copy-3" fill="#FFFFFF" points="95 76 105 76 105 104 95 104"></polygon>
                <polygon id="Rectangle-Copy-2" fill="#FFFFFF" points="81 66 91 66 91 104 81 104"></polygon>
                <path d="M134.5,104 C124.835017,104 117,96.1649831 117,86.5 C117,76.8350169 124.835017,69 134.5,69 C144.164983,69 152,76.8350169 152,86.5 C152,96.1649831 144.164983,104 134.5,104 Z" id="Oval" fill="#FFFFFF"></path>
                <path d="M134.5,86.5 C134.5,79.897774 134.5,76.8350169 134.5,69 C144.164983,69 152,76.8350169 152,86.5 C144.164983,86.5 144.164983,86.5 134.5,86.5 Z" id="Oval-Copy" fill="url(#linearGradient-9)"></path>
                <path d="M39,28 L161,28 C162.104569,28 163,28.8954305 163,30 L163,41 L37,41 L37,30 C37,28.8954305 37.8954305,28 39,28 Z" id="Rectangle-4-Copy" fill="url(#linearGradient-7)"></path>
                <path d="M45,37 C43.8954305,37 43,36.1045695 43,35 C43,33.8954305 43.8954305,33 45,33 C46.1045695,33 47,33.8954305 47,35 C47,36.1045695 46.1045695,37 45,37 Z" id="Oval-2" fill="#F2F5FF"></path>
                <path d="M52,37 C50.8954305,37 50,36.1045695 50,35 C50,33.8954305 50.8954305,33 52,33 C53.1045695,33 54,33.8954305 54,35 C54,36.1045695 53.1045695,37 52,37 Z" id="Oval-2-Copy" fill="#F2F5FF"></path>
            </g>
            <g id="Hand" transform="translate(40.000000, 132.000000)" fill-rule="nonzero">
                <path d="M60.7459105,130.583793 C49.843679,130.011657 15.6521384,61.3878924 16.7650939,40.1226542 C17.8780494,18.8574159 19.8150666,6.68867102 30.717298,7.26080713 C41.6195295,7.83294325 58.5203772,16.202754 57.4074217,37.4679922 C56.7680053,49.6853203 54.9489182,73.5350871 56.1405404,96.2176883 C57.0230321,113.015972 65.3845799,130.827225 60.7459105,130.583793 Z" id="Shadow" fill="#95AFF5" opacity="0.5"></path>
                <path d="M85.6527438,182.133557 C78.9641401,180.666559 49.6431504,159.956993 26.9586896,134.214285 C21.1232852,127.59217 51.0259703,109.254842 55.9825563,117.856292 C63.4970013,130.896542 76.8849928,148.464835 96.1465308,170.561169 C98.6167555,171.393419 101.297731,172.344025 104.189451,173.412983 C113.04105,172.66499 118.06446,172.729134 119.259682,173.605414 C120.454905,174.481693 118.559878,176.53711 113.574603,179.771664 C124.985727,183.998915 130.988683,186.78661 131.583471,188.13475 C132.17826,189.48289 128.346673,189.539383 120.08871,188.304229 C128.471507,193.131832 132.296501,196.046194 131.563691,197.047315 C130.830881,198.048437 125.973764,197.452262 116.992339,195.258791 C123.085241,200.510232 125.615256,203.377118 124.582384,203.859449 C123.549512,204.34178 119.134358,202.85897 111.336921,199.411019 C113.693999,204.703168 114.31761,207.374082 113.207753,207.423761 C112.097897,207.473439 106.856808,201.547887 97.4844855,189.647105 L87.7100969,183.212643 C87.3473227,182.904677 86.9919812,182.600887 86.6440725,182.30127 C86.3210433,182.263563 85.9906004,182.207658 85.6527438,182.133557 Z" fill="#B06C57"></path>
                <path d="M56.9733962,41.6805902 C48.6869955,72.8917215 49.3630399,80.3332068 48.7792278,97.9621551 C48.6806584,100.938584 49.6240399,104.718274 51.6093723,109.301227 C51.6857321,109.477496 51.9459231,109.564678 52.3899451,109.562774 C54.2712113,109.554702 56.047348,110.429467 57.1877173,111.925724 C58.405181,113.523135 59.3850243,114.947475 60.1272474,116.198741 C67.8016639,129.136555 39.9130361,150.486648 22.1318243,137.292287 C20.95431,136.418525 19.8693684,134.279435 18.8769995,130.875018 C18.4076006,129.264688 18.6337033,127.531392 19.5004924,126.095365 C19.6962763,125.771005 19.7332678,125.530766 19.6114671,125.374645 C16.592075,121.504477 13.7812525,117.562039 11.2682011,113.590638 C-10.5238794,79.1523897 5.9495955,8.89823916 24.6287194,1.99195236 C41.2178435,-4.14159275 65.2597968,10.4694588 56.9733962,41.6805902 Z" id="Sleeve" fill="url(#linearGradient-10)"></path>
                <polygon id="Texture" fill="#6AD792" points="14.9220608 34.2911031 13.2592412 29.5756995 25.9453564 25.1021223 27.1442166 35.4359111 37.835903 32.2401823 39.6325281 42.7457474 47.5739164 40.2595008 49.0677888 45.0311195 35.668201 49.2261896 33.8590582 38.6474285 22.864511 41.9336819 21.7005559 31.9007637"></polygon>
                <polygon id="Texture" fill="#4FC37D" points="39.4550797 114.93856 41.9550797 110.608433 52.346429 116.607881 46.3469807 126.999231 42.0168537 124.499231 45.516302 118.438008"></polygon>
                <polygon id="Texture" fill="#4FC37D" points="18.2934889 98.3133496 13.9633619 95.8133496 19.9628102 85.4220003 30.3541595 91.4214486 27.8541595 95.7515756 21.7929372 92.2521273"></polygon>
                <polygon id="Texture" fill="#5FCC89" points="35.5422745 75.2665165 31.2121474 72.7665165 37.2115958 62.3751672 47.6029451 68.3746155 45.1029451 72.7047425 39.0417228 69.2052942"></polygon>
            </g>
        </g>
    </g>
</svg>