<svg xmlns="http://www.w3.org/2000/svg" xmlns:xlink="http://www.w3.org/1999/xlink" viewBox="0 0 324.79 60.35"><defs><style>.cls-1{mask:url(#mask);filter:url(#luminosity-noclip-2);}.cls-2{mix-blend-mode:multiply;fill:url(#linear-gradient);}.cls-3,.cls-5,.cls-6,.cls-7{fill:#fff;}.cls-4{mask:url(#mask-2);}.cls-5{opacity:0.5;}.cls-6,.cls-7{font-size:26px;font-family:Poppins-ExtraBold, Poppins;font-weight:800;}.cls-6{letter-spacing:0.4em;}.cls-7{letter-spacing:0.4em;}.cls-8{filter:url(#luminosity-noclip);}</style><filter id="luminosity-noclip" x="7.33" y="-8226.04" width="36.52" height="32766" filterUnits="userSpaceOnUse" color-interpolation-filters="sRGB"><feFlood flood-color="#fff" result="bg"/><feBlend in="SourceGraphic" in2="bg"/></filter><mask id="mask" x="7.33" y="-8226.04" width="36.52" height="32766" maskUnits="userSpaceOnUse"><g class="cls-8"/></mask><linearGradient id="linear-gradient" x1="36.01" y1="22.65" x2="20.25" y2="50.99" gradientUnits="userSpaceOnUse"><stop offset="0" stop-color="#fff"/><stop offset="0.17" stop-color="#c6c6c6"/><stop offset="0.4" stop-color="gray"/><stop offset="0.6" stop-color="#494949"/><stop offset="0.78" stop-color="#212121"/><stop offset="0.92" stop-color="#090909"/><stop offset="1"/></linearGradient><filter id="luminosity-noclip-2" x="7.33" y="16.04" width="36.52" height="43.41" filterUnits="userSpaceOnUse" color-interpolation-filters="sRGB"><feFlood flood-color="#fff" result="bg"/><feBlend in="SourceGraphic" in2="bg"/></filter><mask id="mask-2" x="7.33" y="16.04" width="36.52" height="43.41" maskUnits="userSpaceOnUse"><g class="cls-1"><path class="cls-2" d="M7.33,57.33A15.23,15.23,0,0,0,20.2,58.55a16.32,16.32,0,0,0,8.39-7.29L43.85,25.43,38.43,16,22.77,42.57C21.9,44,21,45.52,20.16,47a6.61,6.61,0,0,1-2.33,2.37,5.81,5.81,0,0,1-3.8.57,5.66,5.66,0,0,1-2-.73"/></g></mask></defs><title>Afritasks</title><g id="Layer_2" data-name="Layer 2"><g id="Layer_1-2" data-name="Layer 1"><path class="cls-3" d="M47.87,32.37,51,37.82c1.46,2.56,3.55,5.09,2.75,8.2a6.67,6.67,0,0,1-5.85,4.88,6.53,6.53,0,0,1-4.27-1.38l-3.26-2.39c-2-1.46-5.35-.4-6.46,1.69-1.51,2.86.07,5.22,2.35,6.94,3.33,2.51,6.77,4.49,11,4.59a15.85,15.85,0,0,0,13.78-24C60,34.53,59,32.7,57.9,30.86Q51.11,19,44.25,7.23a14.63,14.63,0,0,0-25.49.38c-1.19,2.05-2.37,4.11-3.56,6.17L4.34,32.58c-.89,1.56-1.88,3.09-2.67,4.7-3,6.1-2,14,3.41,18.5a15.54,15.54,0,0,0,15.14,2.77,16.31,16.31,0,0,0,8.39-7.29L42.47,27.8a4.74,4.74,0,0,0,0-4.76h0a4.72,4.72,0,0,0-8.15,0q-5.78,9.78-11.56,19.57c-.87,1.47-1.73,3-2.61,4.41a6.51,6.51,0,0,1-2.32,2.37,5.83,5.83,0,0,1-3.81.57,6,6,0,0,1-2.72-1.2,5.49,5.49,0,0,1-1.91-3.5c-.26-1.93.55-3.5,1.48-5.11C16.31,30.73,21.59,21.27,27.14,12a5.18,5.18,0,0,1,7.56-1.65,9.07,9.07,0,0,1,2.22,3.08Z"/><g class="cls-4"><path class="cls-5" d="M7.33,57.33A15.23,15.23,0,0,0,20.2,58.55a16.32,16.32,0,0,0,8.39-7.29L42.45,27.8a4.74,4.74,0,0,0,0-4.76h0a4.71,4.71,0,0,0-8.14,0q-5.79,9.78-11.56,19.57C21.9,44,21,45.52,20.16,47a6.61,6.61,0,0,1-2.33,2.37,5.81,5.81,0,0,1-3.8.57,5.66,5.66,0,0,1-2-.73"/></g><text class="cls-6" transform="translate(75.99 37.64)">AFRI</text><text class="cls-7" transform="translate(186.99 37.64)">TASKS</text></g></g></svg>