<?xml version="1.0" standalone="no"?>
<!DOCTYPE svg PUBLIC "-//W3C//DTD SVG 20010904//EN"
 "http://www.w3.org/TR/2001/REC-SVG-20010904/DTD/svg10.dtd">
<svg version="1.0" xmlns="http://www.w3.org/2000/svg"
 width="933.000000pt" height="155.000000pt" viewBox="0 0 933.000000 155.000000"
 preserveAspectRatio="xMidYMid meet">

<g transform="translate(0.000000,155.000000) scale(0.100000,-0.100000)"
fill="#000000" stroke="none">
<path d="M521 1384 c-189 -51 -362 -230 -417 -434 -23 -85 -23 -242 -1 -329
56 -209 225 -382 429 -437 67 -17 218 -18 283 0 l50 13 -40 7 c-251 46 -406
164 -485 371 -32 83 -40 271 -15 364 31 120 90 215 181 292 84 70 174 108 319
134 l40 8 -50 13 c-65 18 -225 17 -294 -2z"/>
<path d="M2978 1344 c-177 -42 -270 -144 -270 -292 0 -87 24 -144 83 -202 58
-56 132 -92 313 -152 317 -104 438 -185 481 -323 6 -17 9 -15 28 20 30 58 30
184 0 241 -51 96 -161 161 -398 237 -232 74 -285 109 -285 187 0 30 6 43 30
64 41 34 89 46 189 46 97 0 178 -19 277 -64 l71 -33 38 61 c21 34 45 71 53 83
14 22 12 24 -69 63 -126 60 -219 80 -363 79 -67 0 -147 -7 -178 -15z"/>
<path d="M1472 773 l3 -558 335 0 c315 0 337 1 375 20 74 37 100 106 75 197
-15 51 -25 54 -61 19 -16 -17 -47 -35 -67 -41 -20 -5 -130 -10 -244 -10 l-208
0 0 150 0 150 193 0 c105 0 218 -4 251 -10 151 -24 265 -136 301 -295 l12 -50
23 45 c28 54 38 169 21 223 -18 53 -65 113 -122 154 l-50 36 39 41 c63 65 77
99 77 191 0 64 -5 89 -23 123 -33 62 -84 114 -139 142 l-48 25 -373 3 -372 3
2 -558z m669 352 c64 -34 87 -118 49 -180 -35 -57 -73 -65 -305 -65 l-205 0 0
130 0 130 215 0 c175 0 222 -3 246 -15z"/>
<path d="M3775 1303 c10 -15 112 -167 227 -337 l208 -309 0 -224 0 -223 105 0
105 0 -1 253 -1 252 -206 305 -207 305 -124 3 -124 3 18 -28z"/>
<path d="M4518 1156 c-65 -96 -118 -180 -118 -186 0 -18 114 -180 121 -172 3
4 86 125 183 270 l177 262 -123 0 -123 0 -117 -174z"/>
<path d="M5052 773 l3 -558 265 -3 c163 -2 291 2 332 9 204 33 390 204 443
404 19 73 19 213 1 280 -15 54 -15 54 -40 -50 -28 -117 -77 -208 -153 -284
-121 -120 -216 -151 -465 -151 l-168 0 0 356 0 356 168 -4 c152 -4 171 -6 217
-28 105 -51 186 -170 200 -291 6 -54 9 -58 20 -42 31 44 56 145 56 226 0 70
-4 88 -31 144 -34 69 -98 129 -180 167 -42 19 -65 21 -358 24 l-312 3 2 -558z"/>
<path d="M6340 1200 l0 -130 105 0 105 0 0 130 0 130 -105 0 -105 0 0 -130z"/>
<path d="M6955 779 c-121 -303 -221 -555 -223 -560 -2 -5 44 -9 106 -9 l109 0
49 125 49 125 199 0 c154 0 197 3 193 13 -3 6 -20 49 -38 95 l-32 82 -119 0
c-65 0 -118 4 -118 9 0 5 41 114 92 242 l91 232 22 -49 c12 -27 95 -235 186
-461 l164 -413 109 0 c99 0 108 2 102 18 -4 9 -104 261 -223 560 l-217 542
-140 0 -141 0 -220 -551z"/>
<path d="M8072 773 l3 -558 107 -3 108 -3 2 363 3 362 289 -362 290 -362 123
0 c119 0 124 1 111 19 -7 10 -208 262 -447 560 l-435 541 -78 0 -78 0 2 -557z"/>
<path d="M8890 1028 l0 -303 98 -122 c53 -67 100 -122 105 -122 4 -1 7 190 7
424 l0 425 -105 0 -105 0 0 -302z"/>
<path d="M749 1212 c-30 -10 -75 -30 -99 -43 l-43 -24 85 -6 c150 -10 267 -87
324 -212 40 -88 40 -196 0 -284 -57 -126 -177 -203 -325 -211 l-84 -5 39 -24
c70 -43 167 -66 252 -61 95 6 154 31 222 94 159 148 191 411 76 609 -33 56
-117 132 -174 158 -66 29 -197 34 -273 9z"/>
<path d="M6340 570 l0 -360 105 0 105 0 0 360 0 360 -105 0 -105 0 0 -360z"/>
<path d="M2745 418 c-21 -35 -45 -73 -53 -85 -13 -21 -11 -23 37 -47 174 -89
370 -124 526 -95 146 27 204 99 158 196 -21 44 -35 49 -78 29 -115 -55 -312
-41 -474 34 -35 17 -67 30 -71 30 -4 0 -24 -28 -45 -62z"/>
</g>
</svg>
