<?xml version="1.0" encoding="UTF-8"?>
<svg width="1440px" height="1024px" viewBox="0 0 1440 1024" version="1.1" xmlns="http://www.w3.org/2000/svg" xmlns:xlink="http://www.w3.org/1999/xlink">
    <!-- Generator: Sketch 52 (66869) - http://www.bohemiancoding.com/sketch -->
    <title>WORK@2x</title>
    <desc>Created with Sketch.</desc>
    <defs>
        <linearGradient x1="50%" y1="14.0660002%" x2="50%" y2="100%" id="linearGradient-1">
            <stop stop-color="#E9F0FB" offset="0%"></stop>
            <stop stop-color="#FFFFFF" offset="100%"></stop>
        </linearGradient>
        <linearGradient x1="50%" y1="19.6859798%" x2="-33.8124944%" y2="294.476483%" id="linearGradient-2">
            <stop stop-color="#F7FAFF" offset="0%"></stop>
            <stop stop-color="#6B9AD9" offset="100%"></stop>
        </linearGradient>
        <linearGradient x1="61.6334193%" y1="-230.406354%" x2="-172.763122%" y2="372.978352%" id="linearGradient-3">
            <stop stop-color="#E5EDFF" offset="0%"></stop>
            <stop stop-color="#6B9AD9" offset="100%"></stop>
        </linearGradient>
        <linearGradient x1="108.252619%" y1="-321.530415%" x2="20.4375855%" y2="357.517383%" id="linearGradient-4">
            <stop stop-color="#E5EDFF" offset="0%"></stop>
            <stop stop-color="#6B9AD9" offset="100%"></stop>
        </linearGradient>
        <linearGradient x1="51.9515966%" y1="-8.25550815%" x2="0%" y2="251.681652%" id="linearGradient-5">
            <stop stop-color="#F7FAFF" offset="0%"></stop>
            <stop stop-color="#6B9AD9" offset="100%"></stop>
        </linearGradient>
        <linearGradient x1="157.419759%" y1="-39.6921362%" x2="118.835577%" y2="115.937591%" id="linearGradient-6">
            <stop stop-color="#E5EDFF" offset="0%"></stop>
            <stop stop-color="#6B9AD9" offset="100%"></stop>
        </linearGradient>
        <linearGradient x1="50%" y1="-104.289511%" x2="50%" y2="100%" id="linearGradient-7">
            <stop stop-color="#FFFFFF" offset="0%"></stop>
            <stop stop-color="#B3CDEF" offset="100%"></stop>
        </linearGradient>
        <linearGradient x1="50%" y1="79.0109769%" x2="84.8854189%" y2="-300.910017%" id="linearGradient-8">
            <stop stop-color="#F7FAFF" offset="0%"></stop>
            <stop stop-color="#6B9AD9" offset="100%"></stop>
        </linearGradient>
        <linearGradient x1="100%" y1="-255.297854%" x2="-315.227155%" y2="959.413592%" id="linearGradient-9">
            <stop stop-color="#F7FAFF" offset="0%"></stop>
            <stop stop-color="#6B9AD9" offset="100%"></stop>
        </linearGradient>
        <linearGradient x1="79.3828168%" y1="-51.7652106%" x2="50%" y2="189.010271%" id="linearGradient-10">
            <stop stop-color="#F7FAFF" offset="0%"></stop>
            <stop stop-color="#6B9AD9" offset="100%"></stop>
        </linearGradient>
        <polygon id="path-11" points="0 0 137 0 137 160 0 160"></polygon>
        <linearGradient x1="50%" y1="0%" x2="50%" y2="189.010271%" id="linearGradient-13">
            <stop stop-color="#F7FAFF" offset="0%"></stop>
            <stop stop-color="#FFFFFF" offset="100%"></stop>
        </linearGradient>
        <linearGradient x1="83.2804773%" y1="11.2557844%" x2="59.8890922%" y2="97.3099621%" id="linearGradient-14">
            <stop stop-color="#476DB1" offset="0%"></stop>
            <stop stop-color="#283F6F" offset="100%"></stop>
        </linearGradient>
        <linearGradient x1="61.6266876%" y1="22.2139268%" x2="61.6266876%" y2="146.271179%" id="linearGradient-15">
            <stop stop-color="#476DB1" offset="0%"></stop>
            <stop stop-color="#283F6F" offset="100%"></stop>
        </linearGradient>
        <linearGradient x1="100%" y1="50%" x2="0%" y2="50%" id="linearGradient-16">
            <stop stop-color="#2865C6" offset="0%"></stop>
            <stop stop-color="#10378A" offset="100%"></stop>
        </linearGradient>
        <linearGradient x1="50%" y1="27.7727484%" x2="55.2277926%" y2="103.623291%" id="linearGradient-17">
            <stop stop-color="#1542AB" offset="0%"></stop>
            <stop stop-color="#2B68EE" offset="100%"></stop>
        </linearGradient>
        <linearGradient x1="60.7312459%" y1="0%" x2="52.0812714%" y2="50%" id="linearGradient-18">
            <stop stop-color="#3485F7" offset="0%"></stop>
            <stop stop-color="#1A57CF" offset="100%"></stop>
        </linearGradient>
        <linearGradient x1="50%" y1="-10.8772052%" x2="50%" y2="100%" id="linearGradient-19">
            <stop stop-color="#FFE579" offset="0%"></stop>
            <stop stop-color="#FEB755" offset="100%"></stop>
        </linearGradient>
        <linearGradient x1="50%" y1="-10.8772052%" x2="50%" y2="90.6889884%" id="linearGradient-20">
            <stop stop-color="#FFECB3" offset="0%"></stop>
            <stop stop-color="#FEC35F" offset="100%"></stop>
        </linearGradient>
        <linearGradient x1="56.0993624%" y1="79.6533395%" x2="63.7407024%" y2="50%" id="linearGradient-21">
            <stop stop-color="#F5B79C" offset="0%"></stop>
            <stop stop-color="#EC906C" offset="100%"></stop>
        </linearGradient>
        <linearGradient x1="85.0973284%" y1="109.304399%" x2="4.85382204%" y2="-47.1761978%" id="linearGradient-22">
            <stop stop-color="#032258" offset="0%"></stop>
            <stop stop-color="#133E94" offset="100%"></stop>
        </linearGradient>
        <linearGradient x1="-21.5977023%" y1="115.570355%" x2="86.1745327%" y2="29.3452925%" id="linearGradient-23">
            <stop stop-color="#FAD0BA" offset="0%"></stop>
            <stop stop-color="#F2A384" offset="100%"></stop>
        </linearGradient>
        <linearGradient x1="50%" y1="-142.327103%" x2="50%" y2="170.164832%" id="linearGradient-24">
            <stop stop-color="#95B7E5" offset="0%"></stop>
            <stop stop-color="#476DB1" offset="100%"></stop>
        </linearGradient>
        <linearGradient x1="9797.15471%" y1="25.3399148%" x2="75.9412525%" y2="70.6858623%" id="linearGradient-25">
            <stop stop-color="#F59BA9" offset="0%"></stop>
            <stop stop-color="#F25267" offset="100%"></stop>
        </linearGradient>
        <linearGradient x1="50%" y1="-47.4480157%" x2="50%" y2="450.146478%" id="linearGradient-26">
            <stop stop-color="#95B7E5" offset="0%"></stop>
            <stop stop-color="#476DB1" offset="100%"></stop>
        </linearGradient>
        <linearGradient x1="50%" y1="32.1187137%" x2="67.2859088%" y2="115.977968%" id="linearGradient-27">
            <stop stop-color="#84F0A8" offset="0%"></stop>
            <stop stop-color="#48B676" offset="100%"></stop>
        </linearGradient>
        <linearGradient x1="149.379226%" y1="-86.5655478%" x2="157.419759%" y2="219.657969%" id="linearGradient-28">
            <stop stop-color="#E5EDFF" offset="0%"></stop>
            <stop stop-color="#6B9AD9" offset="100%"></stop>
        </linearGradient>
        <linearGradient x1="141.586441%" y1="274.686988%" x2="-20.5635882%" y2="157.7364%" id="linearGradient-29">
            <stop stop-color="#F7FAFF" offset="0%"></stop>
            <stop stop-color="#6B9AD9" offset="100%"></stop>
        </linearGradient>
        <linearGradient x1="60.7312459%" y1="0%" x2="50%" y2="100%" id="linearGradient-30">
            <stop stop-color="#FFFFFF" offset="0%"></stop>
            <stop stop-color="#E5EEFF" offset="100%"></stop>
        </linearGradient>
    </defs>
    <g id="WORK" stroke="none" stroke-width="1" fill="none" fill-rule="evenodd">
        <path d="M0.878620449,426.506479 C113.865239,352.103474 261.965457,322.102263 445.179274,336.502844 C720,358.103716 702.533751,524.310428 1440,457.707739 L1440,987.998363 L0,987.998363 L0.878620449,426.506479 Z" id="Background-base" fill="url(#linearGradient-1)" opacity="0.5"></path>
        <g id="Shadow" transform="translate(151.500000, 802.500000)" fill="#E2EBFC" opacity="0.806164985">
            <ellipse cx="596" cy="35.5" rx="314" ry="35.5"></ellipse>
            <ellipse cx="991" cy="55.5" rx="89" ry="15.5"></ellipse>
            <ellipse cx="170" cy="20.5" rx="170" ry="20.5"></ellipse>
        </g>
        <g id="Trash" transform="translate(882.500000, 715.500000)" fill-rule="nonzero">
            <polygon id="Trash-base" fill="url(#linearGradient-2)" points="0 5.95454545 122 5.95454545 102 126.037879 20 126.037879"></polygon>
            <ellipse id="Trash-base" fill="url(#linearGradient-2)" cx="61" cy="124.556818" rx="40" ry="6.45075758"></ellipse>
            <ellipse id="Trash-base" fill="url(#linearGradient-3)" cx="70.5" cy="123.564394" rx="26.5" ry="4.46590909"></ellipse>
            <ellipse id="Trash-base" fill="url(#linearGradient-2)" cx="60.5" cy="6.45075758" rx="59.5" ry="6.45075758"></ellipse>
            <g id="Group-13" transform="translate(39.000000, 100.242424)">
                <path d="M0.0178666782,6.59363995 C2.65684428,6.25724937 4.33313568,5.74369094 5.0467409,5.05296467 C6.79004333,3.36555437 6.63804072,5.75731995e-14 9.56662838,5.68434189e-14 C14.2934027,5.68434189e-14 17.7958365,0.834604833 20.0739299,2.5038145 C22.7852658,2.85873092 24.9244897,2.7222523 26.4916017,2.09437866 C29.7913937,2.31391449 28.147277,5.97216265 28.147277,8.71121282 C25.3583817,10.470394 24.4243724,11.3743582 25.3452491,11.4231056 L30,12.7629557 L23.888582,22.9110203 C17.4686734,24.6015448 13.5499174,24.6015448 12.1323142,22.9110203 C11.6554229,22.3423165 7.42317679,26.6581221 7.42317679,25.6496397 C7.42317679,19.4505548 7.99666584,16.7438075 7.09993762,15.8275216 C6.80213602,15.5232249 5.44857513,17.0125242 5.0467409,16.5137005 C4.41499132,15.7294675 1.67614375,14.3045097 0.628406621,12.1564879 C0.138828819,11.1527783 -0.064684495,9.29849564 0.0178666782,6.59363995 Z" id="Paper-waste" fill="url(#linearGradient-4)"></path>
                <path d="M2.6587637,14.5532459 C2.6587637,15.4543778 1.47351652,10.9415286 1.28101754,10.6104487 C0.240973101,8.8216714 -0.165770622,7.47813712 0.0607863737,6.57984582 C0.338877439,5.47722358 4.32903938,4.59850213 4.56053133,4.02278754 C5.31085763,2.15674509 5.54830019,0.995820716 6.96087996,0.475200227 C9.23770381,-0.363946112 16.1014656,-0.310475409 17.7459726,2.45252565 C18.0296485,2.92914061 17.3590643,3.91095537 15.73422,5.39796994 C15.6723514,5.45459047 12.6500324,6.1681815 11.1175731,5.71481132 C10.6170251,5.56672678 12.5308042,3.75115388 12.4024932,3.48158445 C12.1379719,2.92585001 10.2312584,3.87148609 9.90733468,4.02278754 C9.3901261,4.26437037 9.21574801,5.58940035 10.1281971,6.35671102 C10.6209977,6.77112439 12.4453744,6.67992475 12.4024932,6.94542067 C12.3702035,7.14534007 10.2210173,7.44800508 9.90733468,7.42495673 C9.13897358,7.36850013 8.02602847,6.5541645 6.56849934,4.98194984 C6.4815087,7.20608879 6.61230225,8.494513 6.96087996,8.84722248 C7.1225648,9.01082381 6.51803507,6.42453417 6.79467624,6.35671102 C7.48651847,6.18709449 9.26886918,8.12779117 9.90733468,8.17626672 C10.7602482,8.24102426 11.7079438,8.07175331 12.7504217,7.66845386 C12.8774729,7.61930207 11.3367954,9.68907197 11.4666622,9.63296798 C11.6660774,9.54681826 13.573406,7.30630383 13.850375,7.15622028 C14.2537756,6.93762625 15.0439593,6.45715659 16.2209262,5.71481132 L19.7937931,4.02278754 C24.5947376,2.17316757 26.6768833,1.99276654 26.0402302,3.48158445 C25.0852506,5.71481132 23.9198728,11.0125207 21.6499129,10.8163453 C20.0203772,10.675517 19.8507034,10.9041673 18.6181124,11.3839441 C17.7542877,11.7201813 20.8022307,11.3876696 22.0418445,11.6494468 C25.0776701,12.2905415 30.1578916,12.4267713 29.9962337,12.9884224 C29.694854,14.035512 23.979916,19.734667 22.0418445,20.5743032 C21.7300295,20.7093917 22.0776941,17.1311785 19.7937931,14.2750023 C19.3207798,13.6834664 17.9675888,13.3910414 15.73422,13.3977273 C17.6209797,13.7602407 18.7677158,14.2647435 19.1744283,14.9112355 C21.1186225,18.00164 20.7129276,21.4191431 20.5569824,21.4763491 C16.56368,22.9412282 10.0601452,28.1347615 7.38097181,26.4702331 C6.89887591,26.1707145 10.0058113,18.6554467 9.90733468,17.6893637 C9.85166785,17.1432568 9.33599798,15.5714579 8.65576281,15.3565682 C8.20057813,15.2127731 7.54087839,16.4361978 7.38097181,16.1652506 C7.1422381,15.7607381 8.16994396,14.4731098 8.65576281,14.2750023 C9.59224292,13.8931238 18.5549168,11.7632427 17.9589795,11.6494468 C17.155598,11.4960389 6.58702322,13.3971644 7.38097181,12.9884224 C7.99534903,12.6721276 9.24088278,11.6561521 11.1175731,9.94049582 C9.40235659,10.7599453 8.15682284,11.1696701 7.38097181,11.1696701 C6.60512079,11.1696701 6.2055657,10.7599453 6.18230656,9.94049582 L2.6587637,11.3544373 C2.6587637,12.8862218 2.6587637,13.9524913 2.6587637,14.5532459 Z" id="Paper-waste" fill="url(#linearGradient-5)"></path>
                <path d="M4,13.9608808 C4.51532462,15.9011017 4.93630679,16.8712121 5.26294651,16.8712121 C5.53264657,16.8712121 5.64965819,15.3467526 6.09106361,13.9608808 C6.451552,12.8290626 7.20943442,11.7614263 6.94519282,11.9259278 C6.55332869,12.1698797 5.57159775,12.8481973 4,13.9608808 Z" id="Paper-waste" fill="#D2D9FF"></path>
            </g>
            <g id="Paper-waste" transform="translate(64.010241, 95.930476) rotate(144.000000) translate(-64.010241, -95.930476) translate(49.010241, 82.430476)">
                <path d="M0.0178666782,6.59363995 C2.65684428,6.25724937 4.33313568,5.74369094 5.0467409,5.05296467 C6.79004333,3.36555437 6.63804072,5.75731995e-14 9.56662838,5.68434189e-14 C14.2934027,5.68434189e-14 17.7958365,0.834604833 20.0739299,2.5038145 C22.7852658,2.85873092 24.9244897,2.7222523 26.4916017,2.09437866 C29.7913937,2.31391449 28.147277,5.97216265 28.147277,8.71121282 C25.3583817,10.470394 24.4243724,11.3743582 25.3452491,11.4231056 L30,12.7629557 L23.888582,22.9110203 C17.4686734,24.6015448 13.5499174,24.6015448 12.1323142,22.9110203 C11.6554229,22.3423165 7.42317679,26.6581221 7.42317679,25.6496397 C7.42317679,19.4505548 7.99666584,16.7438075 7.09993762,15.8275216 C6.80213602,15.5232249 5.44857513,17.0125242 5.0467409,16.5137005 C4.41499132,15.7294675 1.67614375,14.3045097 0.628406621,12.1564879 C0.138828819,11.1527783 -0.064684495,9.29849564 0.0178666782,6.59363995 Z" fill="url(#linearGradient-4)"></path>
                <path d="M2.6587637,14.5532459 C2.6587637,15.4543778 1.47351652,10.9415286 1.28101754,10.6104487 C0.240973101,8.8216714 -0.165770622,7.47813712 0.0607863737,6.57984582 C0.338877439,5.47722358 4.32903938,4.59850213 4.56053133,4.02278754 C5.31085763,2.15674509 5.54830019,0.995820716 6.96087996,0.475200227 C9.23770381,-0.363946112 16.1014656,-0.310475409 17.7459726,2.45252565 C18.0296485,2.92914061 17.3590643,3.91095537 15.73422,5.39796994 C15.6723514,5.45459047 12.6500324,6.1681815 11.1175731,5.71481132 C10.6170251,5.56672678 12.5308042,3.75115388 12.4024932,3.48158445 C12.1379719,2.92585001 10.2312584,3.87148609 9.90733468,4.02278754 C9.3901261,4.26437037 9.21574801,5.58940035 10.1281971,6.35671102 C10.6209977,6.77112439 12.4453744,6.67992475 12.4024932,6.94542067 C12.3702035,7.14534007 10.2210173,7.44800508 9.90733468,7.42495673 C9.13897358,7.36850013 8.02602847,6.5541645 6.56849934,4.98194984 C6.4815087,7.20608879 6.61230225,8.494513 6.96087996,8.84722248 C7.1225648,9.01082381 6.51803507,6.42453417 6.79467624,6.35671102 C7.48651847,6.18709449 9.26886918,8.12779117 9.90733468,8.17626672 C10.7602482,8.24102426 11.7079438,8.07175331 12.7504217,7.66845386 C12.8774729,7.61930207 11.3367954,9.68907197 11.4666622,9.63296798 C11.6660774,9.54681826 13.573406,7.30630383 13.850375,7.15622028 C14.2537756,6.93762625 15.0439593,6.45715659 16.2209262,5.71481132 L19.7937931,4.02278754 C24.5947376,2.17316757 26.6768833,1.99276654 26.0402302,3.48158445 C25.0852506,5.71481132 23.9198728,11.0125207 21.6499129,10.8163453 C20.0203772,10.675517 19.8507034,10.9041673 18.6181124,11.3839441 C17.7542877,11.7201813 20.8022307,11.3876696 22.0418445,11.6494468 C25.0776701,12.2905415 30.1578916,12.4267713 29.9962337,12.9884224 C29.694854,14.035512 23.979916,19.734667 22.0418445,20.5743032 C21.7300295,20.7093917 22.0776941,17.1311785 19.7937931,14.2750023 C19.3207798,13.6834664 17.9675888,13.3910414 15.73422,13.3977273 C17.6209797,13.7602407 18.7677158,14.2647435 19.1744283,14.9112355 C21.1186225,18.00164 20.7129276,21.4191431 20.5569824,21.4763491 C16.56368,22.9412282 10.0601452,28.1347615 7.38097181,26.4702331 C6.89887591,26.1707145 10.0058113,18.6554467 9.90733468,17.6893637 C9.85166785,17.1432568 9.33599798,15.5714579 8.65576281,15.3565682 C8.20057813,15.2127731 7.54087839,16.4361978 7.38097181,16.1652506 C7.1422381,15.7607381 8.16994396,14.4731098 8.65576281,14.2750023 C9.59224292,13.8931238 18.5549168,11.7632427 17.9589795,11.6494468 C17.155598,11.4960389 6.58702322,13.3971644 7.38097181,12.9884224 C7.99534903,12.6721276 9.24088278,11.6561521 11.1175731,9.94049582 C9.40235659,10.7599453 8.15682284,11.1696701 7.38097181,11.1696701 C6.60512079,11.1696701 6.2055657,10.7599453 6.18230656,9.94049582 L2.6587637,11.3544373 C2.6587637,12.8862218 2.6587637,13.9524913 2.6587637,14.5532459 Z" fill="url(#linearGradient-5)"></path>
                <path d="M4,13.9608808 C4.51532462,15.9011017 4.93630679,16.8712121 5.26294651,16.8712121 C5.53264657,16.8712121 5.64965819,15.3467526 6.09106361,13.9608808 C6.451552,12.8290626 7.20943442,11.7614263 6.94519282,11.9259278 C6.55332869,12.1698797 5.57159775,12.8481973 4,13.9608808 Z" fill="#D2D9FF"></path>
            </g>
            <g id="Paper-waste" transform="translate(79.178048, 111.265281) rotate(227.000000) translate(-79.178048, -111.265281) translate(64.178048, 97.765281)">
                <path d="M0.0178666782,6.59363995 C2.65684428,6.25724937 4.33313568,5.74369094 5.0467409,5.05296467 C6.79004333,3.36555437 6.63804072,5.75731995e-14 9.56662838,5.68434189e-14 C14.2934027,5.68434189e-14 17.7958365,0.834604833 20.0739299,2.5038145 C22.7852658,2.85873092 24.9244897,2.7222523 26.4916017,2.09437866 C29.7913937,2.31391449 28.147277,5.97216265 28.147277,8.71121282 C25.3583817,10.470394 24.4243724,11.3743582 25.3452491,11.4231056 L30,12.7629557 L23.888582,22.9110203 C17.4686734,24.6015448 13.5499174,24.6015448 12.1323142,22.9110203 C11.6554229,22.3423165 7.42317679,26.6581221 7.42317679,25.6496397 C7.42317679,19.4505548 7.99666584,16.7438075 7.09993762,15.8275216 C6.80213602,15.5232249 5.44857513,17.0125242 5.0467409,16.5137005 C4.41499132,15.7294675 1.67614375,14.3045097 0.628406621,12.1564879 C0.138828819,11.1527783 -0.064684495,9.29849564 0.0178666782,6.59363995 Z" fill="url(#linearGradient-4)"></path>
                <path d="M2.6587637,14.5532459 C2.6587637,15.4543778 1.47351652,10.9415286 1.28101754,10.6104487 C0.240973101,8.8216714 -0.165770622,7.47813712 0.0607863737,6.57984582 C0.338877439,5.47722358 4.32903938,4.59850213 4.56053133,4.02278754 C5.31085763,2.15674509 5.54830019,0.995820716 6.96087996,0.475200227 C9.23770381,-0.363946112 16.1014656,-0.310475409 17.7459726,2.45252565 C18.0296485,2.92914061 17.3590643,3.91095537 15.73422,5.39796994 C15.6723514,5.45459047 12.6500324,6.1681815 11.1175731,5.71481132 C10.6170251,5.56672678 12.5308042,3.75115388 12.4024932,3.48158445 C12.1379719,2.92585001 10.2312584,3.87148609 9.90733468,4.02278754 C9.3901261,4.26437037 9.21574801,5.58940035 10.1281971,6.35671102 C10.6209977,6.77112439 12.4453744,6.67992475 12.4024932,6.94542067 C12.3702035,7.14534007 10.2210173,7.44800508 9.90733468,7.42495673 C9.13897358,7.36850013 8.02602847,6.5541645 6.56849934,4.98194984 C6.4815087,7.20608879 6.61230225,8.494513 6.96087996,8.84722248 C7.1225648,9.01082381 6.51803507,6.42453417 6.79467624,6.35671102 C7.48651847,6.18709449 9.26886918,8.12779117 9.90733468,8.17626672 C10.7602482,8.24102426 11.7079438,8.07175331 12.7504217,7.66845386 C12.8774729,7.61930207 11.3367954,9.68907197 11.4666622,9.63296798 C11.6660774,9.54681826 13.573406,7.30630383 13.850375,7.15622028 C14.2537756,6.93762625 15.0439593,6.45715659 16.2209262,5.71481132 L19.7937931,4.02278754 C24.5947376,2.17316757 26.6768833,1.99276654 26.0402302,3.48158445 C25.0852506,5.71481132 23.9198728,11.0125207 21.6499129,10.8163453 C20.0203772,10.675517 19.8507034,10.9041673 18.6181124,11.3839441 C17.7542877,11.7201813 20.8022307,11.3876696 22.0418445,11.6494468 C25.0776701,12.2905415 30.1578916,12.4267713 29.9962337,12.9884224 C29.694854,14.035512 23.979916,19.734667 22.0418445,20.5743032 C21.7300295,20.7093917 22.0776941,17.1311785 19.7937931,14.2750023 C19.3207798,13.6834664 17.9675888,13.3910414 15.73422,13.3977273 C17.6209797,13.7602407 18.7677158,14.2647435 19.1744283,14.9112355 C21.1186225,18.00164 20.7129276,21.4191431 20.5569824,21.4763491 C16.56368,22.9412282 10.0601452,28.1347615 7.38097181,26.4702331 C6.89887591,26.1707145 10.0058113,18.6554467 9.90733468,17.6893637 C9.85166785,17.1432568 9.33599798,15.5714579 8.65576281,15.3565682 C8.20057813,15.2127731 7.54087839,16.4361978 7.38097181,16.1652506 C7.1422381,15.7607381 8.16994396,14.4731098 8.65576281,14.2750023 C9.59224292,13.8931238 18.5549168,11.7632427 17.9589795,11.6494468 C17.155598,11.4960389 6.58702322,13.3971644 7.38097181,12.9884224 C7.99534903,12.6721276 9.24088278,11.6561521 11.1175731,9.94049582 C9.40235659,10.7599453 8.15682284,11.1696701 7.38097181,11.1696701 C6.60512079,11.1696701 6.2055657,10.7599453 6.18230656,9.94049582 L2.6587637,11.3544373 C2.6587637,12.8862218 2.6587637,13.9524913 2.6587637,14.5532459 Z" fill="url(#linearGradient-5)"></path>
                <path d="M4,13.9608808 C4.51532462,15.9011017 4.93630679,16.8712121 5.26294651,16.8712121 C5.53264657,16.8712121 5.64965819,15.3467526 6.09106361,13.9608808 C6.451552,12.8290626 7.20943442,11.7614263 6.94519282,11.9259278 C6.55332869,12.1698797 5.57159775,12.8481973 4,13.9608808 Z" fill="#D2D9FF"></path>
            </g>
        </g>
        <g id="Locker" transform="translate(197.500000, 515.500000)" fill-rule="nonzero">
            <path d="M2,0 L260,0 C261.104569,-2.02906125e-16 262,0.8954305 262,2 L262,301 C262,302.104569 261.104569,303 260,303 L2,303 C0.8954305,303 3.15290241e-14,302.104569 0,301 L0,2 C-1.3527075e-16,0.8954305 0.8954305,2.02906125e-16 2,0 Z" id="Locker-base" fill="url(#linearGradient-6)"></path>
            <g transform="translate(14.070111, 14.000000)">
                <path d="M4,0 L229.859779,0 C232.068918,-4.05812251e-16 233.859779,1.790861 233.859779,4 L233.859779,79 C233.859779,81.209139 232.068918,83 229.859779,83 L4,83 C1.790861,83 2.705415e-16,81.209139 0,79 L0,4 C-2.705415e-16,1.790861 1.790861,4.05812251e-16 4,0 Z" id="Locker-base" fill="url(#linearGradient-7)"></path>
                <path d="M50.6660517,13 L183.193727,13 C186.231293,13 188.693727,15.4624339 188.693727,18.5 C188.693727,21.5375661 186.231293,24 183.193727,24 L50.6660517,24 C47.6284855,24 45.1660517,21.5375661 45.1660517,18.5 C45.1660517,15.4624339 47.6284855,13 50.6660517,13 Z" id="Handle" fill="url(#linearGradient-6)"></path>
            </g>
            <g transform="translate(14.070111, 111.000000)">
                <path d="M4,0 L229.859779,0 C232.068918,-4.05812251e-16 233.859779,1.790861 233.859779,4 L233.859779,79 C233.859779,81.209139 232.068918,83 229.859779,83 L4,83 C1.790861,83 2.705415e-16,81.209139 0,79 L0,4 C-2.705415e-16,1.790861 1.790861,4.05812251e-16 4,0 Z" id="Locker-base" fill="url(#linearGradient-7)"></path>
                <path d="M50.6660517,13 L183.193727,13 C186.231293,13 188.693727,15.4624339 188.693727,18.5 C188.693727,21.5375661 186.231293,24 183.193727,24 L50.6660517,24 C47.6284855,24 45.1660517,21.5375661 45.1660517,18.5 C45.1660517,15.4624339 47.6284855,13 50.6660517,13 Z" id="Handle" fill="url(#linearGradient-6)"></path>
            </g>
            <g transform="translate(14.070111, 208.000000)">
                <path d="M4,0 L229.859779,0 C232.068918,-4.05812251e-16 233.859779,1.790861 233.859779,4 L233.859779,79 C233.859779,81.209139 232.068918,83 229.859779,83 L4,83 C1.790861,83 2.705415e-16,81.209139 0,79 L0,4 C-2.705415e-16,1.790861 1.790861,4.05812251e-16 4,0 Z" id="Locker-base" fill="url(#linearGradient-7)"></path>
                <path d="M50.6660517,13 L183.193727,13 C186.231293,13 188.693727,15.4624339 188.693727,18.5 C188.693727,21.5375661 186.231293,24 183.193727,24 L50.6660517,24 C47.6284855,24 45.1660517,21.5375661 45.1660517,18.5 C45.1660517,15.4624339 47.6284855,13 50.6660517,13 Z" id="Handle" fill="url(#linearGradient-6)"></path>
            </g>
        </g>
        <g id="Decorative" transform="translate(236.500000, 262.500000)" fill-rule="nonzero">
            <polygon id="shelves" fill="url(#linearGradient-7)" points="0 61 303 61 303 75 0 75"></polygon>
            <g id="Decorative-lights" transform="translate(26.000000, 0.000000)">
                <path d="M18.5,0 C26.5081289,-1.47106941e-15 33,6.49187113 33,14.5 L33,53 L4,53 L4,14.5 C4,6.49187113 10.4918711,1.47106941e-15 18.5,0 Z" id="decorative-lights-base" fill="url(#linearGradient-8)"></path>
                <circle id="decorative-lights-base" fill="url(#linearGradient-9)" cx="26.5" cy="14.5" r="3.5"></circle>
                <circle id="decorative-lights-base" fill="url(#linearGradient-9)" cx="20" cy="23" r="2"></circle>
                <circle id="decorative-lights-base" fill="url(#linearGradient-9)" cx="28" cy="27" r="2"></circle>
                <circle id="decorative-lights-base" fill="url(#linearGradient-9)" cx="22.5" cy="38.5" r="1.5"></circle>
                <path d="M15,46 L22,46 C30.2842712,46 37,52.7157288 37,61 L0,61 C-1.01453063e-15,52.7157288 6.71572875,46 15,46 Z" id="decorative-lights-base" fill="url(#linearGradient-10)"></path>
            </g>
            <g id="mug" transform="translate(71.000000, 35.000000)">
                <path d="M16,8 L10,8 C6.6862915,8 4,10.6862915 4,14 C4,17.3137085 6.6862915,20 10,20 L16,20 L16,24 L10,24 C4.4771525,24 6.76353751e-16,19.5228475 0,14 C-6.76353751e-16,8.4771525 4.4771525,4 10,4 L16,4 L16,8 Z" id="Path" fill="url(#linearGradient-6)"></path>
                <path d="M14,0 L35,0 C36.1045695,-2.02906125e-16 37,0.8954305 37,2 L37,24 C37,25.1045695 36.1045695,26 35,26 L14,26 C12.8954305,26 12,25.1045695 12,24 L12,2 C12,0.8954305 12.8954305,2.02906125e-16 14,0 Z" id="mug-base" fill="url(#linearGradient-2)"></path>
            </g>
            <g id="mug-" transform="translate(99.000000, 35.000000)">
                <path d="M16,8 L10,8 C6.6862915,8 4,10.6862915 4,14 C4,17.3137085 6.6862915,20 10,20 L16,20 L16,24 L10,24 C4.4771525,24 6.76353751e-16,19.5228475 0,14 C-6.76353751e-16,8.4771525 4.4771525,4 10,4 L16,4 L16,8 Z" id="Path" fill="url(#linearGradient-6)"></path>
                <path d="M14,0 L35,0 C36.1045695,-2.02906125e-16 37,0.8954305 37,2 L37,24 C37,25.1045695 36.1045695,26 35,26 L14,26 C12.8954305,26 12,25.1045695 12,24 L12,2 C12,0.8954305 12.8954305,2.02906125e-16 14,0 Z" id="mug-base" fill="url(#linearGradient-2)"></path>
            </g>
            <g id="Picture" transform="translate(161.000000, 3.000000)">
                <polygon id="Picture-ftame" fill="url(#linearGradient-10)" points="0 0 58 0 58 58 0 58"></polygon>
                <polygon fill="url(#linearGradient-2)" points="10 12 48 12 48 50 10 50"></polygon>
            </g>
            <g id="Picture" transform="translate(233.000000, 3.000000)">
                <polygon id="Picture-ftame" fill="url(#linearGradient-10)" points="0 0 58 0 58 58 0 58"></polygon>
                <polygon fill="url(#linearGradient-2)" points="10 12 48 12 48 50 10 50"></polygon>
            </g>
        </g>
        <g id="Picture" transform="translate(581.500000, 241.500000)">
            <polygon id="Picture-base" fill="url(#linearGradient-10)" fill-rule="nonzero" points="0 0 163 0 163 183 0 183"></polygon>
            <g transform="translate(13.000000, 12.000000)">
                <mask id="mask-12" fill="white">
                    <use xlink:href="#path-11"></use>
                </mask>
                <use fill="url(#linearGradient-2)" fill-rule="nonzero" xlink:href="#path-11"></use>
                <g id="Group-19" mask="url(#mask-12)" fill-rule="nonzero">
                    <g transform="translate(-8.000000, 17.000000)">
                        <circle id="Moon" fill="url(#linearGradient-10)" cx="120.5" cy="12.5" r="12.5"></circle>
                        <path d="M74,21.6794275 C81,21.6794275 88,50.1196183 95,107 L53,107 C60,50.1196183 67,21.6794275 74,21.6794275 Z" id="Rocket-base" fill="url(#linearGradient-7)"></path>
                        <path d="M85.033648,66.8399484 C81.2152516,67.444723 77.2093344,62.186349 76.0861816,55.0950413 C74.9630288,48.0037336 77.1479555,41.7648262 80.966352,41.1600516 C84.7847484,40.555277 88.7906656,45.813651 89.9138184,52.9049587 C91.0369712,59.9962664 88.8520445,66.2351738 85.033648,66.8399484 Z" id="Rocket-base" fill="#FFFFFF"></path>
                        <path d="M70,57 L70,103.167813 C57.3333333,112.182639 51,112.182639 51,103.167813 C51,94.1529864 57.3333333,78.7637156 70,57 Z" id="Rocket-base" fill="url(#linearGradient-6)"></path>
                        <path d="M89,87 C101.666667,96.4280904 108,103.094757 108,107 C108,110.905243 101.666667,110.905243 89,107 L89,87 Z" id="Rocket-base" fill="url(#linearGradient-6)"></path>
                        <path d="M64.3655985,141.513264 C61.9069305,144.841555 57.9555312,147 53.5,147 C49.4754141,147 45.8621556,145.238898 43.3888183,142.445289 C41.6054768,145.18702 38.5144605,147 35,147 C31.6274672,147 28.6448686,145.330493 26.8335765,142.772852 C25.4740202,144.147968 23.5865115,145 21.5,145 C19.2819011,145 17.288697,144.037111 15.9155812,142.506526 C14.225339,144.055052 11.9730217,145 9.5,145 C4.25329488,145 0,140.746705 0,135.5 C0,130.253295 4.25329488,126 9.5,126 C13.0986699,126 16.2299929,128.00095 17.842084,130.950964 C18.9241745,130.345274 20.1717657,130 21.5,130 C23.3865555,130 25.1104225,130.696552 26.4284503,131.846506 C28.1782775,128.94235 31.3623087,127 35,127 C37.1696527,127 39.1779218,127.690965 40.816761,128.864849 C42.7076442,123.692201 47.6726422,120 53.5,120 C55.5600866,120 57.5123987,120.461438 59.2592175,121.286594 C60.2565524,117.107437 64.0153858,114 68.5,114 C72.3071636,114 75.591259,116.239522 77.1067769,119.473056 C78.7944983,117.936646 81.0378665,117 83.5,117 C87.0374223,117 90.1232704,118.933419 91.758458,121.801171 C93.7422156,120.655546 96.0445523,120 98.5,120 C104.327358,120 109.292356,123.692201 111.183239,128.864849 C112.822078,127.690965 114.830347,127 117,127 C120.637691,127 123.821723,128.94235 125.57155,131.846506 C126.889577,130.696552 128.613444,130 130.5,130 C132.148945,130 133.673602,130.532141 134.911608,131.434061 C136.435185,128.221531 139.708159,126 143.5,126 C148.746705,126 153,130.253295 153,135.5 C153,140.746705 148.746705,145 143.5,145 C140.746855,145 138.267246,143.828856 136.532181,141.957578 C135.165953,143.803356 132.972722,145 130.5,145 C128.413489,145 126.52598,144.147968 125.166424,142.772852 C123.355131,145.330493 120.372533,147 117,147 C113.485539,147 110.394523,145.18702 108.611182,142.445289 C106.137844,145.238898 102.524586,147 98.5,147 C94.4658628,147 90.8450076,145.230529 88.371228,142.425382 C86.7252205,147.405974 82.0323251,151 76.5,151 C70.6353362,151 65.7139839,146.961203 64.3655985,141.513264 Z" id="Smoke" fill="url(#linearGradient-13)"></path>
                    </g>
                </g>
            </g>
        </g>
        <g id="window" transform="translate(918.500000, 150.500000)" fill-rule="nonzero">
            <polygon id="Rectangle-20-Copy" fill="url(#linearGradient-10)" points="0 0 273 0 273 353 0 353"></polygon>
            <g id="Windowpane" transform="translate(15.000000, 19.000000)">
                <polygon fill="url(#linearGradient-2)" points="0 156 244 156 244 301 0 301"></polygon>
                <polygon id="Windowpane-" fill="url(#linearGradient-2)" points="0 0 244 0 244 145 0 145"></polygon>
                <polygon id="Highlight" fill="#FFFFFF" points="87 156 122 156 62 300 27 300"></polygon>
                <polygon id="Highlight-" fill="#FFFFFF" points="87 0 122 0 62 144 27 144"></polygon>
                <polygon id="Highlight" fill="#FFFFFF" points="147 158 162 158 102 302 87 302"></polygon>
                <polygon id="Highlight" fill="#FFFFFF" points="147 2 162 2 102 146 87 146"></polygon>
            </g>
        </g>
        <g id="Table-lamp" transform="translate(696.000000, 390.000000)" fill-rule="nonzero">
            <path d="M57.5263418,44.5763762 C80.1110631,7.72409945 107.903458,-6.02376914 140.903527,3.33277045 C173.903595,12.68931 188.061226,73.9910716 183.376419,187.238055" id="Table-lamp-base" stroke="#6C90CA" stroke-width="4" stroke-linecap="round" stroke-linejoin="round"></path>
            <path d="M148.5,191.5 L222.5,191.5 C228.575132,191.5 233.5,196.424868 233.5,202.5 L137.5,202.5 C137.5,196.424868 142.424868,191.5 148.5,191.5 Z" id="Table-lamp-base" fill="url(#linearGradient-14)"></path>
            <path d="M58.5621778,35 L67.2224319,40 C70.5704802,41.9329966 71.7176063,46.2141295 69.7846097,49.5621778 L56.2846097,72.9448637 L35.5,60.9448637 L49,37.5621778 C50.9329966,34.2141295 55.2141295,33.0670034 58.5621778,35 Z" id="Table-lamp-base" fill="url(#linearGradient-14)"></path>
            <path d="M51.0788383,58 C66.8624949,67.1126984 72.270375,87.2951818 63.1576766,103.078838 L57.6576766,112.605118 L0.5,79.6051178 L6,70.0788383 C15.1126984,54.2951818 35.2951818,48.8873016 51.0788383,58 Z" id="Table-lamp-base" fill="url(#linearGradient-15)"></path>
        </g>
        <g id="Girl" transform="translate(486.500000, 369.500000)">
            <g id="Foot" transform="translate(108.000000, 273.000000)">
                <path d="M217.709526,160.172807 C217.941109,158.719643 233.678071,141.267449 239.060296,149.085414 C244.442521,156.903379 246.056757,162.278799 248.625402,165.061241 C250.337832,166.916202 250.604685,168.324712 249.425961,169.28677 L237.322196,173.550018 L229.449218,169.28677 C221.468368,164.179571 217.555137,161.141583 217.709526,160.172807 Z" id="Leg" fill="#F2A384" fill-rule="nonzero"></path>
                <path d="M229.076067,169.197742 C231.533361,167.465266 236.331001,172.705391 241.303364,171.55743 C246.275726,170.40947 248.105393,164.223248 249.50352,164.481693 C253.590908,165.237249 259.16319,164.777131 265.534783,165.305129 C281.210355,166.604125 282.778875,166.94797 282.257046,174.3763 C282.613051,175.918328 266.210607,180.517239 233.049714,188.173035 C230.963595,185.258491 229.54524,182.414054 228.79465,179.639723 C227.668765,175.478228 226.618774,170.930217 229.076067,169.197742 Z" id="Shoes" fill="url(#linearGradient-16)" fill-rule="nonzero"></path>
                <g id="Pants">
                    <path d="M0.514567516,49.1579035 C54.932696,58.1629227 89.7323302,62.6654323 104.91347,62.6654323 C127.68518,62.6654323 214.658196,165.415348 222.195281,165.415348 C229.732365,165.415348 243.325436,152.303387 240.944844,149.105924 C238.564251,145.908462 174.929439,31.5353921 149.224291,23.1128789 C132.087526,17.4978702 91.3179332,9.98801483 26.9155139,0.583312805 L0.514567516,49.1579035 Z" fill="url(#linearGradient-17)" fill-rule="nonzero"></path>
                    <path d="M37.7673657,16.8878973 L141.46956,48.5209153 L226.043778,149.471155" id="Texture" stroke="#3485F7" stroke-linecap="round" stroke-linejoin="round" stroke-dasharray="5,10"></path>
                </g>
            </g>
            <g id="Foot" transform="translate(52.000000, 257.000000)">
                <path d="M117.399372,182.733497 L135.710637,191.162836 C133.140241,194.798684 132.711258,197.544089 134.423688,199.39905 C136.136118,201.254011 136.803542,201.254011 136.425961,199.39905 L124.322196,203.662298 L116.449218,199.39905 L117.399372,182.733497 Z" id="Leg" fill="#F2A384" fill-rule="nonzero"></path>
                <path d="M115.432004,198.139143 C117.958923,197.003842 121.13197,203.188897 125.763831,203.188897 C130.395692,203.188897 133.276897,197.572813 134.460609,198.139143 C137.921162,199.794797 142.943141,200.599963 148.470268,202.547725 C162.068261,207.339664 163.385229,208.027536 161.407045,215.148093 C161.407045,216.730682 145.962008,217.521977 115.071932,217.521977 C113.822082,214.212858 113.148479,211.122263 113.051121,208.250193 C112.905084,203.942087 112.905084,199.274445 115.432004,198.139143 Z" id="-Shoes" fill="url(#linearGradient-16)" fill-rule="nonzero"></path>
                <g id="Pants">
                    <path d="M190.676273,15.5206143 C218.710761,26.2814461 206.76011,56.6175705 190.676273,88.9343194 C166.429307,137.652986 141.799444,185.491494 135.796491,192.554718 C134.480077,194.103643 117.970052,189.690053 117.022566,188.888563 C113.510501,185.917662 124.221788,146.769644 149.156426,71.4445099 C128.674259,68.3387765 111.388407,68.3387765 97.2988701,71.4445099 C76.1645655,76.10311 -6.70926041,86.7672591 0.475385046,44.7284154 C5.26514868,16.7025196 24.5945441,1.98514406 58.4635714,0.576288778 C127.915714,3.36528459 171.986614,8.34672642 190.676273,15.5206143 Z" fill="url(#linearGradient-18)" fill-rule="nonzero"></path>
                    <path d="M57.6815593,27.4455718 C81.8864688,33.2242424 103.482788,36.1135778 122.470517,36.1135778 C150.952111,36.1135778 185.445534,28.8166593 183.202708,46.6499426 C181.707491,58.5387981 164.076697,103.144521 130.310325,180.46711" id="Texture" stroke="#3485F7" stroke-linecap="round" stroke-linejoin="round" stroke-dasharray="5,10"></path>
                </g>
            </g>
            <g id="Laptop" transform="translate(216.000000, 116.000000)" fill-rule="nonzero">
                <path d="M102.40185,103.288202 L129.836669,0.900064549 C133.570932,1.90065723 135.787009,5.73901593 134.786416,9.47327865 L110.975064,98.3384547 C109.974472,102.072717 106.136113,104.288795 102.40185,103.288202 Z" id="Laptop-bsae" fill="url(#linearGradient-15)"></path>
                <path d="M0,100 L102.5,100 C104.432997,100 106,101.567003 106,103.5 C106,105.432997 104.432997,107 102.5,107 L7,107 C3.13400675,107 4.73447626e-16,103.865993 0,100 Z" id="Laptop-bsae" fill="url(#linearGradient-15)"></path>
                <polygon id="Laptop-bsae" fill="url(#linearGradient-14)" points="96 103 102 103 102 105 96 105"></polygon>
                <polygon id="Laptop-bsae" fill="url(#linearGradient-14)" points="87 103 93 103 93 105 87 105"></polygon>
            </g>
            <g id="Body" transform="translate(28.000000, 113.000000)" fill-rule="nonzero">
                <path d="M24.5580125,5.94143162 C44.1179343,-5.4182386 68.1073059,3.07489585 73.3589464,14.4234374 C78.610587,25.771979 93.5097948,25.8991429 87.3044799,77.3111968 C83.1676033,111.585899 86.3765373,132.239401 96.931282,139.271702 C108.693221,140.139597 110.42426,145.8517 102.124399,156.408009 C89.6746065,172.242474 80.4468387,182.379409 56.8854218,185.29867 C41.1778106,187.244844 26.987899,182.761337 14.3156871,171.848149 C10.6050946,145.702252 8.01559465,130.501935 6.54718709,126.247198 C3.08140089,116.205021 -2.69613846,72.2386963 2.88476053,55.352206 C8.46565953,38.4657158 4.99809079,17.3011018 24.5580125,5.94143162 Z" id="Mask" fill="url(#linearGradient-19)"></path>
                <path d="M63.8071867,5.22289201 L58.9349734,10.453509 L52.0788294,2.19660458 L44.2003989,10.5398572 L38.2025794,2.46893976 L30.8562782,10.453509 L26.3123088,4.98117342 C31.7680136,2.1723701 37.5076868,0.832115909 43.0468702,0.604971557 L44.6578472,2.77276977 L46.6961973,0.614158393 C53.0919773,0.907572264 59.0600411,2.63780347 63.8071867,5.22289201 Z M80.3892161,23.9607631 C83.0952881,27.4234784 85.7763949,31.8336426 87.3576784,39.3759971 L87.1648952,39.5855299 L80.3087511,31.3286255 L72.4303206,39.671878 L66.4058468,31.5650935 L58.9349734,39.5855299 L52.0788294,31.3286255 L44.2003989,39.671878 L38.2025794,31.6009607 L30.8562782,39.5855299 L24.0001342,31.3286255 L16.1217037,39.671878 L10.0972299,31.5650935 L7.07347353,35.0960213 C7.75263237,31.3999518 8.56079399,27.7477984 9.7707593,24.2593354 L10.3740143,23.5548971 L16.579152,31.9047907 L24.2405597,23.7913651 L31.0492652,31.9911388 L38.4527095,23.5548971 L44.6578472,31.9047907 L52.3192549,23.7913651 L59.1279604,31.9911388 L66.6826312,23.5548971 L72.8877689,31.9047907 L80.3892161,23.9607631 Z M88.7312091,59.4262295 C88.6583117,61.8904285 88.5171357,64.5270424 88.2998736,67.3519412 L87.1648952,68.5855299 L80.3087511,60.3286255 L72.4303206,68.671878 L66.4058468,60.5650935 L58.9349734,68.5855299 L52.0788294,60.3286255 L44.2003989,68.671878 L38.2025794,60.6009607 L30.8562782,68.5855299 L24.0001342,60.3286255 L16.1217037,68.671878 L10.0972299,60.5650935 L5.4220506,66.0244357 L1.62430475,62.7721862 L10.3740143,52.5548971 L16.579152,60.9047907 L24.2405597,52.7913651 L31.0492652,60.9911388 L38.4527095,52.5548971 L44.6578472,60.9047907 L52.3192549,52.7913651 L59.1279604,60.9911388 L66.6826312,52.5548971 L72.8877689,60.9047907 L80.5491766,52.7913651 L87.3578821,60.9911388 L88.7312091,59.4262295 Z M86.1713285,88.5621637 C85.973166,91.079125 85.8229583,93.5071644 85.7207057,95.8462819 L80.3087511,89.3286255 L72.4303206,97.671878 L66.4058468,89.5650935 L58.9349734,97.5855299 L52.0788294,89.3286255 L44.2003989,97.671878 L38.2025794,89.6009607 L30.8562782,97.5855299 L24.0001342,89.3286255 L16.1217037,97.671878 L10.0972299,89.5650935 L5.4220506,95.0244357 L1.62430475,91.7721862 L10.3740143,81.5548971 L16.579152,89.9047907 L24.2405597,81.7913651 L31.0492652,89.9911388 L38.4527095,81.5548971 L44.6578472,89.9047907 L52.3192549,81.7913651 L59.1279604,89.9911388 L66.6826312,81.5548971 L72.8877689,89.9047907 L80.5491766,81.7913651 L86.1713285,88.5621637 Z M86.5308617,117.995152 C86.9374792,120.744105 87.4714523,123.256905 88.1327809,125.533551 L87.1648952,126.58553 L80.3087511,118.328625 L72.4303206,126.671878 L66.4058468,118.565093 L58.9349734,126.58553 L52.0788294,118.328625 L44.2003989,126.671878 L38.2025794,118.600961 L30.8562782,126.58553 L24.0001342,118.328625 L16.1217037,126.671878 L10.0972299,118.565093 L5.77707643,123.609862 C5.34647197,121.926828 4.89798096,119.848602 4.45271044,117.469375 L10.3740143,110.554897 L16.579152,118.904791 L24.2405597,110.791365 L31.0492652,118.991139 L38.4527095,110.554897 L44.6578472,118.904791 L52.3192549,110.791365 L59.1279604,118.991139 L66.6826312,110.554897 L72.8877689,118.904791 L80.5491766,110.791365 L86.5308617,117.995152 Z M106.095152,142.473513 C107.521264,144.135537 107.654609,146.421875 106.495188,149.332526 L100.509016,155.671878 L94.5111963,147.600961 L87.1648952,155.58553 L80.3087511,147.328625 L72.4303206,155.671878 L66.4058468,147.565093 L58.9349734,155.58553 L52.0788294,147.328625 L44.2003989,155.671878 L38.2025794,147.600961 L30.8562782,155.58553 L24.0001342,147.328625 L16.1217037,155.671878 L10.8588556,148.589969 C10.389956,145.623848 9.9497139,142.93752 9.53812939,140.530984 L10.3740143,139.554897 L16.579152,147.904791 L24.2405597,139.791365 L31.0492652,147.991139 L38.4527095,139.554897 L44.6578472,147.904791 L52.3192549,139.791365 L59.1279604,147.991139 L66.6826312,139.554897 L72.8877689,147.904791 L80.5491766,139.791365 L87.3578821,147.991139 L94.7613264,139.554897 L100.966464,147.904791 L106.095152,142.473513 Z M85.283158,174.492533 C83.9676803,175.516248 82.6040086,176.47643 81.1747655,177.371573 L80.3087511,176.328625 L77.2348242,179.583912 C75.1967146,180.603413 73.0202433,181.509378 70.6665233,182.298438 L66.4058468,176.565093 L58.9349734,184.58553 L52.0788294,176.328625 L44.2003989,184.671878 L38.2025794,176.600961 L32.5468408,182.748086 C30.879018,182.146962 29.2325733,181.45527 27.6075066,180.67301 L24.0001342,176.328625 L22.5265197,177.889182 C21.1100983,177.016221 19.7108601,176.070463 18.3288051,175.051909 L24.2405597,168.791365 L31.0492652,176.991139 L38.4527095,168.554897 L44.6578472,176.904791 L52.3192549,168.791365 L59.1279604,176.991139 L66.6826312,168.554897 L72.8877689,176.904791 L80.5491766,168.791365 L85.283158,174.492533 Z" id="Textur" fill="url(#linearGradient-20)"></path>
                <path d="M68.0568588,8.02240915 C69.4217398,10.7590037 70.3731532,13.9551828 70.7597105,17.6791682 C72.4705512,34.1609325 76.3553867,50.6188214 82.414217,67.0528349 C83.6010028,69.9939996 85.3141156,72.7013745 87.5535554,75.1749597 C87.4746372,75.8770361 87.3916405,76.5890574 87.3044799,77.3111968 C84.4247775,101.170004 85.1045818,118.428485 89.3438926,129.086637 C68.0280283,129.900891 52.7904441,127.261303 43.631139,121.167871 C19.3922321,105.042398 4.92504234,57.5992341 8.660284,30.2678328 C8.91501441,28.4039269 9.20917773,26.631045 9.53876769,24.9448569 C11.9829017,17.5420207 16.1357336,10.8327759 24.5580125,5.94143162 C40.1575993,-3.11822429 58.5745421,0.449516627 68.0568588,8.02240915 Z" id="Shadow" fill="#EEB75E" opacity="0.5"></path>
            </g>
            <g id="Head" transform="translate(67.534561, 83.854652) scale(-1, 1) rotate(-9.000000) translate(-67.534561, -83.854652) translate(12.034561, 7.854652)">
                <path d="M59.5254864,98.8221218 C38.031528,117.083048 25.5098639,103.990843 29.5027661,98.8221218 C32.2824143,95.2239303 31.5526822,85.2092898 27.3135698,68.7782005 C48.696081,50.4882147 58.612608,44.4490684 57.0631507,50.6607617 C54.7389647,59.9783017 56.5983135,51.6960439 56.1334763,65.1547127 C55.8290092,73.9701029 56.9596793,84.9574364 59.5254864,98.1167133 L59.5254864,98.8221218 Z" id="Neck" fill="url(#linearGradient-21)"></path>
                <path d="M12.2390327,51.1726011 C11.5927118,42.1287841 8.47326727,35.7326286 2.88069923,31.9841346 C-5.50815284,26.3613936 6.34187752,10.1311149 23.0184273,4.090549 C39.6949771,-1.95001686 59.1124009,-0.452993113 74.2189841,16.5609387 C89.3255673,33.5748705 87.3803618,50.6561403 84.3143669,70.0140702 C81.248372,89.3720001 116.948754,105.231179 108.948599,133.840118 C100.948444,162.449058 64.3329284,149.35874 61.4575877,140.092868 C58.5822469,130.826997 70.4795387,103.175606 61.4594665,97.1213622 C55.446085,93.0851995 53.0862385,84.6377751 54.3799269,71.7790889 L12.2390327,51.1726011 Z" id="Hair" fill="url(#linearGradient-22)" fill-rule="nonzero"></path>
                <path d="M9.68810385,51.2260819 L9.08533562,42.6161261 C6.48193401,36.4828963 10.4548108,29.2174596 12.9888984,30.3856854 C20.1658663,33.6942998 34.7732251,40.237957 44.7181586,43.4856816 C46.5000902,44.0676084 48.5640222,53.6223829 49.97701,53.9551047 C51.6345428,54.3454106 52.5586714,45.4597368 53.5004783,45.3947654 C56.4036561,42.396309 64.1156838,40.888878 64.5168234,51.6718185 C64.7842498,58.8604455 61.9467638,62.0136622 56.0043654,61.1314685 L54.4708609,73.3627258 C47.9147876,81.8097311 40.9343551,87.2008462 33.5295633,89.5360711 C27.5349306,91.4265793 23.5720559,91.5490628 21.6409394,89.9035216 C18.2111865,86.9809639 14.6325927,78.4351594 11.5601833,66.215441 C9.60841064,65.6801127 5.73777508,65.8199137 5.73777508,63.4010447 C5.73777508,62.5080744 8.57164075,54.8924695 9.68810385,51.2260819 Z" id="Face" fill="url(#linearGradient-23)"></path>
            </g>
            <g id="Hand" transform="translate(41.000000, 100.000000)" fill-rule="nonzero">
                <path d="M137.163435,109.145385 L156.280967,107.109153 C163.890881,102.601956 170.280187,100.348358 175.448886,100.348358 C183.201934,100.348358 193.312545,109.192073 199.289849,110.129252 C205.267153,111.066431 199.894261,114.934701 197.104668,114.934701 C194.315075,114.934701 192.521809,111.463175 183.284995,113.394713 C174.048181,115.326251 172.89813,119.243365 169.864069,119.96942 C167.841362,120.453457 164.213755,120.200529 158.981249,119.210636 L139.028445,126.441067 L137.163435,109.145385 Z" fill="#F2A384"></path>
                <path d="M24.6708909,0.336411117 C32.7322062,-1.5040457 55.6391459,3.70916652 58.205407,28.4318129 C60.7716681,53.1544593 64.7428256,78.4817134 67.4316922,84.321767 C70.1205589,90.1618205 82.0481769,120.037746 131.932784,100.6586 C138.247675,100.281451 142.045276,103.302765 143.325588,109.722541 C144.6059,116.142318 143.786063,122.290762 140.866078,128.167871 C95.7211626,142.89555 65.0690691,144.884232 48.9097978,134.133916 C24.6708909,118.008442 -3.07495766,64.5992341 0.660284,37.2678328 C4.39552566,9.9364315 16.6095756,2.17686793 24.6708909,0.336411117 Z" id="Sleeve" fill="url(#linearGradient-19)"></path>
                <path d="M74.8321272,96.0911829 L72.6968374,95.8556198 L72.825279,107.330071 L62.8601895,105.683489 L63.0575562,116.642613 L52.3899311,115.465771 L52.5183727,126.940223 L42.5973722,125.300926 L42.6932569,129.269626 C40.9319592,127.694077 39.1678795,125.954691 37.4138872,124.074773 L37.1880353,119.339317 L47.4519613,121.035277 L47.3270578,109.876906 L57.9208721,111.045606 L57.4949415,99.7291658 L67.7588675,101.425126 L67.633964,90.2667548 L70.6759001,90.6023383 C71.7530577,92.336998 73.1143471,94.2281677 74.8321272,96.0911829 Z M65.2121231,76.5815177 L59.5110518,72.5456275 L54.060465,82.6436785 L46.1430799,76.3723744 L41.0026121,86.0531254 L32.2430414,79.8520689 L26.7924545,89.9501199 L18.9100987,83.7065622 L14.9735161,91.2314349 C14.0243378,89.3930449 13.1079115,87.5393389 12.22838,85.6778187 L17.0692313,75.8699232 L25.2240456,82.3292932 L30.5244881,72.5094077 L39.2234501,78.6675583 L44.3372418,68.5634818 L52.492056,75.0228518 L57.7924985,65.2029663 L63.7994219,69.4553746 C64.2777132,72.0961195 64.751383,74.4922075 65.2121231,76.5815177 Z M39.9610643,2.62223863 C40.9169031,3.03698053 41.8734666,3.5062749 42.8203,4.03382273 L48.2242183,7.85935294 C49.7204769,9.18942803 51.1265823,10.7143222 52.3889617,12.453 L50.6784005,15.722779 L41.9188298,9.52172245 L36.4682429,19.6197734 L28.5508579,13.3484694 L23.4103901,23.0292204 L14.6508193,16.8281638 L9.20023248,26.9262148 L3.9354149,22.7559905 C4.52592001,21.0041172 5.16220585,19.3827833 5.83559036,17.8826047 L7.63182353,19.3053882 L12.932266,9.48550265 L21.6312281,15.6436532 L26.7450197,5.53957677 L34.899834,11.9989468 L39.9610643,2.62223863 Z M59.1340624,36.8824987 C59.4795242,39.8625109 59.8411068,42.8177756 60.2140331,45.7125732 L59.9704769,46.1781367 L51.2109061,39.9770801 L45.7603193,50.0751311 L37.8429342,43.8038271 L32.7024664,53.4845781 L23.9428956,47.2835215 L18.4923088,57.3815725 L10.609953,51.1380149 L5.58052954,60.7518792 L2.41546651,58.5112745 C1.83991145,56.0796423 1.3741884,53.7038817 1.02929813,51.4039146 L3.80136755,53.366312 L8.76908558,43.3013759 L16.9238999,49.7607459 L22.2243424,39.9408604 L30.9233044,46.0990109 L36.037096,35.9949345 L44.1919103,42.4543045 L49.4923528,32.634419 L58.1913149,38.7925695 L59.1340624,36.8824987 Z M98.8991344,107.003187 C100.647042,107.120762 102.4891,107.147027 104.430336,107.069158 L107.981183,114.810126 L98.2078957,117.359066 L102.845676,127.290447 L92.6216512,130.554262 L96.6312839,139.295397 C90.8872721,140.177405 85.5473669,140.704208 80.6115681,140.875807 L80.3095414,140.276091 L90.3759134,137.650713 L85.7232901,127.507836 L95.8765738,124.266604 L90.8846562,114.101763 L100.951028,111.476385 L98.8991344,107.003187 Z M126.411406,102.657597 C128.198158,102.059643 130.038092,101.394649 131.932784,100.6586 C134.003076,100.534955 135.802808,100.776579 137.331979,101.383474 L133.788404,103.747159 L141.262431,112.454538 L132.570328,117.598619 L139.765908,125.86693 L132.258355,130.874725 C129.860941,131.599207 127.50803,132.284571 125.199624,132.930817 L123.366735,130.795467 L132.233293,124.88117 L124.632944,116.486057 L133.585709,111.187714 L126.317565,102.720192 L126.411406,102.657597 Z" id="Shape" fill="url(#linearGradient-20)"></path>
            </g>
        </g>
        <g id="-chair-" transform="translate(470.500000, 528.500000)" fill-rule="nonzero">
            <polygon id="chair-legs" fill="url(#linearGradient-6)" points="93 189 105 189 105 238 93 238"></polygon>
            <g id="chair-legs" transform="translate(25.000000, 237.000000)">
                <circle id="wheel" fill="url(#linearGradient-14)" cx="9" cy="64" r="9"></circle>
                <circle id="wheel" fill="url(#linearGradient-14)" cx="135" cy="64" r="9"></circle>
                <circle id="wheel" fill="url(#linearGradient-14)" cx="74" cy="74" r="9"></circle>
                <path d="M61.8818866,11.9138958 L61.1889383,4.46211403 C61.174936,4.31153703 61.1694842,4.16028712 61.1726091,4.00909277 C61.2182584,1.80042546 63.045743,0.0469528891 65.2544103,0.092602156 L82.4437574,0.447875714 C82.5186086,0.449422756 82.5934016,0.453070956 82.668048,0.458816001 C84.8706732,0.628337572 86.5188293,2.55134244 86.3493077,4.75396759 L85.8566919,11.1546165 L140.584615,48.7189593 C140.733073,48.8208583 140.876958,48.9292646 141.015849,49.0438613 C143.620938,51.1932791 143.990334,55.0475691 141.840916,57.6526588 C139.375307,60.6409714 135.131549,61.4505896 131.738946,59.5798985 L84.1493183,33.3388372 L81.5435674,67.1958416 C81.2523234,70.9800286 78.1465743,73.9310628 74.352453,74.0287261 C70.5938533,74.1254749 67.4035462,71.2923513 67.0554166,67.5486582 L63.7871916,32.4030377 L14.5004393,59.5798985 C11.1078366,61.4505896 6.8640785,60.6409714 4.39846971,57.6526588 C2.24905189,55.0475691 2.61844699,51.1932791 5.22353676,49.0438613 C5.36242774,48.9292646 5.50631243,48.8208583 5.65477021,48.7189593 L61.4672532,10.4101927 L61.8818866,11.9138958 Z" id="Path" fill="url(#linearGradient-24)"></path>
            </g>
            <path d="M2.88781252,38.719752 L2.88781252,15.7203621 C2.88781252,12.1833996 4.15076082,8.76267346 6.44918442,6.07429983 C11.7765575,-0.156914163 21.1466437,-0.889621986 27.3778577,4.43775111 L34.6247993,10.63352 C45.3926995,19.8395305 51.8461728,33.1096327 52.4388327,47.2640333 C53.6842437,77.0079915 56.7729197,100.323347 61.7048608,117.210101 C70.8302888,148.455174 104.246182,153.377133 146.084366,153.377133 C187.92255,153.377133 185.298664,180.588032 173.72471,195.451743 C162.150756,210.315453 69.7687151,217.568708 30.791961,185.47292 C4.80745831,164.075728 -4.49392453,115.158006 2.88781252,38.719752 Z" id="Path" fill="url(#linearGradient-14)"></path>
        </g>
        <g id="Book" transform="translate(913.500000, 555.500000)" fill-rule="nonzero">
            <polygon id="Book-base" fill="#F2F5FF" points="0 3 73 3 73 16 0 16"></polygon>
            <path d="M1,4.01293206 C2.75723887,4.17256649 4.15402059,6.71933165 4.15402059,9.83764402 C4.15402059,12.9559564 2.75723887,15.5027215 1,15.662356 L1,4.01293206 Z" id="Book-base" fill="#D33C50"></path>
            <polygon id="Book-base" fill="url(#linearGradient-25)" points="0 3 1 3 1 16 0 16"></polygon>
            <path d="M2,0 L74,0 C74.5522847,-1.01453063e-16 75,0.44771525 75,1 L75,3 C75,3.55228475 74.5522847,4 74,4 L0,4 L0,2 C-1.3527075e-16,0.8954305 0.8954305,2.02906125e-16 2,0 Z" id="Book-base" fill="url(#linearGradient-25)"></path>
            <path d="M0,15 L74,15 C74.5522847,15 75,15.4477153 75,16 L75,18 C75,18.5522847 74.5522847,19 74,19 L2,19 C0.8954305,19 1.3527075e-16,18.1045695 0,17 L0,15 Z" id="Book-base" fill="url(#linearGradient-25)"></path>
        </g>
        <g id="leaves" transform="translate(874.000000, 540.000000) scale(-1, 1) translate(-874.000000, -540.000000) translate(845.500000, 504.500000)" fill-rule="nonzero">
            <g id="-leaf" transform="translate(34.002422, 33.658885) scale(-1, 1) rotate(-16.000000) translate(-34.002422, -33.658885) translate(20.002422, 2.658885)">
                <path d="M19.2517576,0.337228259 C22.8804527,0.698000769 21.6298756,8.86044984 22.6256443,10.3695972 C23.6214131,11.8678298 26.4213699,12.3221878 26.0302466,15.5878029 C25.6391233,18.8534179 22.938377,18.7440343 22.6163678,21.4568051 C22.2943585,24.169576 28.368624,23.8153125 27.8500172,28.0974786 C27.3314104,32.3796447 22.648529,33.6780025 22.3408263,36.2575319 C22.0331235,38.8370613 24.3522979,39.8492519 23.6657002,45.5583246 C22.9791025,51.2673973 18.2528539,52.437348 11.1942963,52.9362512 C4.13573876,53.4351544 -0.243527168,51.5088636 0.443070547,45.35303 C1.12966826,39.1971965 8.62376466,39.3742969 9.5490479,35.9964677 C10.4743311,32.6302186 5.72817543,30.7984995 6.17378569,26.8487121 C6.61939595,22.8989246 13.7590232,23.0805872 14.1231229,19.9256607 C14.4872227,16.7707342 8.89888463,15.0496965 9.27029035,11.7719729 C9.64169608,8.49424939 11.0604881,8.00653035 13.7374669,6.87841972 C16.4144457,5.77148365 15.6230625,-0.0235442522 19.2517576,0.337228259 Z" id="-leaf-base" fill="url(#linearGradient-7)"></path>
                <path d="M11.818657,49.3981822 C15.3896905,48.3291707 17.3314124,46.1662904 17.7230014,42.8415516 C17.7427408,42.6739573 17.8787998,42.5335531 18.0268978,42.5279501 C18.1749959,42.522347 18.2790512,42.653428 18.2593118,42.8207276 C17.8321757,46.4408966 15.6770964,48.8432802 11.8730559,49.9912038 C12.0330144,51.7304299 12.183486,53.4488824 12.0532878,55.4348468 C11.8551587,58.4532081 11.422812,60.43792 10.7562477,61.3937041 C10.7301033,61.6192011 10.5468247,61.8181172 10.3468835,61.8379958 C10.1469422,61.8578744 9.73453284,61.7175954 9.76067724,61.4913738 C10.2087707,60.0882928 10.5751071,58.1690712 10.8596864,55.7318192 C11.1400179,53.3309959 10.7087054,49.9220781 10.6199639,46.7100652 C8.17782803,47.0253111 6.43575164,45.648646 5.42977229,42.6171864 C5.37843285,42.461761 5.45168785,42.2778646 5.59339193,42.2065556 C5.735096,42.1353029 5.89158869,42.2034768 5.94292813,42.3587129 C6.87357459,45.1606522 8.41645136,46.3837411 10.6075419,46.1062144 C10.5884871,44.6429571 10.6558812,43.2373602 10.9121962,42.0065523 C11.4066205,39.6381417 13.1827864,36.0383932 14.9080451,32.2523698 C12.4332949,32.4838516 10.6701933,31.0321408 9.65570044,27.9368371 C9.604361,27.7794791 9.67761601,27.5994916 9.81932008,27.5349371 C9.96102415,27.4704389 10.1175168,27.545655 10.1688563,27.7028238 C11.1104799,30.5732586 12.6788619,31.8609044 14.9112739,31.6483428 C15.0019394,31.6397739 15.0836994,31.6809747 15.1354895,31.7513579 C16.2915756,29.1942608 17.3980545,26.5736608 18.0489786,24.2079017 C18.6428055,22.061835 18.7974062,19.9942704 18.7715573,18.0993017 C18.6848035,18.073922 18.6372159,17.9794092 18.663893,17.8769152 C18.6794618,17.8171056 18.7171524,17.7667964 18.7643866,17.7353393 C18.7483731,17.1109469 18.7141454,16.5064229 18.6713005,15.9252567 C18.6685924,15.9255165 18.6658678,15.9257142 18.6631279,15.9258484 C17.2423862,15.9961083 16.2339289,15.1344682 15.6631046,13.3772021 C15.6284216,13.2701569 15.679273,13.151354 15.7766845,13.1119008 C15.874096,13.0724742 15.9811798,13.1272613 16.0158628,13.2342185 C16.5336704,14.8273085 17.3999229,15.5722898 18.6396963,15.5182771 C18.528542,14.1521201 18.380875,12.9248852 18.3288563,11.8846276 C18.1807513,8.91350513 18.8349525,5.41683454 18.900158,5.42224649 C18.9781714,5.42872147 18.323881,9.0155019 18.5292339,11.8970639 C18.6483612,13.562929 18.9617862,15.5391863 19.0723518,17.7212826 C20.2158847,17.8127781 21.1922224,17.159581 22.0317085,15.7321317 C22.0905432,15.6323414 22.2088083,15.5907713 22.2958609,15.6392299 C22.3829136,15.6876618 22.4057888,15.807706 22.3469541,15.9074085 C21.4481889,17.4346668 20.3533648,18.1888913 19.0905785,18.132017 C19.1459479,19.5920416 19.1017292,21.1392658 18.8429966,22.7434347 C18.0820915,27.4692076 15.8690251,31.8563808 14.110823,35.7314768 C16.4962408,35.9067797 18.5314898,34.4989192 20.267654,31.4694538 C20.3548152,31.31809 20.5288343,31.2473323 20.6563365,31.311298 C20.7838387,31.3752066 20.8165415,31.5494723 20.7293803,31.7006454 C18.8553932,34.9675951 16.5668505,36.5420101 13.91566,36.334065 C13.8908705,36.3320987 13.8678478,36.3264 13.8468967,36.3174896 C12.8244787,38.6069405 11.9999352,40.7095525 11.7829503,42.5880578 C11.4768132,45.2383816 11.6331959,47.3548306 11.818657,49.3981822 Z" id="leaf-twigs" fill="#98BBE9"></path>
            </g>
            <g id="-leaf" transform="translate(21.163518, 36.779096) rotate(-17.000000) translate(-21.163518, -36.779096) translate(8.663518, 5.279096)">
                <path d="M13.3930712,0 C16.9569682,0 16.6759289,8.49453664 17.8192969,9.97767032 C18.9626649,11.460804 21.7450094,11.7512497 21.7450094,15.1962047 C21.7450094,18.6411597 19.0924908,18.6411597 19.0924908,21.4773687 C19.0924908,24.3135777 25,23.7908581 25,28.3586682 C25,32.9264783 20.5503833,34.2684644 20.5503833,36.9786636 C20.5503833,39.6888628 22.9552277,40.8285497 22.9552277,46.8759985 C22.9552277,52.9234472 18.4129563,53.8164784 11.4804444,53.8164784 C4.54793246,53.8164784 0,51.6025709 0,45.5551222 C0,39.5076735 7.40165513,39.8787858 7.93249161,36.489568 C8.46332809,33.1003502 3.59610697,31.2545745 3.59610697,27.3297068 C3.59610697,23.4048391 10.6082409,23.4048391 10.6082409,20.1979035 C10.6082409,16.9909679 4.95743547,15.5358301 4.95743547,12.2645446 C4.95743547,8.99325925 6.28565087,8.40817787 8.76698991,7.08238097 C11.2483289,5.75658407 9.82917425,0 13.3930712,0 Z" id="-leaf-base" fill="url(#linearGradient-19)"></path>
                <path d="M11.692295,50.2230232 C15.1006986,49.3326446 16.768864,47.1884086 16.768864,43.739134 C16.768864,43.565273 16.8867773,43.4243308 17.0322308,43.4243308 C17.1776842,43.4243308 17.2955975,43.565273 17.2955975,43.739134 C17.2955975,47.5015073 15.4444464,49.8840415 11.8140367,50.8356832 C12.1720488,52.6352229 12.5189205,54.4152731 12.6185218,56.4568801 C12.7698763,59.559317 12.5695952,61.5712423 12.0176786,62.492656 C12.0176786,62.7229319 11.8584885,62.9096075 11.6621177,62.9096075 C11.4657468,62.9096075 11.0398861,62.7229319 11.0398861,62.492656 C11.3237933,61.0919929 11.4669917,59.1495595 11.4694814,56.6653559 C11.4719228,54.2293494 10.6636776,50.7343477 10.2083472,47.4561167 C7.84866418,47.529756 5.93800116,46.0153684 4.51918822,42.9727142 C4.44577169,42.8152719 4.49307954,42.6378271 4.62485326,42.57638 C4.75662698,42.5149329 4.92296654,42.5927523 4.99638307,42.7501946 C6.31070715,45.5687717 8.00672032,46.9134182 10.1273606,46.8440453 C9.937394,45.3276073 9.84032176,43.8758834 9.95476937,42.6189339 C10.1712718,40.2411423 11.4881904,36.6254457 12.7424693,32.7951596 C10.3743177,32.8772628 8.45741019,31.3629215 7.03491149,28.3123632 C6.96149496,28.1549209 7.00880281,27.9774761 7.14057653,27.916029 C7.27235025,27.8545819 7.43868981,27.9324013 7.51210634,28.0898436 C8.85864874,30.9775131 10.6058224,32.3181048 12.7998011,32.1760444 C12.8463137,32.1730327 12.8923739,32.1837021 12.9345721,32.204986 C13.7807076,29.5883036 14.5703745,26.8966932 14.9383047,24.4515361 C15.271544,22.2369249 15.188881,20.1209538 14.9500018,18.1886443 C14.935972,18.1878422 14.9219142,18.1869438 14.9078286,18.1859489 C14.8063278,18.1787798 14.7394935,18.080376 14.7585501,17.9661579 C14.7725082,17.8824983 14.8286744,17.8135588 14.8976145,17.7854755 C14.8119205,17.1559621 14.7111718,16.547129 14.6047222,15.9620387 C13.2314907,16.0383218 12.1261924,15.1900877 11.3191267,13.4593298 C11.2695292,13.3529676 11.3027562,13.2325014 11.3933413,13.1902609 C11.4839264,13.1480203 11.5975668,13.2000012 11.6471643,13.3063634 C12.3791596,14.8761324 13.3294362,15.6097637 14.5279541,15.5487805 C14.2618632,14.1436948 13.9749097,12.885432 13.8045595,11.8189985 C13.322799,8.80306075 13.5631112,5.19607378 13.6271523,5.19607378 C13.7037726,5.19607378 13.4737837,8.89642603 14.0013589,11.8189985 C14.3084103,13.5199501 14.8427784,15.5369303 15.2004202,17.7789824 C16.3198369,17.7652841 17.2152577,17.0286735 17.9125841,15.5332521 C17.9621816,15.42689 18.075822,15.3749091 18.1664071,15.4171496 C18.2569922,15.4593901 18.2902192,15.5798564 18.2406217,15.6862186 C17.4949177,17.2853859 16.4946067,18.1311255 15.2635893,18.1903125 C15.4836015,19.682033 15.6166195,21.268638 15.5478434,22.9242841 C15.3433155,27.847883 13.6447549,32.3775541 12.3549914,36.3575074 C14.7213501,36.4723801 16.6079244,35.0046733 18.0591246,31.8925644 C18.1326012,31.7349932 18.299721,31.6574103 18.4323969,31.7192781 C18.5650729,31.7811459 18.6130634,31.9590364 18.5395868,32.1166076 C16.9615002,35.5008251 14.819726,37.1381392 12.160408,36.9643139 C11.433492,39.2588035 10.8797143,41.3625406 10.8797143,43.2443612 C10.8797143,45.9374989 11.2753934,48.115158 11.692295,50.2230232 Z" id="Path" fill="#EFDDB8" style="mix-blend-mode: multiply;"></path>
            </g>
        </g>
        <g id="vase" transform="translate(849.500000, 565.500000)" fill-rule="nonzero">
            <polygon id="vase-base" fill="url(#linearGradient-24)" points="1 1 51 1 39.8888889 33 12.1111111 33"></polygon>
            <path d="M2,0 L49,0 C50.1045695,-2.02906125e-16 51,0.8954305 51,2 L51,8 C51,9.1045695 50.1045695,10 49,10 L2,10 C0.8954305,10 1.3527075e-16,9.1045695 0,8 L0,2 C-1.3527075e-16,0.8954305 0.8954305,2.02906125e-16 2,0 Z" id="vase-base" fill="url(#linearGradient-26)"></path>
        </g>
        <g id="Book" transform="translate(904.500000, 573.500000)" fill-rule="nonzero">
            <polygon id="Book-base" fill="#F2F5FF" points="0 3 73 3 73 16 0 16"></polygon>
            <path d="M1,4.01293206 C2.75723887,4.17256649 4.15402059,6.71933165 4.15402059,9.83764402 C4.15402059,12.9559564 2.75723887,15.5027215 1,15.662356 L1,4.01293206 Z" id="Book-base" fill="#7D95C9"></path>
            <polygon id="Book-base" fill="url(#linearGradient-6)" points="0 3 1 3 1 16 0 16"></polygon>
            <path d="M2,0 L74,0 C74.5522847,-1.01453063e-16 75,0.44771525 75,1 L75,3 C75,3.55228475 74.5522847,4 74,4 L0,4 L0,2 C-1.3527075e-16,0.8954305 0.8954305,2.02906125e-16 2,0 Z" id="Book-base" fill="url(#linearGradient-6)"></path>
            <path d="M0,15 L74,15 C74.5522847,15 75,15.4477153 75,16 L75,18 C75,18.5522847 74.5522847,19 74,19 L2,19 C0.8954305,19 1.3527075e-16,18.1045695 0,17 L0,15 Z" id="Book-base" fill="url(#linearGradient-6)"></path>
        </g>
        <g id="Table" transform="translate(643.500000, 592.500000)" fill-rule="nonzero">
            <path d="M326,236.942195 L326,15 L302.446951,15 L326,236.942195 Z M298,11 L330,11 L330,253 C330,254.656854 328.656854,256 327,256 C325.29426,256 323.863417,254.712967 323.68341,253.016752 L298,11 Z" id="Table-leg" fill="url(#linearGradient-24)"></path>
            <path d="M21,236.942195 L44.5530493,15 L21,15 L21,236.942195 Z M49,11 L23.3165896,253.016752 C23.1365831,254.712967 21.7057401,256 20,256 C18.3431458,256 17,254.656854 17,253 L17,11 L49,11 Z" id="Shape" fill="url(#linearGradient-24)"></path>
            <polygon id="Table-base" fill="url(#linearGradient-14)" points="0 0 346 0 346 11 0 11"></polygon>
        </g>
        <g id="Decorative" transform="translate(170.500000, 358.500000)" fill-rule="nonzero">
            <g id="Cactus" transform="translate(26.000000, 0.000000)">
                <g transform="translate(15.000000, 0.000000)">
                    <path d="M20,25 L23,25 L23,14 C23,10.6862915 25.6862915,8 29,8 C32.3137085,8 35,10.6862915 35,14 L35,31 C35,34.3137085 32.3137085,37 29,37 C28.6592878,37 28.3252085,36.9716012 28,36.9170416 C27.6747915,36.9716012 27.3407122,37 27,37 L20,37 L20,53 L0,53 L0,10 C0,4.4771525 4.4771525,1.01453063e-15 10,0 C15.5228475,-1.01453063e-15 20,4.4771525 20,10 L20,25 Z" id="Cactus-base" fill="url(#linearGradient-27)"></path>
                    <path d="M1,5.63587473 L1,53 L0,53 L0,10 C0,8.43535422 0.359341894,6.95463723 1,5.63587473 Z M4,1.99926763 L4,53 L3,53 L3,2.8585672 C3.31386101,2.55088367 3.64791855,2.26372627 4,1.99926763 Z M7,0.457802284 L7,53 L6,53 L6,0.832087371 C6.32470686,0.690216908 6.65840403,0.565091376 7,0.457802284 Z M10,0 L10,53 L9,53 L9,0.0493752426 C9.32890624,0.0167194423 9.6625006,6.19976333e-17 10,0 Z M13,0.457802284 L13,53 L12,53 L12,0.200036231 C12.3399116,0.26903465 12.6735625,0.355274185 13,0.457802284 Z M16,1.99926763 L16,53 L15,53 L15,1.3378138 C15.3470596,1.53858522 15.680931,1.75960558 16,1.99926763 Z M19,5.63587473 L19,53 L18,53 L18,3.99902509 C18.3831652,4.50901504 18.7187002,5.05683322 19,5.63587473 Z M22,25 L22,37 L21,37 L21,25 L22,25 Z M25,9.52778699 L25,37 L24,37 L24,10.6822049 C24.2834196,10.2559383 24.6198954,9.86798982 25,9.52778699 Z M28,8.08295844 L28,36.9170416 C27.6747915,36.9716012 27.3407122,37 27,37 L27,8.34141142 C27.3216308,8.22773125 27.6558482,8.14069617 28,8.08295844 Z M31,8.34141142 L31,36.6585886 C30.6783692,36.7722688 30.3441518,36.8593038 30,36.9170416 L30,8.08295844 C30.3441518,8.14069617 30.6783692,8.22773125 31,8.34141142 Z M34,10.6822049 L34,34.3177951 C33.7165804,34.7440617 33.3801046,35.1320102 33,35.472213 L33,9.52778699 C33.3801046,9.86798982 33.7165804,10.2559383 34,10.6822049 Z" id="Texture" fill="#42B16D"></path>
                </g>
                <g id="vase" transform="translate(0.000000, 45.000000)">
                    <polygon fill="url(#linearGradient-6)" points="1 1 51 1 39.8888889 33 12.1111111 33"></polygon>
                    <path d="M2,0 L49,0 C50.1045695,-2.02906125e-16 51,0.8954305 51,2 L51,8 C51,9.1045695 50.1045695,10 49,10 L2,10 C0.8954305,10 1.3527075e-16,9.1045695 0,8 L0,2 C-1.3527075e-16,0.8954305 0.8954305,2.02906125e-16 2,0 Z" fill="url(#linearGradient-28)"></path>
                </g>
            </g>
            <polygon id="shelves" fill="url(#linearGradient-7)" points="0 78 253 78 253 92 0 92"></polygon>
            <g id="Book" transform="translate(92.000000, 4.000000)">
                <g transform="translate(9.500000, 37.500000) rotate(-90.000000) translate(-9.500000, -37.500000) translate(-28.000000, 28.000000)">
                    <polygon id="Rectangle-11" fill="#F2F5FF" points="0 3 72 3 72 15 0 15"></polygon>
                    <path d="M2,0 L74,0 C74.5522847,-1.01453063e-16 75,0.44771525 75,1 L75,3 C75,3.55228475 74.5522847,4 74,4 L0,4 L0,2 C-1.3527075e-16,0.8954305 0.8954305,2.02906125e-16 2,0 Z" id="Rectangle-11-Copy" fill="url(#linearGradient-29)"></path>
                    <path d="M0,15 L74,15 C74.5522847,15 75,15.4477153 75,16 L75,18 C75,18.5522847 74.5522847,19 74,19 L2,19 C0.8954305,19 1.3527075e-16,18.1045695 0,17 L0,15 Z" id="Rectangle-11-Copy-3" fill="url(#linearGradient-29)"></path>
                </g>
                <g transform="translate(48.000000, 42.500000) rotate(-90.000000) translate(-48.000000, -42.500000) translate(15.500000, 32.500000)">
                    <polygon id="Rectangle-11" fill="#F2F5FF" points="0 3.15789474 62.4 3.15789474 62.4 15.7894737 0 15.7894737"></polygon>
                    <path d="M2,0 L64,0 C64.5522847,-1.01453063e-16 65,0.44771525 65,1 L65,3.21052632 C65,3.76281107 64.5522847,4.21052632 64,4.21052632 L0,4.21052632 L0,2 C-1.3527075e-16,0.8954305 0.8954305,2.02906125e-16 2,0 Z" id="Rectangle-11-Copy" fill="url(#linearGradient-29)"></path>
                    <path d="M0,15.7894737 L64,15.7894737 C64.5522847,15.7894737 65,16.2371889 65,16.7894737 L65,19 C65,19.5522847 64.5522847,20 64,20 L2,20 C0.8954305,20 1.3527075e-16,19.1045695 0,18 L0,15.7894737 Z" id="Rectangle-11-Copy-3" fill="url(#linearGradient-29)"></path>
                </g>
                <g transform="translate(28.500000, 37.500000) rotate(-90.000000) translate(-28.500000, -37.500000) translate(-9.000000, 28.000000)">
                    <polygon id="Rectangle-11" fill="#F2F5FF" points="0 3 73 3 73 16 0 16"></polygon>
                    <path d="M2,0 L74,0 C74.5522847,-1.01453063e-16 75,0.44771525 75,1 L75,3 C75,3.55228475 74.5522847,4 74,4 L0,4 L0,2 C-1.3527075e-16,0.8954305 0.8954305,2.02906125e-16 2,0 Z" id="Rectangle-11-Copy" fill="url(#linearGradient-6)"></path>
                    <path d="M0,15 L74,15 C74.5522847,15 75,15.4477153 75,16 L75,18 C75,18.5522847 74.5522847,19 74,19 L2,19 C0.8954305,19 1.3527075e-16,18.1045695 0,17 L0,15 Z" id="Rectangle-11-Copy-3" fill="url(#linearGradient-6)"></path>
                </g>
                <g transform="translate(66.500000, 37.500000) rotate(-90.000000) translate(-66.500000, -37.500000) translate(29.000000, 28.000000)">
                    <polygon id="Rectangle-11" fill="#F2F5FF" points="0 3 73 3 73 16 0 16"></polygon>
                    <path d="M2,0 L74,0 C74.5522847,-1.01453063e-16 75,0.44771525 75,1 L75,3 C75,3.55228475 74.5522847,4 74,4 L0,4 L0,2 C-1.3527075e-16,0.8954305 0.8954305,2.02906125e-16 2,0 Z" id="Rectangle-11-Copy" fill="url(#linearGradient-6)"></path>
                    <path d="M0,15 L74,15 C74.5522847,15 75,15.4477153 75,16 L75,18 C75,18.5522847 74.5522847,19 74,19 L2,19 C0.8954305,19 1.3527075e-16,18.1045695 0,17 L0,15 Z" id="Rectangle-11-Copy-3" fill="url(#linearGradient-6)"></path>
                </g>
            </g>
            <g id="Deck" transform="translate(188.000000, 31.000000)">
                <circle id="Oval-4" stroke="#D2E1F5" cx="18" cy="18" r="18"></circle>
                <path d="M10,28 L9,28 L12,22 L20,22 L22.0769231,26.1538462 L22.75,25 L22,25 L24.5,20 L27,25 L26.25,25 L28,28 L26.75,28 L29,31 L25,31 L25,34 L24,34 L24,31 L22,31 L22,34 L10,34 L10,28 Z M22,28 L22,28.3333333 L22.25,28 L22,28 Z" id="Shape" fill="url(#linearGradient-10)"></path>
                <path d="M15,33 L22,33 C30.2842712,33 37,39.7157288 37,48 L0,48 C-1.01453063e-15,39.7157288 6.71572875,33 15,33 Z" id="Rectangle-15" fill="url(#linearGradient-10)"></path>
            </g>
        </g>
        <g id="sticky-note" transform="translate(785.000000, 232.000000)" fill-rule="nonzero">
            <polygon stroke="#D2E1F5" stroke-width="3" points="0.5 73.5 51.5 73.5 51.5 133.5 0.5 133.5"></polygon>
            <polygon fill="url(#linearGradient-2)" points="20.5 0.5 71.5 0.5 71.5 60.5 20.5 60.5"></polygon>
            <polygon fill="url(#linearGradient-2)" points="64.5 93.5 111.5 93.5 111.5 143.5 71.4304848 143.5 64.5 137.27304"></polygon>
        </g>
        <g id="leaves" transform="translate(1029.500000, 557.500000)" fill-rule="nonzero">
            <g id="Leaves" transform="translate(136.982509, 133.079657) scale(-1, 1) rotate(-16.000000) translate(-136.982509, -133.079657) translate(82.482509, 11.079657)">
                <path d="M74.631905,0.357957632 C88.8874928,1.78329254 83.9745111,34.0313802 87.8864599,39.9936983 C91.7984088,45.9128942 102.798239,47.7079653 101.261683,60.6097108 C99.7251271,73.5114563 89.1150527,73.0793049 87.8500162,83.7968815 C86.5849798,94.514458 110.448166,93.114839 108.410782,110.03276 C106.373398,126.950681 87.976364,132.080214 86.7675318,142.271382 C85.5586996,152.46255 94.6697417,156.461498 91.9723936,179.016822 C89.2750454,201.572145 70.7076404,206.19437 42.9775928,208.165429 C15.2475451,210.136489 -1.95671387,202.526126 0.74063429,178.205747 C3.43798245,153.885367 32.8790755,154.585053 36.5141168,141.239973 C40.1491581,127.940644 21.5035463,120.703915 23.2541581,105.099151 C25.0047698,89.4943867 53.0533053,90.2120967 54.4836973,77.7476579 C55.9140892,65.2832191 33.9599039,58.4837678 35.4189978,45.5341842 C36.8780917,32.5846007 42.4519176,30.6577272 52.96862,26.2008038 C63.4853223,21.8275365 60.3763171,-1.06737727 74.631905,0.357957632 Z" id="Leaf" fill="url(#linearGradient-7)"></path>
                <path d="M45.5734142,196.551592 C44.988433,196.730045 44.4751841,196.347372 44.4270406,195.696627 C44.3788972,195.045747 44.8140901,194.374103 45.3990713,194.196709 C59.4481288,189.976571 67.0865452,181.428551 68.626077,168.283434 C68.7036244,167.621304 69.2381421,167.066597 69.8199558,167.044461 C70.4017695,167.022325 70.8105582,167.540198 70.7330108,168.201163 C69.0523305,182.526224 60.5618795,192.024894 45.5734142,196.551592 Z" id="leaves-base" fill="#98BBE9"></path>
                <path d="M53.6686643,142.573748 C53.0862619,142.527291 52.7520879,141.953468 52.9222658,141.29222 C53.0924437,140.631073 53.7025306,140.133808 54.284933,140.181405 C63.7211216,140.944934 71.7658114,135.387477 78.6229263,123.354712 C78.9653453,122.756705 79.6489917,122.477157 80.1498932,122.729872 C80.6507947,122.982361 80.7792701,123.670847 80.4368511,124.2681 C73.0747591,137.175118 64.0840556,143.395295 53.6686643,142.573748 Z" id="leaves-base" fill="#98BBE9"></path>
                <path d="M72.8351189,70.5515417 C72.4383036,70.4947852 72.208768,70.0926904 72.3224367,69.6535032 C72.4361055,69.2143616 72.8499346,68.904856 73.2467499,68.9621377 C78.0337729,69.6510741 82.0898895,67.1020809 85.5531405,61.1799233 C85.7842769,60.7856729 86.2488897,60.6214385 86.5908823,60.8128879 C86.9328749,61.0042322 87.0227417,61.4785008 86.7916053,61.872404 C82.9874897,68.3732338 78.2893139,71.3289707 72.8351189,70.5515417 Z" id="leaves-base" fill="#98BBE9"></path>
                <path d="M72.319431,61.9452561 C72.7255072,61.9252562 73.0459059,61.5483212 73.0350616,61.1032829 C73.0242173,60.658199 72.6862364,60.3131216 72.2801602,60.3325963 C67.3814176,60.5696192 63.9610457,57.6278715 61.919461,51.3112033 C61.7832062,50.8886381 61.36252,50.6721862 60.979832,50.8279522 C60.597144,50.9838232 60.3973704,51.4531882 60.5336252,51.8761006 C62.7761494,58.8186826 66.7379459,62.2228382 72.319431,61.9452561 Z" id="leaves-base" fill="#98BBE9"></path>
                <path d="M57.6491174,126.44 C58.2409144,126.382621 58.7051893,125.804267 58.6861043,125.14807 C58.6670194,124.491769 58.1718016,124.005216 57.5800046,124.061464 C48.8098145,124.901249 42.648314,119.814036 38.9490783,108.473563 C38.7473876,107.852623 38.1325949,107.55546 37.5759003,107.810279 C37.0192057,108.06532 36.7314182,108.776412 36.9331089,109.3981 C40.9297848,121.661249 47.8839293,127.394472 57.6491174,126.44 Z" id="leaves-base" fill="#98BBE9"></path>
                <path d="M41.0472568,183.522367 C41.6390538,183.43725 42.1033287,182.835585 42.0842437,182.17837 C42.0651588,181.521052 41.569941,181.056159 40.978144,181.140144 C32.2079539,182.390991 26.0464534,177.576275 22.3472177,166.375841 C22.145527,165.762537 21.5307343,165.493196 20.9740397,165.7747 C20.4173451,166.056427 20.1295576,166.782962 20.3312483,167.397015 C24.3279242,179.508865 31.2820687,184.934536 41.0472568,183.522367 Z" id="leaves-base" fill="#98BBE9"></path>
                <path d="M41.2566874,241.579014 C41.1539773,242.469904 40.4339541,243.255779 39.6484707,243.334315 C38.8629873,243.412851 37.2428076,242.858639 37.3455177,241.964886 C39.1058851,236.421613 40.5450638,228.83918 41.6630538,219.21012 C43.3400389,204.766824 38.5345205,181.088675 41.8693421,164.98453 C45.2041637,148.919609 63.3816326,118.515089 69.9067017,94.6658745 C75.2159256,75.3700562 71.5880622,57.6805789 71.0062212,45.9792585 C70.4243802,34.2409903 72.9944563,20.4263939 73.2506208,20.4477753 C73.5571018,20.4733566 70.9866753,34.6439577 71.793419,46.028392 C72.6001627,57.3736174 75.6751107,72.3628073 73.0260579,88.8800795 C68.0947655,119.680166 47.6381479,146.839749 45.290162,167.281934 C42.942176,187.724119 47.5197482,200.127108 46.3522019,218.036845 C45.5738377,229.961744 43.8753329,237.802915 41.2566874,241.579014 Z" id="leaves-base" fill="#8FAFDA"></path>
            </g>
            <g id="Leaves" transform="translate(84.361701, 144.156680) rotate(-17.000000) translate(-84.361701, -144.156680) translate(34.361701, 19.156680)">
                <path d="M53.5722849,0 C67.8278727,0 66.7037156,33.7084787 71.2771877,39.5939298 C75.8506598,45.4793809 86.9800377,46.6319433 86.9800377,60.3023997 C86.9800377,73.9728561 76.3699632,73.9728561 76.3699632,85.2276536 C76.3699632,96.4824512 100,94.4081671 100,112.534398 C100,130.660628 82.2015331,135.98597 82.2015331,146.740729 C82.2015331,157.495487 91.8209107,162.018055 91.8209107,186.015867 C91.8209107,210.013679 73.6518251,213.557454 45.9217775,213.557454 C18.1917298,213.557454 0,204.772107 0,180.774294 C0,156.776482 29.6066205,158.24915 31.7299664,144.799873 C33.8533124,131.350596 14.3844279,124.026089 14.3844279,108.451218 C14.3844279,92.8763458 42.4329634,92.8763458 42.4329634,80.1504109 C42.4329634,67.424476 19.8297419,61.6501193 19.8297419,48.668828 C19.8297419,35.6875367 25.1426035,33.3657852 35.0679596,28.1046864 C44.9933158,22.8435876 39.316697,0 53.5722849,0 Z" id="Leaf" fill="url(#linearGradient-27)"></path>
                <path d="M47.1900001,201.746051 C46.6215346,201.892988 46.0602519,201.46564 45.9363403,200.791544 C45.8124286,200.117448 46.1728107,199.45187 46.7412762,199.304933 C60.3936899,195.776066 67.0754562,187.264925 67.0754562,173.567992 C67.0754562,172.878068 67.5471094,172.318773 68.1289231,172.318773 C68.7107367,172.318773 69.1823899,172.878068 69.1823899,173.567992 C69.1823899,188.520697 61.7552996,197.981222 47.1900001,201.746051 Z" id="Leaves-base" fill="#5ACE87"></path>
                <path d="M48.6572548,146.658796 C48.0622893,146.61746 47.6712524,146.039835 47.7838493,145.368633 C47.8964463,144.697432 48.4700389,144.186824 49.0650044,144.22816 C58.7047418,144.897882 66.3520095,139.099705 72.190927,126.578106 C72.482501,125.952824 73.1490889,125.646547 73.6797928,125.894019 C74.2104966,126.14149 74.4043497,126.848997 74.1127757,127.474279 C67.8438641,140.918003 59.2973173,147.398016 48.6572548,146.658796 Z" id="Leaves-base" fill="#5ACE87"></path>
                <path d="M59.6573154,72.1548792 C59.2518005,72.1251555 58.9836459,71.7332937 59.0583754,71.2796314 C59.1331048,70.8259691 59.5224198,70.4822989 59.9279347,70.5120226 C64.8199062,70.8705975 68.6780444,67.9739523 71.6270451,61.6497999 C71.8238606,61.2277278 72.2771458,61.0225416 72.6394861,61.1915036 C73.0018265,61.3604657 73.1360109,61.8395935 72.9391954,62.2616656 C69.6999443,69.2082621 65.2310857,72.563429 59.6573154,72.1548792 Z" id="Leaves-base" fill="#5ACE87"></path>
                <path d="M58.5816783,63.3180191 C53.007908,63.7265689 48.5390494,60.3714019 45.2997983,53.4248054 C45.1029828,53.0027334 45.2371673,52.5236055 45.5995076,52.3546435 C45.9618479,52.1856814 46.4151332,52.3908676 46.6119486,52.8129397 C49.5609493,59.1370921 53.4190875,62.0337373 58.311059,61.6751624 C58.7165739,61.6454387 59.1058889,61.9891089 59.1806183,62.4427712 C59.2553478,62.8964336 58.9871932,63.2882954 58.5816783,63.3180191 Z" id="Leaves-base" fill="#5ACE87"></path>
                <path d="M51.5723592,130.086824 C41.8127249,130.745113 33.9545507,124.756338 28.1814862,112.375962 C27.8901508,111.751191 28.0812716,111.045463 28.6083664,110.799675 C29.1354613,110.553886 29.7989302,110.861112 30.0902656,111.485883 C35.4336878,122.944889 42.3961753,128.251054 51.1613774,127.659839 C51.7528379,127.619945 52.3243127,128.130904 52.4378022,128.801097 C52.5512917,129.47129 52.1638196,130.04693 51.5723592,130.086824 Z" id="Leaves-base" fill="#5ACE87"></path>
                <path d="M41.5094661,188.26282 C31.7498318,188.921109 23.8916576,182.932335 18.1185931,170.551958 C17.8272577,169.927187 18.0183785,169.221459 18.5454733,168.975671 C19.0725682,168.729882 19.7360371,169.037108 20.0273725,169.661879 C25.3707947,181.120885 32.3332822,186.42705 41.0984844,185.835836 C41.6899448,185.795941 42.2614197,186.3069 42.3749091,186.977093 C42.4883986,187.647286 42.1009266,188.222926 41.5094661,188.26282 Z" id="Leaves-base" fill="#5ACE87"></path>
                <path d="M48.0707142,247.98673 C48.0707142,248.900524 47.4339541,249.6413 46.6484707,249.6413 C45.8629873,249.6413 44.1595445,248.900524 44.1595445,247.98673 C45.295173,242.428543 45.8679667,234.720474 45.8779255,224.862523 C45.8928638,210.075597 38.3200529,185.455503 39.8190775,169.122753 C41.3181021,152.790004 56.0054358,121.73891 59.7532189,97.0299052 C62.8026608,76.9250394 57.14528,58.8687943 55.2182379,46.9007875 C53.2911959,34.9327808 54.2524449,20.6193404 54.5086094,20.6193404 C54.8150904,20.6193404 53.8951349,35.3032779 56.0054358,46.9007875 C58.1157367,58.4982972 62.9103803,73.7981142 62.1913737,90.9693813 C60.8529211,122.934219 43.5188572,150.715007 43.5188572,171.604608 C43.5188572,192.494209 49.5659599,205.568352 50.474087,224.035239 C51.0795051,236.346496 50.2783808,244.330326 48.0707142,247.98673 Z" id="Leaves-base" fill="#42B16D"></path>
            </g>
            <g id="Leaves" transform="translate(164.000000, 165.500000) scale(-1, 1) rotate(-28.000000) translate(-164.000000, -165.500000) translate(114.000000, 59.000000)">
                <path d="M53.5722849,0 C67.8278727,0 66.7037156,28.7608901 71.2771877,33.7824994 C75.8506598,38.8041088 86.9800377,39.7875029 86.9800377,51.4514672 C86.9800377,63.1154315 76.3699632,63.1154315 76.3699632,72.7182972 C76.3699632,82.3211629 100,80.5513335 100,96.0170723 C100,111.482811 82.2015331,116.026521 82.2015331,125.202742 C82.2015331,134.378962 91.8209107,138.237726 91.8209107,158.713241 C91.8209107,179.188755 73.6518251,182.212389 45.9217775,182.212389 C18.1917298,182.212389 0,174.716519 0,154.241004 C0,133.76549 29.6066205,135.022006 31.7299664,123.546757 C33.8533124,112.071508 14.3844279,105.822062 14.3844279,92.5332042 C14.3844279,79.2443466 42.4329634,79.2443466 42.4329634,68.3862708 C42.4329634,57.5281951 19.8297419,52.6013741 19.8297419,41.5254222 C19.8297419,30.4494702 25.1426035,28.4684956 35.0679596,23.9795988 C44.9933158,19.4907019 39.316697,0 53.5722849,0 Z" id="Leaf" fill="url(#linearGradient-30)"></path>
                <path d="M47.1900001,172.134614 C46.6215346,172.259984 46.0602519,171.895361 45.9363403,171.320206 C45.8124286,170.745051 46.1728107,170.177163 46.7412762,170.051793 C60.3936899,167.040879 67.0754562,159.778967 67.0754562,148.092413 C67.0754562,147.503752 67.5471094,147.026549 68.1289231,147.026549 C68.7107367,147.026549 69.1823899,147.503752 69.1823899,148.092413 C69.1823899,160.850422 61.7552996,168.922371 47.1900001,172.134614 Z" id="Leaves-base" fill="#D2DEF8"></path>
                <path d="M49.5669986,124.711854 C48.9853064,124.642054 48.5720474,124.112084 48.6439587,123.528133 C48.71587,122.944182 49.2457204,122.527381 49.8274126,122.59718 C59.2520944,123.728092 66.3729243,119.058864 71.35483,108.375132 C71.603608,107.841626 72.2355029,107.609749 72.7662068,107.857221 C73.2969106,108.104692 73.5254567,108.737799 73.2766787,109.271305 C67.9278916,120.741816 59.969689,125.960121 49.5669986,124.711854 Z" id="Leaves-base" fill="#D2DEF8"></path>
                <path d="M60.1343545,61.3500436 C59.7377992,61.301106 59.4546445,60.9414121 59.5019108,60.5466448 C59.549177,60.1518775 59.9089655,59.8715271 60.3055208,59.9204647 C65.0894074,60.5108283 68.6835596,58.1803031 71.1997184,52.7843832 C71.3676461,52.424261 71.7975132,52.2692952 72.1598535,52.4382573 C72.5221938,52.6072193 72.6797964,53.0361268 72.5118687,53.3962489 C69.7480612,59.3232532 65.5849761,62.0226867 60.1343545,61.3500436 Z" id="Leaves-base" fill="#D2DEF8"></path>
                <path d="M58.1046392,53.8102206 C52.6540176,54.4828637 48.4909325,51.7834302 45.727125,45.8564259 C45.5591973,45.4963038 45.7167999,45.0673963 46.0791402,44.8984343 C46.4414805,44.7294722 46.8713477,44.884438 47.0392754,45.2445602 C49.5554341,50.6404801 53.1495863,52.9710053 57.933473,52.3806417 C58.3300283,52.3317041 58.6898167,52.6120545 58.737083,53.0068218 C58.7843492,53.4015891 58.5011945,53.761283 58.1046392,53.8102206 Z" id="Leaves-base" fill="#D2DEF8"></path>
                <path d="M50.7311312,110.610673 C41.1903384,111.73827 33.874846,106.91328 28.9491276,96.3500427 C28.7005532,95.8169731 28.9263386,95.185584 29.4534335,94.9397956 C29.9805283,94.6940072 30.6093326,94.9268947 30.857907,95.4599643 C35.4170442,105.237066 41.8987055,109.512095 50.4673645,108.499393 C51.0455626,108.431057 51.5733309,108.848287 51.646168,109.431301 C51.7190052,110.014315 51.3093292,110.542338 50.7311312,110.610673 Z" id="Leaves-base" fill="#D2DEF8"></path>
                <path d="M40.6682381,160.247841 C31.1274453,161.375438 23.8119529,156.550448 18.8862345,145.987211 C18.6376601,145.454141 18.8634455,144.822752 19.3905404,144.576964 C19.9176353,144.331175 20.5464395,144.564063 20.7950139,145.097132 C25.3541511,154.874234 31.8358124,159.149264 40.4044714,158.136561 C40.9826695,158.068225 41.5104378,158.485455 41.583275,159.068469 C41.6561121,159.651483 41.2464361,160.179506 40.6682381,160.247841 Z" id="Leaves-base" fill="#D2DEF8"></path>
                <path d="M48.0707142,211.588281 C48.0707142,212.367952 47.4339541,213 46.6484707,213 C45.8629873,213 44.1595445,212.367952 44.1595445,211.588281 C45.295173,206.845902 45.8679667,200.269191 45.8779255,191.858148 C45.8928638,179.241585 38.3200529,158.235125 39.8190775,144.299627 C41.3181021,130.36413 56.0054358,103.870585 59.7532189,82.788264 C62.8026608,65.6343057 57.14528,50.2282804 55.2182379,40.0168873 C53.2911959,29.8054942 54.2524449,17.5929204 54.5086094,17.5929204 C54.8150904,17.5929204 53.8951349,30.1216113 56.0054358,40.0168873 C58.1157367,49.9121632 62.9103803,62.9663375 62.1913737,77.6172783 C60.8529211,104.890451 43.5188572,128.593692 43.5188572,146.417206 C43.5188572,164.240719 49.5659599,175.395895 50.474087,191.152289 C51.0795051,201.656552 50.2783808,208.468549 48.0707142,211.588281 Z" id="Leaves-base" fill="#D2DEF8"></path>
            </g>
            <g id="vase" transform="translate(73.000000, 244.000000)">
                <polygon id="Vase-base" fill="url(#linearGradient-6)" points="1.70086051 1.678826 86.7438859 1.678826 67.8454358 55.4012579 20.5993106 55.4012579"></polygon>
                <path d="M5.4,0 L81.3438859,0 C84.3262235,-5.47846538e-16 86.7438859,2.41766235 86.7438859,5.4 L86.7438859,11.38826 C86.7438859,14.3705976 84.3262235,16.78826 81.3438859,16.78826 L5.4,16.78826 C2.41766235,16.78826 5.69430154e-15,14.3705976 5.32907052e-15,11.38826 L0,5.4 C-3.65231026e-16,2.41766235 2.41766235,5.47846538e-16 5.4,0 Z" id="Vase-base" fill="url(#linearGradient-28)"></path>
            </g>
        </g>
    </g>
</svg>