<?xml version="1.0" encoding="utf-8"?>
<!-- Svg Vector Icons : http://www.onlinewebfonts.com/icon -->
<!DOCTYPE svg PUBLIC "-//W3C//DTD SVG 1.1//EN" "http://www.w3.org/Graphics/SVG/1.1/DTD/svg11.dtd">
<svg version="1.1" xmlns="http://www.w3.org/2000/svg" xmlns:xlink="http://www.w3.org/1999/xlink" x="0px" y="0px" viewBox="0 0 1000 1000" enable-background="new 0 0 1000 1000" xml:space="preserve">
<metadata> Svg Vector Icons : http://www.onlinewebfonts.com/icon </metadata>
<g><path d="M337.8,113.2c12.1,0,22.5,4.4,31.3,13.1s13.2,19.2,13.2,31.5c0,12.3-4.4,22.9-13.2,31.7L161.7,396.8h427.4c54.3,0,106.2,10.6,155.7,31.7c49.5,21.1,92.2,49.6,127.9,85.4c35.7,35.8,64.2,78.5,85.4,127.9c21.2,49.4,31.8,101.4,31.8,155.9v44.5c0,12.3-4.3,22.8-13.1,31.5c-8.7,8.7-19.2,13.1-31.5,13.1c-12.1,0-22.5-4.4-31.3-13.2c-8.8-8.8-13.2-19.3-13.2-31.3v-44.5c0-42.2-8.2-82.6-24.7-121.1c-16.5-38.5-38.6-71.7-66.5-99.5s-61-50-99.5-66.5c-38.5-16.5-78.9-24.7-121.1-24.7H161.7l207.4,207.8c8.8,8.8,13.2,19.3,13.2,31.3c0,12.3-4.4,22.9-13.1,31.7c-8.7,8.8-19.2,13.2-31.5,13.2c-12.3,0-22.9-4.4-31.7-13.2L22.9,473c-8.6-8.6-12.9-19.1-12.9-31.7c0-12.3,4.3-22.7,12.9-31.3l283.3-283.6C315,117.6,325.5,113.2,337.8,113.2L337.8,113.2z"/></g>
</svg>