<?xml version="1.0" encoding="UTF-8"?>
<svg width="1440px" height="1024px" viewBox="0 0 1440 1024" version="1.1" xmlns="http://www.w3.org/2000/svg" xmlns:xlink="http://www.w3.org/1999/xlink">
    <!-- Generator: Sketch 52 (66869) - http://www.bohemiancoding.com/sketch -->
    <title>COOPERATION@2x</title>
    <desc>Created with Sketch.</desc>
    <defs>
        <linearGradient x1="50%" y1="0%" x2="50%" y2="100%" id="linearGradient-1">
            <stop stop-color="#FAFBFF" stop-opacity="0" offset="0%"></stop>
            <stop stop-color="#F2F5FF" offset="52.0756634%"></stop>
            <stop stop-color="#F2F5FF" stop-opacity="0" offset="100%"></stop>
        </linearGradient>
        <linearGradient x1="50%" y1="-10.8772052%" x2="50%" y2="100%" id="linearGradient-2">
            <stop stop-color="#FFE579" offset="0%"></stop>
            <stop stop-color="#FEB755" offset="100%"></stop>
        </linearGradient>
        <linearGradient x1="51.9515966%" y1="-8.25550815%" x2="83.01394%" y2="244.669285%" id="linearGradient-3">
            <stop stop-color="#F7FAFF" offset="0%"></stop>
            <stop stop-color="#C2DCFF" offset="100%"></stop>
        </linearGradient>
        <linearGradient x1="51.9515966%" y1="-8.25550815%" x2="39.2948805%" y2="156.336962%" id="linearGradient-4">
            <stop stop-color="#F7FAFF" offset="0%"></stop>
            <stop stop-color="#6B9AD9" offset="100%"></stop>
        </linearGradient>
        <linearGradient x1="140.583572%" y1="-6.48307506%" x2="40.9002827%" y2="111.115765%" id="linearGradient-5">
            <stop stop-color="#E5EDFF" offset="0%"></stop>
            <stop stop-color="#6B9AD9" offset="100%"></stop>
        </linearGradient>
        <linearGradient x1="13.1828286%" y1="63.0352757%" x2="68.8791203%" y2="57.7365372%" id="linearGradient-6">
            <stop stop-color="#925948" offset="0%"></stop>
            <stop stop-color="#B06C57" offset="100%"></stop>
        </linearGradient>
        <linearGradient x1="60.7312459%" y1="0%" x2="52.0812714%" y2="50%" id="linearGradient-7">
            <stop stop-color="#3485F7" offset="0%"></stop>
            <stop stop-color="#1A57CF" offset="100%"></stop>
        </linearGradient>
        <linearGradient x1="107.254377%" y1="-120.462206%" x2="38.2696203%" y2="-120.462203%" id="linearGradient-8">
            <stop stop-color="#FAD0BA" offset="0%"></stop>
            <stop stop-color="#F2A384" offset="100%"></stop>
        </linearGradient>
        <linearGradient x1="50%" y1="32.1187137%" x2="67.2859088%" y2="115.977968%" id="linearGradient-9">
            <stop stop-color="#84F0A8" offset="0%"></stop>
            <stop stop-color="#48B676" offset="100%"></stop>
        </linearGradient>
        <linearGradient x1="81.1524795%" y1="-76.8307837%" x2="-15.9720788%" y2="87.7110162%" id="linearGradient-10">
            <stop stop-color="#F7FAFF" offset="0%"></stop>
            <stop stop-color="#6B9AD9" offset="100%"></stop>
        </linearGradient>
        <linearGradient x1="51.9515966%" y1="-8.25550815%" x2="39.2948805%" y2="156.336962%" id="linearGradient-11">
            <stop stop-color="#F7FAFF" offset="0%"></stop>
            <stop stop-color="#C2DCFF" offset="100%"></stop>
        </linearGradient>
        <linearGradient x1="45.8146591%" y1="15.1595137%" x2="75.9412525%" y2="70.6858623%" id="linearGradient-12">
            <stop stop-color="#F59BA9" offset="0%"></stop>
            <stop stop-color="#F25267" offset="100%"></stop>
        </linearGradient>
        <linearGradient x1="140.583572%" y1="-6.48307506%" x2="40.9002827%" y2="111.115765%" id="linearGradient-13">
            <stop stop-color="#B3C2DD" offset="0%"></stop>
            <stop stop-color="#708AC4" offset="100%"></stop>
        </linearGradient>
        <linearGradient x1="46.1954858%" y1="-8.4964826%" x2="45.0509912%" y2="156.577937%" id="linearGradient-14">
            <stop stop-color="#F7FAFF" offset="0%"></stop>
            <stop stop-color="#6B9AD9" offset="100%"></stop>
        </linearGradient>
    </defs>
    <g id="COOPERATION" stroke="none" stroke-width="1" fill="none" fill-rule="evenodd">
        <circle id="Background" fill="#E2EBFC" opacity="0.300000012" cx="1003.85639" cy="394.479401" r="247"></circle>
        <circle id="Background" fill="#E2EBFC" opacity="0.200000003" cx="435.758792" cy="556.348771" r="247"></circle>
        <g id="Background" transform="translate(261.000000, 73.008264)" fill="url(#linearGradient-1)" fill-rule="nonzero">
            <polygon id="Background-base" points="112.56267 12.5068871 117.56267 12.5068871 117.56267 767.375806 112.56267 767.375806"></polygon>
            <polygon id="Background-base" points="0.00136239782 37.5206612 5.0013624 37.5206612 5.0013624 692.334484 0.00136239782 692.334484"></polygon>
            <polygon id="Background-base" points="212.617166 25.0137741 217.617166 25.0137741 217.617166 817.403355 212.617166 817.403355"></polygon>
            <polygon id="Background-base" points="312.671662 50.0275482 317.671662 50.0275482 317.671662 792.389581 312.671662 792.389581"></polygon>
            <polygon id="Background-base" points="412.726158 25.0137741 417.726158 25.0137741 417.726158 767.375806 412.726158 767.375806"></polygon>
            <polygon id="Background-base" points="512.780654 12.5068871 517.780654 12.5068871 517.780654 767.375806 512.780654 767.375806"></polygon>
            <polygon id="Background-base" points="612.83515 12.5068871 617.83515 12.5068871 617.83515 804.896468 612.83515 804.896468"></polygon>
            <polygon id="Background-base" points="712.889646 0 717.889646 0 717.889646 892.444677 712.889646 892.444677"></polygon>
            <polygon id="Background-base" points="812.944142 0 817.944142 0 817.944142 842.417129 812.944142 842.417129"></polygon>
            <polygon id="Background-base" points="912.998638 0 917.998638 0 917.998638 779.882693 912.998638 779.882693"></polygon>
        </g>
        <g id="Document" transform="translate(623.446866, 472.977961)" fill-rule="nonzero">
            <path d="M1.97057911,35.7486579 L134.860391,0.140940134 C136.194056,-0.216414395 137.564898,0.575041829 137.922253,1.90870709 L183.564956,172.249594 C183.92231,173.583259 183.130854,174.954101 181.797189,175.311456 L48.9073773,210.919173 C47.573712,211.276528 46.2028696,210.485072 45.8455151,209.151406 L0.202812157,38.81052 C-0.154542372,37.4768548 0.636913851,36.1060124 1.97057911,35.7486579 Z" id="Document-base" fill="url(#linearGradient-2)"></path>
            <path d="M17.3764191,49.7480574 L81.4038785,32.5919514 L83.3460908,39.8403865 L19.3186315,56.9964925 L17.3764191,49.7480574 Z M34.6362737,65.840168 L134.905691,38.9730586 L136.847903,46.2214937 L36.578486,73.0886032 L34.6362737,65.840168 Z M101.953443,172.104127 L129.738944,164.659024 L131.681156,171.907459 L103.895655,179.352562 L101.953443,172.104127 Z" id="Shape" fill="#FFFFFF"></path>
        </g>
        <g id="Document" transform="translate(603.435967, 514.250689)" fill-rule="nonzero">
            <path d="M0.914761297,89.0404571 L106.305361,0.607244048 C107.363047,-0.280260438 108.939936,-0.142300528 109.827441,0.915386131 L223.182947,136.007218 C224.070452,137.064905 223.932492,138.641794 222.874805,139.529298 L117.484206,227.962511 C116.426519,228.850016 114.84963,228.712056 113.962126,227.654369 L0.606619214,92.5625373 C-0.280885272,91.5048506 -0.142925362,89.9279616 0.914761297,89.0404571 Z" id="Document-base" fill="url(#linearGradient-3)"></path>
            <polygon id="Document-base" fill="#B7C8FF" points="177.898473 146.248017 199.934253 127.757802 204.757816 133.506301 182.722036 151.996516"></polygon>
            <polygon id="Document-base" fill="#FDC2C0" points="149.156152 170.365833 171.191932 151.875618 176.015495 157.624117 153.979715 176.114332"></polygon>
            <polygon id="Document-base" fill="#B4CCED" points="20.79375 95.2175379 71.5718513 52.6096519 76.3954145 58.3581507 25.6173132 100.966037"></polygon>
            <path d="M43.2372819,102.507524 L122.757705,35.7819663 L127.581268,41.530465 L48.0608451,108.256022 L43.2372819,102.507524 Z M46.5192661,125.876102 L135.620463,51.1113205 L140.444026,56.8598193 L51.3428294,131.6246 L46.5192661,125.876102 Z M59.3820242,141.205552 L100.579352,106.63689 L105.402915,112.385389 L64.2055874,146.954051 L59.3820242,141.205552 Z M81.8255561,148.495514 L161.345979,81.7699566 L166.169542,87.5184554 L86.6491193,154.244013 L81.8255561,148.495514 Z M85.1075403,171.864092 L174.208737,97.0993109 L179.0323,102.84781 L89.9311035,177.612591 L85.1075403,171.864092 Z M97.9702983,187.193495 L158.329173,136.546385 L163.152737,142.294884 L102.793862,192.941993 L97.9702983,187.193495 Z" id="Shape" fill="#75A1DC"></path>
        </g>
        <g id="Coffee" transform="translate(841.316076, 637.068871)" fill-rule="nonzero">
            <ellipse id="Coffee-base" fill="url(#linearGradient-4)" transform="translate(57.531335, 57.531680) rotate(-180.000000) translate(-57.531335, -57.531680) " cx="57.5313351" cy="57.5316804" rx="57.5313351" ry="57.5316804"></ellipse>
            <path d="M58.7820163,121.316804 C55.3283556,121.316804 52.5286104,118.517059 52.5286104,115.063398 L52.5286104,92.5509642 L65.0354223,92.5509642 L65.0354223,115.063398 C65.0354223,118.517059 62.2356771,121.316804 58.7820163,121.316804 Z" id="Coffee-base" fill="url(#linearGradient-5)"></path>
            <ellipse id="Coffee-base" fill="url(#linearGradient-5)" transform="translate(57.531335, 56.280992) rotate(-180.000000) translate(-57.531335, -56.280992) " cx="57.5313351" cy="56.2809917" rx="38.7711172" ry="38.7713499"></ellipse>
            <ellipse id="Coffee-base" fill="#7D95C9" style="mix-blend-mode: multiply;" transform="translate(57.531335, 56.280992) rotate(-180.000000) translate(-57.531335, -56.280992) " cx="57.5313351" cy="56.2809917" rx="31.26703" ry="31.2672176"></ellipse>
        </g>
        <g id="Hand-man" transform="translate(634.934605, 72.000000)" fill-rule="nonzero">
            <path d="M79.867117,297.971402 C82.7828873,325.683526 94.4046313,355.756386 114.732349,388.189981 C124.18145,397.409986 130.212512,407.679107 132.825532,418.997344 C136.581336,435.265519 156.264972,439.700926 152.268296,445.684479 C151.462958,446.890177 147.312824,448.727673 141.398758,448.193909 C136.003548,447.706974 126.515396,434.744891 120.588141,433.53525 C118.033454,433.013887 117.177468,441.506615 116.686321,446.968154 C116.317045,451.074493 117.081352,459.163961 117.531487,461.113712 C117.981623,463.063463 132.388526,485.941039 132.825442,487.83353 C124.986915,493.843301 90.3257379,461.02164 86.1949483,452.841449 C81.2699263,443.088441 75.6962621,420.571382 69.473956,385.29027 C45.3166696,341.752926 34.0119743,313.481876 35.5598701,300.477122 C38.4346069,276.324819 57.2845614,274.901322 79.867117,297.971402 Z" id="Hand" fill="url(#linearGradient-6)"></path>
            <path d="M160.47543,0.0750944398 C120.545127,70.7530888 52.2442669,186.303379 86.5957421,303.864844 C73.5280234,302.820615 64.2381809,303.075723 58.7262145,304.630169 C52.6432131,306.345654 44.5406039,310.995443 34.4183871,318.579535 C-5.56324611,188.37659 -10.1167813,88.4131812 20.7577816,18.6893068 C92.5103421,2.1239229 112.125074,11.2376536 160.47543,0.0750944398 Z" id="Sleeve" fill="url(#linearGradient-7)"></path>
            <ellipse id="Sleeve-buttons" fill="#D2D9FF" transform="translate(65.890510, 281.205577) scale(-1, -1) rotate(-13.000000) translate(-65.890510, -281.205577) " cx="65.8905103" cy="281.205577" rx="6.87874659" ry="6.87878788"></ellipse>
            <ellipse id="Sleeve-buttons" fill="#D2D9FF" transform="translate(60.545011, 258.051538) scale(-1, -1) rotate(-13.000000) translate(-60.545011, -258.051538) " cx="60.5450113" cy="258.051538" rx="6.87874659" ry="6.87878788"></ellipse>
        </g>
        <g id="Hand-girl" transform="translate(636.204360, 456.969697)" fill-rule="nonzero">
            <g id="Group" transform="translate(87.547684, 0.000000)">
                <ellipse id="-bracelet-base" fill="url(#linearGradient-2)" cx="30.6416894" cy="115.688705" rx="6.87874659" ry="6.87878788"></ellipse>
                <ellipse id="-bracelet-base" fill="url(#linearGradient-2)" cx="70.6634877" cy="114.438017" rx="6.87874659" ry="6.87878788"></ellipse>
                <path d="M37.9171298,170.820441 C40.8354963,147.030433 36.9140795,119.577322 26.1528794,88.4611069 C20.0174941,78.9053866 16.9498014,69.1317583 16.9498014,59.1402218 C16.9498014,44.7789693 -3.72352312,25.4454637 0.783909929,21.2039135 C1.69216687,20.3492325 5.52598076,19.6122296 10.3793429,21.2039135 C14.8069071,22.6559549 33.1834914,49.5225294 37.9171298,51.6832248 C39.1383029,52.240636 41.9882398,57.7804436 49.8810301,61.2333079 C55.174832,63.549191 62.9338502,63.0327588 63.5233466,61.2333079 C64.6273888,57.8631942 48.0039535,44.7491075 44.9540335,38.5390353 C42.8530071,34.2610459 39.1504193,25.3077958 34.5404268,14.9487969 C32.4584003,10.2703271 22.5181059,1.93137791 24.9238172,0.836185172 C32.656219,-2.68396724 65.4609209,30.8838509 67.3401692,38.5390353 C69.5807431,47.6660925 68.3084689,68.0359381 63.5233466,99.648572 C75.3456503,140.811952 79.3499831,166.693601 75.536345,177.293517 C68.4536937,196.979577 52.3799092,194.525289 37.9171298,170.820441 Z" id="Hand" fill="url(#linearGradient-8)"></path>
                <ellipse id="-bracelet-base" fill="url(#linearGradient-2)" cx="34.393733" cy="120.69146" rx="6.87874659" ry="6.87878788"></ellipse>
                <ellipse id="-bracelet-base" fill="url(#linearGradient-2)" cx="44.3991826" cy="125.694215" rx="6.87874659" ry="6.87878788"></ellipse>
                <ellipse id="-bracelet-base" fill="url(#linearGradient-2)" cx="55.6553134" cy="124.443526" rx="6.87874659" ry="6.87878788"></ellipse>
                <ellipse id="-bracelet-base" fill="url(#linearGradient-2)" cx="66.9114441" cy="120.69146" rx="6.87874659" ry="6.87878788"></ellipse>
            </g>
            <path d="M0.265503958,404.893362 C47.4072198,353.383619 127.009081,269.755434 120.966075,164.579145 C131.716218,167.982838 139.551496,169.566549 144.471908,169.330279 C149.902071,169.069531 157.592656,166.740293 167.543663,162.342564 C175.859326,279.203208 160.333463,363.864684 120.966075,416.326991 C57.6242023,416.326991 42.9483303,404.893362 0.265503958,404.893362 Z" id="Sleeve" fill="url(#linearGradient-9)"></path>
            <path d="M35.7298112,407.745461 L16.6747071,386.929805 C17.5115606,386.004695 18.3533341,385.07181 19.1995576,384.131191 L40.5786743,407.485581 L75.9707465,378.405802 L49.562522,349.557651 L47.1470587,351.542308 C50.705408,347.131582 54.2549499,342.603788 57.765421,337.961637 L80.6999363,319.117568 L75.2651161,313.18061 C75.9718356,312.100747 76.6743629,311.015817 77.3723978,309.925847 L83.6030856,316.732204 L113.437975,292.218466 L97.2494326,274.534221 C97.8346982,273.317498 98.4120388,272.095808 98.9811345,270.869178 L116.341124,289.833103 L146.167722,265.326176 L123.206512,240.243518 L103.567006,260.434488 C104.805443,257.449652 105.992093,254.437291 107.122643,251.397792 L120.668766,237.471303 L113.94612,230.127534 C114.333564,228.688884 114.70735,227.244797 115.067071,225.79531 L123.289287,234.777199 L147.153026,210.243382 L128.433993,189.794847 L119.986731,198.682792 C120.217361,196.665121 120.418611,194.638217 120.589516,192.602201 L125.894371,187.020583 L121.200901,181.89347 C121.255617,180.080739 121.285719,178.261119 121.290557,176.434668 L128.485457,184.294324 L142.697531,169.340823 C143.326002,169.360417 143.917461,169.356903 144.471908,169.330279 C145.649118,169.273751 146.932563,169.120008 148.322244,168.86905 L131.025078,187.068588 L149.773547,207.549278 L168.999228,187.783753 C169.073109,189.515066 169.141303,191.238698 169.203808,192.954648 L152.311293,210.321493 L169.66372,229.277157 C169.640382,231.105818 169.609649,232.924494 169.571523,234.733183 L149.690772,213.015597 L125.827033,237.549414 L149.070872,262.940813 L169.218063,246.38694 C169.150839,248.075641 169.076851,249.755146 168.996098,251.425514 L151.607982,265.712334 L166.640086,282.133295 C166.462119,283.793123 166.276435,285.442532 166.083037,287.08152 L148.704833,268.097697 L118.878234,292.604624 L145.286459,321.452775 L163.329683,306.627619 C163.015956,308.529198 162.690676,310.415173 162.353843,312.285544 L147.823569,324.224296 L157.544073,334.842903 C157.18127,336.30092 156.810358,337.747986 156.431338,339.184101 L144.92042,326.609659 L115.085531,351.123397 L138.96226,377.206161 L145.743165,371.634653 C144.721607,374.16364 143.667404,376.648538 142.580556,379.089348 L141.49937,379.977682 L141.956813,380.477389 C141.394437,381.717507 140.823518,382.946086 140.244054,384.163125 L138.596221,382.363045 L107.824845,407.646244 L115.747129,416.300489 C113.988396,416.28241 112.26875,416.255263 110.586323,416.219604 L104.921696,410.031607 L97.9422609,415.766237 C96.0533281,415.669252 94.2156914,415.561083 92.4256065,415.442849 L102.384586,407.260086 L78.5078569,381.177323 L44.4384025,409.170378 C41.5231941,408.674519 38.6385342,408.194118 35.7298161,407.745462 L35.7298112,407.745461 Z M158.221976,166.09509 L168.488012,177.309633 C168.596158,179.28186 168.697179,181.244464 168.791073,183.197443 L154.317252,167.386341 C155.559832,167.009909 156.861406,166.579492 158.221976,166.09509 Z M105.287735,404.874723 L136.059111,379.591524 L112.182382,353.50876 L81.4110062,378.791959 L105.287735,404.874723 Z M142.38331,323.838138 L115.975085,294.989987 L86.140196,319.503725 L112.54842,348.351876 L142.38331,323.838138 Z M109.645271,350.737239 L83.2370467,321.889088 L52.4656713,347.172288 L78.8738958,376.020439 L109.645271,350.737239 Z" id="Texture" fill="#84F0A8"></path>
            <path d="M166.675216,162.723612 C166.96276,162.59837 167.252242,162.471354 167.543663,162.342564 C175.859326,279.203208 160.333463,363.864684 120.966075,416.326991 C113.49336,416.326991 106.697975,416.167859 100.454027,415.887141 C149.780989,358.900406 171.854718,274.512563 166.675216,162.723612 Z" id="Shadow" fill="url(#linearGradient-9)" style="mix-blend-mode: multiply;" opacity="0.200000003"></path>
        </g>
        <g id="Macbook" transform="translate(289.514986, 539.013774)">
            <path d="M198.234769,5.18218052 L365.849262,169.87008 L366.749863,171.977639 C367.552936,173.856966 367.132137,176.035816 365.687015,177.480946 L258.41799,284.750615 C256.464305,286.704312 253.296755,286.704312 251.343069,284.750615 L84.1261234,117.532665 C82.5882788,115.994811 82.220173,113.639564 83.2154327,111.705802 L84.571692,109.070628 L191.237871,5.16709399 C193.1864,3.26903149 196.294442,3.27573297 198.234769,5.18218052 Z" id="Macbook-base" fill="url(#linearGradient-10)" fill-rule="nonzero"></path>
            <path d="M198.279573,1.53605407 L364.544076,167.800557 C366.496697,169.753178 366.496697,172.919003 364.544076,174.871625 L258.415724,280.999976 C256.463103,282.952598 253.297278,282.952598 251.344656,280.999976 L85.0801533,114.735474 C83.1275319,112.782852 83.1275319,109.617027 85.0801533,107.664406 L191.208505,1.53605407 C193.161126,-0.416567391 196.326951,-0.416567391 198.279573,1.53605407 Z" id="Macbook-base" fill="url(#linearGradient-4)" fill-rule="nonzero"></path>
            <path d="M166.068442,47.8114867 L316.524062,198.267106 C318.475097,200.218141 318.476914,203.380833 316.528123,205.334108 L258.936166,263.058596 C256.98579,265.01346 253.819967,265.017099 251.865103,263.066723 L251.861037,263.062662 L101.405417,112.607042 C99.4543827,110.656007 99.4525653,107.493316 101.401357,105.54004 L158.993313,47.8155524 C160.94369,45.8606881 164.109512,45.8570497 166.064377,47.8074258 L166.068442,47.8114867 Z" id="Macbook-base" fill="url(#linearGradient-4)" fill-rule="nonzero" style="mix-blend-mode: multiply;" opacity="0.100000001"></path>
            <path d="M182.027762,73.1339151 L173.688179,81.4363713 C173.228039,81.894463 172.492942,81.9012768 172.046348,81.4516452 L164.640672,73.9955966 C164.194054,73.5459405 164.205987,72.8090988 164.665156,72.3519738 L173.004738,64.0495176 C173.464878,63.5914259 174.199976,63.5846121 174.64657,64.0342436 L182.052245,71.4902923 C182.498864,71.9399484 182.486931,72.67679 182.027762,73.1339151 Z M260.104977,249.694117 C259.644516,250.152529 258.909425,250.159871 258.462571,249.709978 L250.92221,242.118327 C250.475595,241.668675 250.487205,240.93216 250.947282,240.474132 L258.173934,233.279652 C258.634396,232.82124 259.369487,232.813898 259.816341,233.263791 L267.356702,240.855442 C267.803316,241.305094 267.791706,242.041608 267.331629,242.499637 L260.104977,249.694117 Z M250.004578,239.525016 C249.544116,239.983427 248.809025,239.990769 248.362171,239.540876 L240.82181,231.949226 C240.375196,231.499573 240.386806,230.763059 240.846883,230.30503 L248.073535,223.11055 C248.533996,222.652138 249.269087,222.644796 249.715941,223.09469 L257.256302,230.68634 C257.702917,231.135992 257.691307,231.872507 257.23123,232.330535 L250.004578,239.525016 Z M254.493223,223.730614 C254.032761,224.189025 253.29767,224.196367 252.850816,223.746474 L245.310455,216.154824 C244.86384,215.705171 244.87545,214.968657 245.335527,214.510628 L252.562179,207.316148 C253.022641,206.857736 253.757732,206.850394 254.204586,207.300288 L261.744947,214.891938 C262.191561,215.34159 262.179951,216.078105 261.719875,216.536133 L254.493223,223.730614 Z M244.392823,213.561512 C243.932362,214.019924 243.197271,214.027266 242.750416,213.577372 L235.210055,205.985722 C234.763441,205.53607 234.775051,204.799555 235.235128,204.341526 L242.46178,197.147046 C242.922241,196.688634 243.657332,196.681292 244.104186,197.131186 L251.644547,204.722836 C252.091162,205.172489 252.079552,205.909003 251.619475,206.367032 L244.392823,213.561512 Z M234.292424,203.39241 C233.831962,203.850822 233.096871,203.858164 232.650017,203.40827 L225.109656,195.81662 C224.663041,195.366968 224.674651,194.630453 225.134728,194.172425 L232.36138,186.977944 C232.821842,186.519533 233.556933,186.512191 234.003787,186.962084 L241.544148,194.553734 C241.990763,195.003387 241.979152,195.739901 241.519076,196.19793 L234.292424,203.39241 Z M224.192024,193.223309 C223.731563,193.68172 222.996472,193.689062 222.549618,193.239169 L215.009257,185.647519 C214.562642,185.197866 214.574252,184.461352 215.034329,184.003323 L222.260981,176.808843 C222.721442,176.350431 223.456533,176.343089 223.903387,176.792983 L231.443749,184.384633 C231.890363,184.834285 231.878753,185.5708 231.418676,186.028828 L224.192024,193.223309 Z M214.091625,183.054207 C213.631163,183.512619 212.896072,183.519961 212.449218,183.070067 L204.908857,175.478417 C204.462243,175.028765 204.473853,174.29225 204.933929,173.834221 L212.160581,166.639741 C212.621043,166.181329 213.356134,166.173987 213.802988,166.623881 L221.343349,174.215531 C221.789964,174.665183 221.778354,175.401698 221.318277,175.859727 L214.091625,183.054207 Z M203.991225,172.885105 C203.530764,173.343517 202.795673,173.350859 202.348819,172.900965 L194.808458,165.309315 C194.361843,164.859663 194.373453,164.123148 194.83353,163.66512 L202.060182,156.470639 C202.520644,156.012228 203.255735,156.004886 203.702589,156.454779 L211.24295,164.046429 C211.689564,164.496082 211.677954,165.232596 211.217877,165.690625 L203.991225,172.885105 Z M193.890826,162.716004 C193.430364,163.174415 192.695273,163.181757 192.248419,162.731864 L184.708058,155.140214 C184.261444,154.690561 184.273054,153.954047 184.733131,153.496018 L191.959783,146.301538 C192.420244,145.843126 193.155335,145.835784 193.602189,146.285678 L201.14255,153.877328 C201.589165,154.32698 201.577555,155.063495 201.117478,155.521523 L193.890826,162.716004 Z M183.790427,152.546902 C183.329965,153.005314 182.594874,153.012656 182.14802,152.562762 L174.607659,144.971112 C174.161044,144.521459 174.172654,143.784945 174.632731,143.326916 L181.859383,136.132436 C182.319845,135.674024 183.054936,135.666682 183.50179,136.116576 L191.042151,143.708226 C191.488765,144.157878 191.477155,144.894393 191.017079,145.352422 L183.790427,152.546902 Z M239.904179,229.355914 C239.443717,229.814326 238.708626,229.821668 238.261772,229.371774 L230.721411,221.780124 C230.274796,221.330472 230.286406,220.593957 230.746483,220.135928 L237.973135,212.941448 C238.433597,212.483036 239.168688,212.475694 239.615542,212.925588 L247.155903,220.517238 C247.602518,220.966891 247.590907,221.703405 247.130831,222.161434 L239.904179,229.355914 Z M229.803779,219.186812 C229.343318,219.645224 228.608227,219.652566 228.161373,219.202672 L220.621012,211.611022 C220.174397,211.16137 220.186007,210.424855 220.646084,209.966827 L227.872736,202.772346 C228.333197,202.313935 229.068288,202.306593 229.515142,202.756486 L237.055504,210.348137 C237.502118,210.797789 237.490508,211.534303 237.030431,211.992332 L229.803779,219.186812 Z M219.70338,209.017711 C219.242918,209.476122 218.507827,209.483464 218.060973,209.033571 L210.520612,201.441921 C210.073998,200.992268 210.085608,200.255754 210.545684,199.797725 L217.772336,192.603245 C218.232798,192.144833 218.967889,192.137491 219.414743,192.587385 L226.955104,200.179035 C227.401719,200.628687 227.390109,201.365202 226.930032,201.82323 L219.70338,209.017711 Z M209.60298,198.848609 C209.142519,199.307021 208.407428,199.314363 207.960574,198.864469 L200.420213,191.272819 C199.973598,190.823167 199.985208,190.086652 200.445285,189.628623 L207.671937,182.434143 C208.132399,181.975731 208.86749,181.968389 209.314344,182.418283 L216.854705,190.009933 C217.301319,190.459586 217.289709,191.1961 216.829632,191.654129 L209.60298,198.848609 Z M199.502581,188.679507 C199.042119,189.137919 198.307028,189.145261 197.860174,188.695367 L190.319813,181.103717 C189.873199,180.654065 189.884809,179.91755 190.344886,179.459522 L197.571538,172.265041 C198.031999,171.80663 198.76709,171.799288 199.213944,172.249181 L206.754305,179.840831 C207.20092,180.290484 207.18931,181.026998 206.729233,181.485027 L199.502581,188.679507 Z M189.402182,178.510406 C188.94172,178.968817 188.206629,178.976159 187.759775,178.526266 L180.219414,170.934616 C179.772799,170.484963 179.784409,169.748449 180.244486,169.29042 L187.471138,162.09594 C187.9316,161.637528 188.666691,161.630186 189.113545,162.08008 L196.653906,169.67173 C197.10052,170.121382 197.08891,170.857897 196.628834,171.315925 L189.402182,178.510406 Z M179.301782,168.341304 C178.841321,168.799716 178.10623,168.807058 177.659376,168.357164 L170.119014,160.765514 C169.6724,160.315861 169.68401,159.579347 170.144087,159.121318 L177.370739,151.926838 C177.8312,151.468426 178.566291,151.461084 179.013145,151.910978 L186.553507,159.502628 C187.000121,159.95228 186.988511,160.688795 186.528434,161.146824 L179.301782,168.341304 Z M169.201383,158.172202 C168.740921,158.630614 168.00583,158.637956 167.558976,158.188062 L160.018615,150.596412 C159.572001,150.14676 159.583611,149.410245 160.043687,148.952217 L167.270339,141.757736 C167.730801,141.299325 168.465892,141.291983 168.912746,141.741876 L176.453107,149.333526 C176.899722,149.783179 176.888112,150.519693 176.428035,150.977722 L169.201383,158.172202 Z M270.249846,239.594412 C269.789384,240.052824 269.054159,240.060031 268.608604,239.611445 L255.544362,226.458341 C255.09839,226.009336 255.110522,225.273346 255.570598,224.815318 L262.79725,217.620838 C263.257712,217.162426 263.992937,217.155219 264.438493,217.603805 L277.502734,230.756909 C277.948706,231.205914 277.936574,231.941903 277.476498,232.399932 L270.249846,239.594412 Z M253.016893,256.750647 C252.556748,257.208743 251.82139,257.215302 251.375908,256.766789 L243.564507,248.902256 C243.118361,248.453075 243.130683,247.716611 243.589854,247.259485 L247.760296,243.107609 C248.22044,242.649513 248.955799,242.642955 249.401281,243.091467 L257.212682,250.956 C257.658828,251.405181 257.646505,252.141645 257.187335,252.598771 L253.016893,256.750647 Z M242.512478,246.174781 C242.052333,246.632877 241.316975,246.639436 240.871493,246.190924 L233.060092,238.32639 C232.613946,237.877209 232.626268,237.140746 233.085438,236.68362 L237.25588,232.531744 C237.716025,232.073647 238.451383,232.067089 238.896865,232.515601 L246.708266,240.380135 C247.154412,240.829315 247.14209,241.565779 246.68292,242.022905 L242.512478,246.174781 Z M232.008062,235.598915 C231.547918,236.057012 230.812559,236.06357 230.367077,235.615058 L222.555677,227.750525 C222.10953,227.301344 222.121853,226.56488 222.581023,226.107754 L226.751465,221.955878 C227.21161,221.497782 227.946968,221.491223 228.39245,221.939735 L236.203851,229.804269 C236.649997,230.25345 236.637675,230.989913 236.178504,231.44704 L232.008062,235.598915 Z M221.503647,225.02305 C221.043502,225.481146 220.308144,225.487705 219.862662,225.039192 L212.051261,217.174659 C211.605115,216.725478 211.617437,215.989014 212.076608,215.531888 L216.247049,211.380012 C216.707194,210.921916 217.442552,210.915357 217.888035,211.36387 L225.699435,219.228403 C226.145582,219.677584 226.133259,220.414048 225.674089,220.871174 L221.503647,225.02305 Z M210.999232,214.447184 C210.539087,214.90528 209.803729,214.911839 209.358247,214.463326 L201.546846,206.598793 C201.100699,206.149612 201.113022,205.413148 201.572192,204.956022 L205.742634,200.804146 C206.202779,200.34605 206.938137,200.339492 207.383619,200.788004 L215.19502,208.652537 C215.641166,209.101718 215.628844,209.838182 215.169674,210.295308 L210.999232,214.447184 Z M200.494816,203.871318 C200.034672,204.329414 199.299313,204.335973 198.853831,203.887461 L191.04243,196.022927 C190.596284,195.573746 190.608607,194.837283 191.067777,194.380156 L195.238219,190.228281 C195.698363,189.770184 196.433722,189.763626 196.879204,190.212138 L204.690605,198.076671 C205.136751,198.525852 205.124428,199.262316 204.665258,199.719442 L200.494816,203.871318 Z M189.990401,193.295452 C189.530256,193.753549 188.794898,193.760107 188.349416,193.311595 L180.538015,185.447062 C180.091869,184.997881 180.104191,184.261417 180.563362,183.804291 L184.733803,179.652415 C185.193948,179.194319 185.929306,179.18776 186.374788,179.636272 L194.186189,187.500806 C194.632336,187.949987 194.620013,188.68645 194.160843,189.143577 L189.990401,193.295452 Z M179.485986,182.719587 C179.025841,183.177683 178.290483,183.184242 177.845,182.735729 L170.0336,174.871196 C169.587453,174.422015 169.599776,173.685551 170.058946,173.228425 L174.229388,169.076549 C174.689533,168.618453 175.424891,168.611894 175.870373,169.060407 L183.681774,176.92494 C184.12792,177.374121 184.115598,178.110585 183.656427,178.567711 L179.485986,182.719587 Z M168.98157,172.143721 C168.521425,172.601817 167.786067,172.608376 167.340585,172.159863 L159.529184,164.29533 C159.083038,163.846149 159.09536,163.109685 159.554531,162.652559 L163.724973,158.500683 C164.185117,158.042587 164.920476,158.036028 165.365958,158.484541 L173.177358,166.349074 C173.623505,166.798255 173.611182,167.534719 173.152012,167.991845 L168.98157,172.143721 Z M158.477155,161.567855 C158.01701,162.025951 157.281652,162.03251 156.83617,161.583998 L149.024769,153.719464 C148.578623,153.270283 148.590945,152.53382 149.050115,152.076693 L153.220557,147.924818 C153.680702,147.466721 154.41606,147.460163 154.861542,147.908675 L162.672943,155.773208 C163.119089,156.222389 163.106767,156.958853 162.647597,157.415979 L158.477155,161.567855 Z M124.265406,92.6169959 L141.636678,75.3230575 C142.097277,74.8645094 142.83267,74.8572498 143.278741,75.306354 L148.530862,80.5942005 C148.97715,81.0435235 148.965819,81.7792287 148.50495,82.2380466 L139.194069,91.5074769 L140.674826,92.9983056 C141.12144,93.447958 141.10983,94.1844726 140.649754,94.6425011 L133.423102,101.836981 C132.96264,102.295393 132.227549,102.302735 131.780695,101.852842 L124.240334,94.2611914 C123.793719,93.811539 123.805329,93.0750245 124.265406,92.6169959 Z M181.680143,130.108687 C181.219682,130.567098 180.484591,130.57444 180.037737,130.124547 L172.497376,122.532897 C172.050761,122.083244 172.062371,121.34673 172.522448,120.888701 L179.7491,113.694221 C180.209562,113.235809 180.944653,113.228467 181.391507,113.678361 L188.931868,121.270011 C189.378482,121.719663 189.366872,122.456178 188.906795,122.914206 L181.680143,130.108687 Z M171.579744,119.939585 C171.119282,120.397997 170.384191,120.405339 169.937337,119.955445 L162.396976,112.363795 C161.950362,111.914143 161.961972,111.177628 162.422049,110.7196 L169.648701,103.525119 C170.109162,103.066707 170.844253,103.059366 171.291107,103.509259 L178.831468,111.100909 C179.278083,111.550562 179.266473,112.287076 178.806396,112.745105 L171.579744,119.939585 Z M161.479345,109.770483 C161.018883,110.228895 160.283792,110.236237 159.836938,109.786343 L152.296577,102.194693 C151.849962,101.745041 151.861572,101.008526 152.321649,100.550498 L159.548301,93.3560175 C160.008763,92.8976058 160.743854,92.8902638 161.190708,93.3401574 L168.731069,100.931808 C169.177683,101.38146 169.166073,102.117974 168.705997,102.576003 L161.479345,109.770483 Z M151.378945,99.6013817 C150.918484,100.059793 150.183393,100.067135 149.736539,99.6172418 L142.196178,92.0255916 C141.749563,91.5759393 141.761173,90.8394247 142.22125,90.3813961 L149.447902,83.1869158 C149.908363,82.7285041 150.643454,82.7211621 151.090308,83.1710557 L158.63067,90.7627058 C159.077284,91.2123582 159.065674,91.9488728 158.605597,92.4069013 L151.378945,99.6013817 Z M193.754895,101.638401 C193.29443,102.096816 192.559336,102.104161 192.112481,101.654267 L184.57212,94.0626172 C184.125506,93.6129648 184.137435,92.876133 184.597199,92.418415 L192.935604,84.117131 C193.39607,83.6587156 194.131164,83.6513707 194.578018,84.1012642 L202.118379,91.6929144 C202.564993,92.1425667 202.553065,92.8793985 202.0933,93.3371165 L193.754895,101.638401 Z M188.656855,86.4892085 C188.196715,86.9473001 187.461618,86.9541139 187.015024,86.5044824 L179.609348,79.0484338 C179.16273,78.5987776 179.174663,77.861936 179.633832,77.4048109 L182.970466,74.0830312 C183.430606,73.6249395 184.165703,73.6181257 184.612297,74.0677573 L192.017973,81.5238059 C192.464591,81.973462 192.452658,82.7103037 191.993489,83.1674287 L188.656855,86.4892085 Z M168.725401,66.4221811 C168.26526,66.8802728 167.530163,66.8870866 167.083569,66.4374551 L159.677894,58.9814064 C159.231275,58.5317503 159.243208,57.7949087 159.702377,57.3377836 L163.039011,54.0160039 C163.499151,53.5579122 164.234248,53.5510984 164.680842,54.0007299 L172.086518,61.4567786 C172.533136,61.9064347 172.521203,62.6432764 172.062034,63.1004014 L168.725401,66.4221811 Z M206.818078,114.790439 C206.357613,115.248854 205.623236,115.256921 205.176155,114.806799 L194.67203,104.231226 C194.225686,103.781846 194.237834,103.045235 194.697599,102.587517 L203.036004,94.2862327 C203.496469,93.8278173 204.230846,93.8197503 204.677927,94.2698727 L215.182052,104.845446 C215.628396,105.294826 215.616248,106.031437 215.156483,106.489155 L206.818078,114.790439 Z M166.372005,94.3828454 C165.911543,94.8412571 165.17667,94.8488184 164.730207,94.3993178 L144.529462,74.061169 C144.083183,73.6118547 144.095066,72.8756143 144.555142,72.4175857 L151.781794,65.2231054 C152.242256,64.7646937 152.977129,64.7571324 153.423593,65.206633 L173.624337,85.5447818 C174.070616,85.9940961 174.058734,86.7303365 173.598657,87.1883651 L166.372005,94.3828454 Z M186.572804,114.721049 C186.112342,115.17946 185.377251,115.186802 184.930397,114.736909 L177.390036,107.145259 C176.943422,106.695606 176.955032,105.959092 177.415108,105.501063 L184.64176,98.3065829 C185.102222,97.8481712 185.837313,97.8408292 186.284167,98.2907228 L193.824528,105.882373 C194.271143,106.332025 194.259533,107.06854 193.799456,107.526568 L186.572804,114.721049 Z M176.472404,104.551947 C176.011943,105.010359 175.276852,105.017701 174.829998,104.567807 L167.289637,96.9761571 C166.843022,96.5265047 166.854632,95.7899901 167.314709,95.3319615 L174.541361,88.1374812 C175.001823,87.6790695 175.736914,87.6717276 176.183768,88.1216211 L183.724129,95.7132712 C184.170743,96.1629236 184.159133,96.8994382 183.699056,97.3574668 L176.472404,104.551947 Z M173.690027,142.3778 C173.229566,142.836212 172.494475,142.843554 172.047621,142.39366 L164.50726,134.80201 C164.060645,134.352358 164.072255,133.615843 164.532332,133.157815 L171.758984,125.963334 C172.219445,125.504923 172.954536,125.497581 173.40139,125.947474 L180.941752,133.539124 C181.388366,133.988777 181.376756,134.725291 180.916679,135.18332 L173.690027,142.3778 Z M163.589628,132.208698 C163.129166,132.66711 162.394075,132.674452 161.947221,132.224559 L154.40686,124.632908 C153.960246,124.183256 153.971856,123.446742 154.431932,122.988713 L161.658584,115.794233 C162.119046,115.335821 162.854137,115.328479 163.300991,115.778372 L170.841352,123.370023 C171.287967,123.819675 171.276357,124.55619 170.81628,125.014218 L163.589628,132.208698 Z M153.489228,122.039597 C153.028767,122.498009 152.293676,122.50535 151.846822,122.055457 L144.306461,114.463807 C143.859846,114.014154 143.871456,113.27764 144.331533,112.819611 L151.558185,105.625131 C152.018647,105.166719 152.753738,105.159377 153.200592,105.609271 L160.740953,113.200921 C161.187567,113.650573 161.175957,114.387088 160.71588,114.845116 L153.489228,122.039597 Z M143.388829,111.870495 C142.928367,112.328907 142.193276,112.336249 141.746422,111.886355 L134.206061,104.294705 C133.759447,103.845053 133.771057,103.108538 134.231134,102.65051 L141.457786,95.4560293 C141.918247,94.9976176 142.653338,94.9902756 143.100192,95.4401691 L150.640553,103.031819 C151.087168,103.481472 151.075558,104.217986 150.615481,104.676015 L143.388829,111.870495 Z M159.100983,148.003101 C158.640522,148.461512 157.905431,148.468854 157.458577,148.018961 L149.918216,140.427311 C149.471601,139.977658 149.483211,139.241144 149.943288,138.783115 L157.16994,131.588635 C157.630402,131.130223 158.365493,131.122881 158.812347,131.572775 L166.352708,139.164425 C166.799322,139.614077 166.787712,140.350592 166.327635,140.80862 L159.100983,148.003101 Z M149.000584,137.833999 C148.540122,138.292411 147.805031,138.299753 147.358177,137.849859 L139.817816,130.258209 C139.371202,129.808556 139.382812,129.072042 139.842889,128.614013 L147.069541,121.419533 C147.530002,120.961121 148.265093,120.953779 148.711947,121.403673 L156.252308,128.995323 C156.698923,129.444975 156.687313,130.18149 156.227236,130.639519 L149.000584,137.833999 Z M138.900185,127.664897 C138.439723,128.123309 137.704632,128.130651 137.257778,127.680757 L129.717417,120.089107 C129.270802,119.639455 129.282412,118.90294 129.742489,118.444912 L136.969141,111.250431 C137.429603,110.79202 138.164694,110.784678 138.611548,111.234571 L146.151909,118.826221 C146.598523,119.275874 146.586913,120.012388 146.126837,120.470417 L138.900185,127.664897 Z M128.799785,117.495795 C128.339324,117.954207 127.604099,117.961414 127.158543,117.512828 L114.094301,104.359724 C113.64833,103.910719 113.660461,103.17473 114.120538,102.716701 L121.34719,95.5222207 C121.807652,95.063809 122.542876,95.0566017 122.988432,95.5051881 L136.052674,108.658292 C136.498645,109.107297 136.486514,109.843287 136.026437,110.301315 L128.799785,117.495795 Z M147.972739,150.991989 C147.512595,151.450086 146.777236,151.456644 146.331754,151.008132 L138.520353,143.143599 C138.074207,142.694418 138.08653,141.957954 138.5457,141.500828 L142.716142,137.348952 C143.176287,136.890856 143.911645,136.884297 144.357127,137.332809 L152.168528,145.197343 C152.614674,145.646524 152.602352,146.382987 152.143181,146.840114 L147.972739,150.991989 Z M137.468324,140.416124 C137.008179,140.87422 136.272821,140.880778 135.827339,140.432266 L128.015938,132.567733 C127.569792,132.118552 127.582114,131.382088 128.041285,130.924962 L132.211726,126.773086 C132.671871,126.31499 133.407229,126.308431 133.852712,126.756944 L141.664112,134.621477 C142.110259,135.070658 142.097936,135.807122 141.638766,136.264248 L137.468324,140.416124 Z M126.963909,129.840258 C126.503764,130.298354 125.768406,130.304913 125.322924,129.8564 L117.511523,121.991867 C117.065376,121.542686 117.077699,120.806222 117.536869,120.349096 L121.707311,116.19722 C122.167456,115.739124 122.902814,115.732565 123.348296,116.181078 L131.159697,124.045611 C131.605843,124.494792 131.593521,125.231256 131.13435,125.688382 L126.963909,129.840258 Z M116.459493,119.264392 C115.999348,119.722488 115.26399,119.729047 114.818508,119.280535 L107.007107,111.416001 C106.560961,110.96682 106.573283,110.230357 107.032454,109.77323 L111.202896,105.621355 C111.66304,105.163258 112.398399,105.1567 112.843881,105.605212 L120.655282,113.469745 C121.101428,113.918926 121.089105,114.65539 120.629935,115.112516 L116.459493,119.264392 Z M262.483339,211.4615 C262.022877,211.919912 261.287786,211.927254 260.840932,211.47736 L253.300571,203.88571 C252.853956,203.436058 252.865567,202.699543 253.325643,202.241515 L260.552295,195.047034 C261.012757,194.588623 261.747848,194.581281 262.194702,195.031174 L269.735063,202.622824 C270.181678,203.072477 270.170067,203.808991 269.709991,204.26702 L262.483339,211.4615 Z M252.382939,201.292399 C251.922478,201.75081 251.187387,201.758152 250.740533,201.308259 L243.200172,193.716609 C242.753557,193.266956 242.765167,192.530442 243.225244,192.072413 L250.451896,184.877933 C250.912357,184.419521 251.647448,184.412179 252.094303,184.862073 L259.634664,192.453723 C260.081278,192.903375 260.069668,193.63989 259.609591,194.097918 L252.382939,201.292399 Z M242.28254,191.123297 C241.822078,191.581709 241.086987,191.589051 240.640133,191.139157 L233.099772,183.547507 C232.653158,183.097854 232.664768,182.36134 233.124844,181.903311 L240.351496,174.708831 C240.811958,174.250419 241.547049,174.243077 241.993903,174.692971 L249.534264,182.284621 C249.980879,182.734273 249.969269,183.470788 249.509192,183.928817 L242.28254,191.123297 Z M232.182141,180.954195 C231.721679,181.412607 230.986588,181.419949 230.539734,180.970055 L222.999373,173.378405 C222.552758,172.928753 222.564368,172.192238 223.024445,171.73421 L230.251097,164.539729 C230.711559,164.081318 231.44665,164.073976 231.893504,164.523869 L239.433865,172.115519 C239.880479,172.565172 239.868869,173.301686 239.408793,173.759715 L232.182141,180.954195 Z M222.081741,170.785093 C221.62128,171.243505 220.886189,171.250847 220.439334,170.800954 L212.898973,163.209303 C212.452359,162.759651 212.463969,162.023137 212.924046,161.565108 L220.150698,154.370628 C220.611159,153.912216 221.34625,153.904874 221.793104,154.354767 L229.333465,161.946418 C229.78008,162.39607 229.76847,163.132585 229.308393,163.590613 L222.081741,170.785093 Z M201.880942,150.44689 C201.420481,150.905302 200.68539,150.912644 200.238536,150.46275 L192.698175,142.8711 C192.25156,142.421448 192.26317,141.684933 192.723247,141.226905 L199.949899,134.032424 C200.41036,133.574013 201.145451,133.566671 201.592305,134.016564 L209.132667,141.608214 C209.579281,142.057867 209.567671,142.794381 209.107594,143.25241 L201.880942,150.44689 Z M191.780543,140.277788 C191.320081,140.7362 190.58499,140.743542 190.138136,140.293649 L182.597775,132.701998 C182.151161,132.252346 182.162771,131.515831 182.622847,131.057803 L189.849499,123.863323 C190.309961,123.404911 191.045052,123.397569 191.491906,123.847462 L199.032267,131.439113 C199.478882,131.888765 199.467272,132.62528 199.007195,133.083308 L191.780543,140.277788 Z M300.684457,209.29529 C300.223991,209.753706 299.488897,209.761051 299.042043,209.311157 L291.501682,201.719507 C291.055068,201.269855 291.066996,200.533023 291.526761,200.075305 L299.865166,191.774021 C300.325631,191.315605 301.060725,191.308261 301.507579,191.758154 L309.047941,199.349804 C309.494555,199.799457 309.482626,200.536288 309.022862,200.994006 L300.684457,209.29529 Z M290.584057,199.126189 C290.123592,199.584604 289.388498,199.591949 288.941644,199.142055 L281.401283,191.550405 C280.954668,191.100753 280.966597,190.363921 281.426362,189.906203 L289.764767,181.604919 C290.225232,181.146504 290.960326,181.139159 291.40718,181.589052 L298.947541,189.180703 C299.394156,189.630355 299.382227,190.367187 298.922462,190.824905 L290.584057,199.126189 Z M280.483658,188.957087 C280.023192,189.415502 279.288098,189.422847 278.841244,188.972954 L271.300883,181.381304 C270.854269,180.931651 270.866197,180.19482 271.325962,179.737101 L279.664367,171.435817 C280.124833,170.977402 280.859927,170.970057 281.306781,171.419951 L288.847142,179.011601 C289.293756,179.461253 289.281828,180.198085 288.822063,180.655803 L280.483658,188.957087 Z M280.394714,229.494707 C279.934252,229.953119 279.198709,229.960006 278.752532,229.510794 L263.400745,214.054585 C262.954255,213.605058 262.965966,212.868645 263.426043,212.410616 L270.652695,205.216136 C271.113156,204.757724 271.848699,204.750837 272.294876,205.200049 L287.646663,220.656258 C288.093153,221.105785 288.081442,221.842198 287.621366,222.300227 L280.394714,229.494707 Z M257.2756,185.904761 C256.815138,186.363172 256.080047,186.370514 255.633193,185.920621 L248.092832,178.328971 C247.646217,177.879318 247.657828,177.142804 248.117904,176.684775 L255.344556,169.490295 C255.805018,169.031883 256.540109,169.024541 256.986963,169.474435 L264.527324,177.066085 C264.973939,177.515737 264.962328,178.252252 264.502252,178.71028 L257.2756,185.904761 Z M247.1752,175.735659 C246.714739,176.194071 245.979648,176.201413 245.532794,175.751519 L237.992433,168.159869 C237.545818,167.710216 237.557428,166.973702 238.017505,166.515673 L245.244157,159.321193 C245.704618,158.862781 246.439709,158.855439 246.886564,159.305333 L254.426925,166.896983 C254.873539,167.346635 254.861929,168.08315 254.401852,168.541179 L247.1752,175.735659 Z M257.320075,165.635947 C256.85961,166.094363 256.124606,166.101799 255.677671,165.651823 L207.735694,117.383748 C207.289085,116.934101 207.301017,116.197273 207.760782,115.739555 L216.099187,107.438271 C216.559652,106.979855 217.294656,106.972419 217.741591,107.422395 L265.683568,155.69047 C266.130178,156.140117 266.118245,156.876945 265.65848,157.334663 L257.320075,165.635947 Z M237.074801,165.566557 C236.614339,166.024969 235.879248,166.032311 235.432394,165.582417 L227.892033,157.990767 C227.445419,157.541115 227.457029,156.8046 227.917105,156.346572 L235.143757,149.152091 C235.604219,148.69368 236.33931,148.686338 236.786164,149.136231 L244.326525,156.727881 C244.77314,157.177534 244.76153,157.914048 244.301453,158.372077 L237.074801,165.566557 Z M226.974402,155.397456 C226.51394,155.855867 225.778849,155.863209 225.331995,155.413316 L217.791634,147.821665 C217.345019,147.372013 217.356629,146.635499 217.816706,146.17747 L225.043358,138.98299 C225.50382,138.524578 226.238911,138.517236 226.685765,138.96713 L234.226126,146.55878 C234.67274,147.008432 234.66113,147.744947 234.201054,148.202975 L226.974402,155.397456 Z M216.874002,145.228354 C216.413541,145.686766 215.67845,145.694107 215.231595,145.244214 L207.691234,137.652564 C207.24462,137.202911 207.25623,136.466397 207.716307,136.008368 L214.942959,128.813888 C215.40342,128.355476 216.138511,128.348134 216.585365,128.798028 L224.125726,136.389678 C224.572341,136.83933 224.560731,137.575845 224.100654,138.033873 L216.874002,145.228354 Z M206.773603,135.059252 C206.313141,135.517664 205.57805,135.525006 205.131196,135.075112 L197.590835,127.483462 C197.14422,127.03381 197.15583,126.297295 197.615907,125.839267 L204.842559,118.644786 C205.303021,118.186375 206.038112,118.179033 206.484966,118.628926 L214.025327,126.220576 C214.471942,126.670229 214.460331,127.406743 214.000255,127.864772 L206.773603,135.059252 Z M196.673203,124.89015 C196.212742,125.348562 195.477651,125.355904 195.030797,124.906011 L187.490436,117.31436 C187.043821,116.864708 187.055431,116.128193 187.515508,115.670165 L194.74216,108.475685 C195.202621,108.017273 195.937712,108.009931 196.384566,108.459824 L203.924928,116.051475 C204.371542,116.501127 204.359932,117.237642 203.899855,117.69567 L196.673203,124.89015 Z M267.375999,196.073862 C266.915538,196.532274 266.180447,196.539616 265.733592,196.089722 L258.193231,188.498072 C257.746617,188.04842 257.758227,187.311905 258.218304,186.853877 L265.444956,179.659396 C265.905417,179.200985 266.640508,179.193643 267.087362,179.643536 L274.627723,187.235186 C275.074338,187.684839 275.062728,188.421353 274.602651,188.879382 L267.375999,196.073862 Z M277.476399,206.242964 C277.015937,206.701376 276.280846,206.708718 275.833992,206.258824 L268.293631,198.667174 C267.847016,198.217522 267.858626,197.481007 268.318703,197.022978 L275.545355,189.828498 C276.005817,189.370086 276.740908,189.362744 277.187762,189.812638 L284.728123,197.404288 C285.174737,197.853941 285.163127,198.590455 284.703051,199.048484 L277.476399,206.242964 Z M211.981342,160.615992 C211.52088,161.074403 210.785789,161.081745 210.338935,160.631852 L202.798574,153.040202 C202.351959,152.590549 202.363569,151.854035 202.823646,151.396006 L210.050298,144.201526 C210.51076,143.743114 211.245851,143.735772 211.692705,144.185666 L219.233066,151.777316 C219.679681,152.226968 219.66807,152.963483 219.207994,153.421511 L211.981342,160.615992 Z M290.539582,219.395002 C290.07912,219.853414 289.344746,219.861478 288.897665,219.411355 L278.39354,208.835782 C277.947196,208.386402 277.959026,207.650109 278.419102,207.19208 L285.645754,199.9976 C286.106216,199.539188 286.84059,199.531124 287.287671,199.981246 L297.791796,210.556819 C298.23814,211.006199 298.226311,211.742493 297.766234,212.200522 L290.539582,219.395002 Z M270.383258,178.787985 C269.922793,179.246401 269.188416,179.254468 268.741335,178.804345 L258.23721,168.228772 C257.790866,167.779392 257.803014,167.042781 258.262779,166.585063 L266.601184,158.283779 C267.061649,157.825364 267.796026,157.817297 268.243108,158.267419 L278.747232,168.842992 C279.193576,169.292372 279.181428,170.028983 278.721663,170.486701 L270.383258,178.787985 Z" id="Shape" fill="#7D95C9" style="mix-blend-mode: multiply;"></path>
            <path d="M253.771734,67.8246148 L288.731613,102.789402 C290.683277,104.741065 290.684375,107.904999 288.734065,109.858016 L267.212406,131.419376 C265.26114,133.373351 262.095316,133.375548 260.14134,131.424281 L260.138886,131.421829 L225.181459,96.4545903 C223.229795,94.5029267 223.228698,91.3389933 225.179007,89.3859762 L246.700666,67.8246165 C248.651932,65.8706409 251.817756,65.8684446 253.771732,67.8197109 L253.774186,67.8221629 L253.771734,67.8246148 Z" id="Macbook-base" fill="#B6CDED" fill-rule="nonzero"></path>
            <path d="M0.566394743,133.757284 L4.50741598,128.62436 L82.3041218,122.095468 L252.744858,282.02202 L251.623242,284.238932 C250.709732,286.044515 249.105388,287.404358 247.174525,288.009665 L180.931752,308.776173 C176.916236,310.035 172.533902,308.947487 169.572803,305.957353 L0.66967823,135.398087 C0.229821467,134.953917 0.185707448,134.253104 0.566394743,133.757284 Z" id="Macbook-base" fill="#7D95C9" fill-rule="nonzero" style="mix-blend-mode: multiply;"></path>
            <path d="M3.82785368,127.923007 L83.5547854,113.340665 L252.695834,282.060195 L182.713327,303.999074 C179.140496,305.119124 175.241298,304.149403 172.609343,301.486238 L3.16367454,130.031268 C2.67840484,129.540244 2.68306969,128.748801 3.17409376,128.263531 C3.35283072,128.086889 3.58065899,127.96822 3.82785368,127.923007 Z" id="Macbook-base" fill="url(#linearGradient-4)" fill-rule="nonzero"></path>
            <path d="M15.0683864,131.659363 L84.8054798,118.343404 L245.191709,278.308111 L183.876468,296.608509 C180.347557,297.661762 176.525337,296.690162 173.927768,294.07957 L14.4167413,133.768851 C13.9298081,133.279477 13.931787,132.488023 14.4211615,132.00109 C14.5979762,131.825157 14.823382,131.706145 15.0683864,131.659363 Z" id="Macbook-base" fill="url(#linearGradient-11)" fill-rule="nonzero"></path>
        </g>
        <g id="Book" transform="translate(830.059946, 411.694215)" fill-rule="nonzero">
            <polygon id="Book-base" fill="url(#linearGradient-2)" points="10.238672 105.128897 16.3468638 90.6948216 0.233222408 87.7989501 24.0620426 74.0413743 34.0674922 91.3713214"></polygon>
            <path d="M75.0405079,173.018562 L17.5078103,73.3690065 C16.1270985,70.9775434 16.9464743,67.9195914 19.3379374,66.5388795 L131.988041,1.50031203 C134.379504,0.119600157 137.437456,0.938975934 138.818168,3.33043905 L196.350865,102.979994 L75.0405079,173.018562 Z" id="Book-base" fill="url(#linearGradient-12)"></path>
            <polygon id="Book-base" fill="#FFFFFF" opacity="0.449999988" points="85.2795309 138.223897 50.2604574 77.5690819 78.4217903 61.3101288 113.440864 121.964943"></polygon>
            <polygon id="Book-base" fill="#FFFFFF" opacity="0.449999988" points="146.514854 94.2044988 117.749186 44.380901 124.247955 40.6288349 153.013623 90.4524327"></polygon>
            <polygon id="Book-base" fill="#FFFFFF" opacity="0.449999988" points="157.346071 87.9510553 128.580403 38.1274575 135.079172 34.3753914 163.84484 84.1989891"></polygon>
        </g>
        <g id="Ipad" transform="translate(440.847411, 259.110193)" fill-rule="nonzero">
            <path d="M3.32983615,74.042467 L128.976672,1.5002327 C131.368135,0.119520821 134.426087,0.938896598 135.806799,3.33035971 L227.735173,162.554975 C229.115885,164.946438 228.296509,168.00439 225.905046,169.385102 L100.258211,241.927337 C97.8667477,243.308049 94.8087957,242.488673 93.4280838,240.09721 L1.49970913,80.872594 C0.118997255,78.4811309 0.938373031,75.4231789 3.32983615,74.042467 Z" id="Ipad-base" fill="url(#linearGradient-13)"></path>
            <ellipse id="Ipad-base" fill="#5C76AF" transform="translate(158.703954, 198.074322) rotate(-30.000000) translate(-158.703954, -198.074322) " cx="158.703954" cy="198.074322" rx="6.25340599" ry="6.25344353"></ellipse>
            <ellipse id="Ipad-base" fill="#5C76AF" transform="translate(69.905588, 44.270119) rotate(-30.000000) translate(-69.905588, -44.270119) " cx="69.9055884" cy="44.270119" rx="2.5013624" ry="2.50137741"></ellipse>
            <polygon id="Ipad-base" fill="url(#linearGradient-11)" points="10.2109894 85.9555147 135.853105 13.4160052 217.147871 154.22267 91.5057552 226.76218"></polygon>
        </g>
        <g id="Lamp" transform="translate(876.084469, 515.752066)" fill-rule="nonzero">
            <ellipse id="Lamp-base" fill="url(#linearGradient-5)" cx="139.701635" cy="265.77135" rx="81.9196185" ry="81.9201102"></ellipse>
            <ellipse id="Lamp-base" fill="url(#linearGradient-4)" cx="142.828338" cy="260.143251" rx="23.7629428" ry="23.7630854"></ellipse>
            <ellipse id="Lamp-base" fill="url(#linearGradient-4)" transform="translate(104.653096, 105.186290) rotate(-4.000000) translate(-104.653096, -105.186290) " cx="104.653096" cy="105.18629" rx="97.9804496" ry="98.011288"></ellipse>
            <path d="M92.8010899,202.495522 L92.8010899,145.07989 L113.43733,156.961433 L143.453678,186.977961 L144.631403,194.698649 C134.434332,199.25645 123.278903,202.134468 111.490018,202.958827 C105.141906,203.402731 98.8928091,203.231379 92.8010899,202.495522 Z" id="Path" fill="url(#linearGradient-14)" style="mix-blend-mode: multiply;" opacity="0.300000012"></path>
            <path d="M130.691063,157.443649 C129.260328,154.470124 129.91323,150.64102 132.149362,148.891105 C134.385494,147.14119 137.358077,148.133122 138.788812,151.106647 C156.722379,188.378327 167.092357,214.249801 170.009273,229.333843 C172.369539,241.53932 169.747281,253.049818 163.506908,260.409924 C157.385405,267.62983 148.746595,269.605632 141.250041,264.871478 C138.828235,263.342082 137.746374,259.595105 138.833638,256.502373 C139.920901,253.40964 142.765565,252.142305 145.187371,253.671702 C153.722305,259.061604 163.665467,247.334303 160.690673,231.950965 C158.111223,218.612033 148.07451,193.572004 130.691063,157.443649 Z" id="Lamp-base" fill="#5171B9"></path>
            <path d="M98.6719901,164.791562 C87.4800878,148.198785 91.8541296,125.677598 108.441686,114.489083 C125.029242,103.300568 147.548943,107.681588 158.740845,124.274365 C159.365745,125.200823 167.655862,137.491501 183.611197,161.1464 L123.542343,201.663598 C107.587008,178.008699 99.2968901,165.71802 98.6719901,164.791562 Z" id="Lamp-base" fill="url(#linearGradient-5)"></path>
            <ellipse id="Lamp-base" fill="url(#linearGradient-11)" transform="translate(153.576770, 181.404999) rotate(-34.000000) translate(-153.576770, -181.404999) " cx="153.57677" cy="181.404999" rx="36.2280654" ry="29.6504737"></ellipse>
        </g>
        <g id="Coffee" transform="translate(854.291553, 360.950413) scale(1, -1) translate(-854.291553, -360.950413) translate(796.291553, 299.950413)" fill-rule="nonzero">
            <ellipse id="Coffee-base" fill="url(#linearGradient-4)" transform="translate(57.531335, 57.531680) rotate(-180.000000) translate(-57.531335, -57.531680) " cx="57.5313351" cy="57.5316804" rx="57.5313351" ry="57.5316804"></ellipse>
            <path d="M58.7820163,121.316804 C55.3283556,121.316804 52.5286104,118.517059 52.5286104,115.063398 L52.5286104,92.5509642 L65.0354223,92.5509642 L65.0354223,115.063398 C65.0354223,118.517059 62.2356771,121.316804 58.7820163,121.316804 Z" id="Coffee-base" fill="url(#linearGradient-5)"></path>
            <ellipse id="Coffee-base" fill="url(#linearGradient-5)" transform="translate(57.531335, 56.280992) rotate(-180.000000) translate(-57.531335, -56.280992) " cx="57.5313351" cy="56.2809917" rx="38.7711172" ry="38.7713499"></ellipse>
            <ellipse id="Coffee-base" fill="#7D95C9" style="mix-blend-mode: multiply;" transform="translate(57.531335, 56.280992) rotate(-180.000000) translate(-57.531335, -56.280992) " cx="57.5313351" cy="56.2809917" rx="31.26703" ry="31.2672176"></ellipse>
        </g>
    </g>
</svg>