<svg xmlns="http://www.w3.org/2000/svg" xmlns:xlink="http://www.w3.org/1999/xlink" viewBox="0 0 354.97 56.57"><defs><style>.cls-1{mask:url(#mask);filter:url(#luminosity-noclip-2);}.cls-2{mix-blend-mode:multiply;fill:url(#linear-gradient);}.cls-3{mask:url(#mask-2);}.cls-4{opacity:0.5;}.cls-5{font-size:32px;font-family:Poppins-ExtraBold, Poppins;font-weight:800;letter-spacing:0.4em;}.cls-6{filter:url(#luminosity-noclip);}</style><filter id="luminosity-noclip" x="6" y="-7282.35" width="29.85" height="32766" filterUnits="userSpaceOnUse" color-interpolation-filters="sRGB"><feFlood flood-color="#fff" result="bg"/><feBlend in="SourceGraphic" in2="bg"/></filter><mask id="mask" x="6" y="-7282.35" width="29.85" height="32766" maskUnits="userSpaceOnUse"><g class="cls-6"/></mask><linearGradient id="linear-gradient" x1="29.44" y1="18.51" x2="16.55" y2="41.68" gradientUnits="userSpaceOnUse"><stop offset="0" stop-color="#fff"/><stop offset="0.17" stop-color="#c6c6c6"/><stop offset="0.4" stop-color="gray"/><stop offset="0.6" stop-color="#494949"/><stop offset="0.78" stop-color="#212121"/><stop offset="0.92" stop-color="#090909"/><stop offset="1"/></linearGradient><filter id="luminosity-noclip-2" x="6" y="13.11" width="29.85" height="35.48" filterUnits="userSpaceOnUse" color-interpolation-filters="sRGB"><feFlood flood-color="#fff" result="bg"/><feBlend in="SourceGraphic" in2="bg"/></filter><mask id="mask-2" x="6" y="13.11" width="29.85" height="35.48" maskUnits="userSpaceOnUse"><g class="cls-1"><path class="cls-2" d="M6,46.86a12.44,12.44,0,0,0,10.51,1,13.28,13.28,0,0,0,6.86-6q6.24-10.56,12.47-21.12l-4.42-7.67L18.61,34.79,16.48,38.4a5.33,5.33,0,0,1-1.9,1.93,4.75,4.75,0,0,1-3.12.48,4.91,4.91,0,0,1-1.65-.6"/></g></mask></defs><title>Size increase black</title><g id="Layer_2" data-name="Layer 2"><g id="Layer_1-2" data-name="Layer 1"><path d="M39.13,26.46l2.55,4.46c1.19,2.08,2.9,4.15,2.25,6.7a5.45,5.45,0,0,1-4.79,4,5.24,5.24,0,0,1-3.48-1.13L33,38.52a3.87,3.87,0,0,0-5.28,1.39c-1.23,2.33.06,4.26,1.92,5.67,2.72,2.05,5.53,3.67,9,3.75a13,13,0,0,0,11.27-19.6c-.86-1.5-1.74-3-2.61-4.51Q41.79,15.55,36.17,5.91a11.95,11.95,0,0,0-20.83.31q-1.47,2.52-2.92,5Q8,19,3.55,26.63C2.82,27.9,2,29.16,1.37,30.47-1.08,35.46-.29,42,4.15,45.59a12.68,12.68,0,0,0,12.37,2.27,13.3,13.3,0,0,0,6.86-6L34.71,22.72a3.82,3.82,0,0,0,0-3.88h0a3.86,3.86,0,0,0-6.66,0l-9.45,16c-.71,1.2-1.41,2.4-2.13,3.6a5.35,5.35,0,0,1-1.9,1.94,4.78,4.78,0,0,1-3.11.47,4.87,4.87,0,0,1-2.22-1A4.48,4.48,0,0,1,7.69,37,6.47,6.47,0,0,1,8.9,32.78c4.43-7.66,8.75-15.4,13.28-23a4.34,4.34,0,0,1,3.69-2.16,4.22,4.22,0,0,1,2.49.82A7.21,7.21,0,0,1,30.18,11Z"/><g class="cls-3"><path class="cls-4" d="M6,46.86a12.44,12.44,0,0,0,10.51,1,13.28,13.28,0,0,0,6.86-6L34.7,22.72a3.89,3.89,0,0,0,0-3.89h0a3.86,3.86,0,0,0-6.66,0l-9.45,16L16.48,38.4a5.33,5.33,0,0,1-1.9,1.93,4.75,4.75,0,0,1-3.12.48,4.91,4.91,0,0,1-1.65-.6"/></g><text class="cls-5" transform="translate(61.43 35.64) scale(1 1.06)">AFRITASKS</text></g></g></svg>